<mxfile host="65bd71144e">
    <diagram id="-xUfYWvfw8CdFtkS5Wqx" name="Page-1">
        <mxGraphModel dx="6887" dy="2777" grid="1" gridSize="10" guides="1" tooltips="1" connect="1" arrows="1" fold="1" page="1" pageScale="1" pageWidth="1169" pageHeight="827" math="0" shadow="0">
            <root>
                <mxCell id="0"/>
                <mxCell id="1" parent="0"/>
                <mxCell id="85" value="Data App" style="shape=cube;whiteSpace=wrap;html=1;boundedLbl=1;backgroundOutline=1;darkOpacity=0.05;darkOpacity2=0.1;strokeColor=#000000;fillColor=#FFFFFF;fontSize=14;fontColor=#000000;size=10;fontStyle=1;align=left;verticalAlign=top;spacingLeft=10;" vertex="1" parent="1">
                    <mxGeometry x="2042" y="1300" width="560" height="410" as="geometry"/>
                </mxCell>
                <mxCell id="86" value="&lt;font color=&quot;#000000&quot; style=&quot;font-size: 14px&quot;&gt;&lt;span style=&quot;font-size: 14px&quot;&gt;&lt;b&gt;Base Data App&lt;/b&gt;&lt;br&gt;Kotlin Library&lt;/span&gt;&lt;/font&gt;" style="rounded=0;whiteSpace=wrap;html=1;fontColor=#FFFFFF;fillColor=#FFFFFF;fontSize=14;verticalAlign=top;" vertex="1" parent="1">
                    <mxGeometry x="2072" y="1502" width="520" height="188" as="geometry"/>
                </mxCell>
                <mxCell id="132" style="edgeStyle=none;jumpStyle=arc;html=1;entryX=0.5;entryY=1;entryDx=0;entryDy=0;dashed=1;startArrow=none;startFill=0;endArrow=classic;endFill=1;exitX=0.5;exitY=0;exitDx=0;exitDy=0;" edge="1" parent="1" source="87" target="99">
                    <mxGeometry relative="1" as="geometry">
                        <Array as="points">
                            <mxPoint x="2332" y="1650"/>
                            <mxPoint x="2460" y="1650"/>
                        </Array>
                    </mxGeometry>
                </mxCell>
                <mxCell id="87" value="&lt;b&gt;API&lt;/b&gt;" style="rounded=1;whiteSpace=wrap;html=1;strokeColor=#000000;fillColor=#FFFFFF;rotation=0;" vertex="1" parent="1">
                    <mxGeometry x="2283.25" y="1668.5" width="97.5" height="35" as="geometry"/>
                </mxCell>
                <mxCell id="88" value="&lt;font color=&quot;#000000&quot; style=&quot;font-size: 14px&quot;&gt;&lt;span style=&quot;font-size: 14px&quot;&gt;&lt;b&gt;&lt;br&gt;Application Logic&lt;br&gt;&lt;/b&gt;Kotlin&lt;br&gt;&lt;/span&gt;&lt;/font&gt;" style="rounded=0;whiteSpace=wrap;html=1;fontColor=#FFFFFF;fillColor=#FFFFFF;fontSize=14;verticalAlign=top;" vertex="1" parent="1">
                    <mxGeometry x="2072" y="1339" width="520" height="162" as="geometry"/>
                </mxCell>
                <mxCell id="90" value="" style="shape=image;verticalLabelPosition=bottom;verticalAlign=top;imageAspect=0;aspect=fixed;image=data:image/jpeg,/9j/4AAQSkZJRgABAQEAYABgAAD/4REMRXhpZgAATU0AKgAAAAgABAE7AAIAAAAWAAAISodpAAQAAAABAAAIYJydAAEAAAAsAAAQ2OocAAcAAAgMAAAAPgAAAAAc6gAAAAgAAAAAAAAAAAAAAAAAAAAAAAAAAAAAAAAAAAAAAAAAAAAAAAAAAAAAAAAAAAAAAAAAAAAAAAAAAAAAAAAAAAAAAAAAAAAAAAAAAAAAAAAAAAAAAAAAAAAAAAAAAAAAAAAAAAAAAAAAAAAAAAAAAAAAAAAAAAAAAAAAAAAAAAAAAAAAAAAAAAAAAAAAAAAAAAAAAAAAAAAAAAAAAAAAAAAAAAAAAAAAAAAAAAAAAAAAAAAAAAAAAAAAAAAAAAAAAAAAAAAAAAAAAAAAAAAAAAAAAAAAAAAAAAAAAAAAAAAAAAAAAAAAAAAAAAAAAAAAAAAAAAAAAAAAAAAAAAAAAAAAAAAAAAAAAAAAAAAAAAAAAAAAAAAAAAAAAAAAAAAAAAAAAAAAAAAAAAAAAAAAAAAAAAAAAAAAAAAAAAAAAAAAAAAAAAAAAAAAAAAAAAAAAAAAAAAAAAAAAAAAAAAAAAAAAAAAAAAAAAAAAAAAAAAAAAAAAAAAAAAAAAAAAAAAAAAAAAAAAAAAAAAAAAAAAAAAAAAAAAAAAAAAAAAAAAAAAAAAAAAAAAAAAAAAAAAAAAAAAAAAAAAAAAAAAAAAAAAAAAAAAAAAAAAAAAAAAAAAAAAAAAAAAAAAAAAAAAAAAAAAAAAAAAAAAAAAAAAAAAAAAAAAAAAAAAAAAAAAAAAAAAAAAAAAAAAAAAAAAAAAAAAAAAAAAAAAAAAAAAAAAAAAAAAAAAAAAAAAAAAAAAAAAAAAAAAAAAAAAAAAAAAAAAAAAAAAAAAAAAAAAAAAAAAAAAAAAAAAAAAAAAAAAAAAAAAAAAAAAAAAAAAAAAAAAAAAAAAAAAAAAAAAAAAAAAAAAAAAAAAAAAAAAAAAAAAAAAAAAAAAAAAAAAAAAAAAAAAAAAAAAAAAAAAAAAAAAAAAAAAAAAAAAAAAAAAAAAAAAAAAAAAAAAAAAAAAAAAAAAAAAAAAAAAAAAAAAAAAAAAAAAAAAAAAAAAAAAAAAAAAAAAAAAAAAAAAAAAAAAAAAAAAAAAAAAAAAAAAAAAAAAAAAAAAAAAAAAAAAAAAAAAAAAAAAAAAAAAAAAAAAAAAAAAAAAAAAAAAAAAAAAAAAAAAAAAAAAAAAAAAAAAAAAAAAAAAAAAAAAAAAAAAAAAAAAAAAAAAAAAAAAAAAAAAAAAAAAAAAAAAAAAAAAAAAAAAAAAAAAAAAAAAAAAAAAAAAAAAAAAAAAAAAAAAAAAAAAAAAAAAAAAAAAAAAAAAAAAAAAAAAAAAAAAAAAAAAAAAAAAAAAAAAAAAAAAAAAAAAAAAAAAAAAAAAAAAAAAAAAAAAAAAAAAAAAAAAAAAAAAAAAAAAAAAAAAAAAAAAAAAAAAAAAAAAAAAAAAAAAAAAAAAAAAAAAAAAAAAAAAAAAAAAAAAAAAAAAAAAAAAAAAAAAAAAAAAAAAAAAAAAAAAAAAAAAAAAAAAAAAAAAAAAAAAAAAAAAAAAAAAAAAAAAAAAAAAAAAAAAAAAAAAAAAAAAAAAAAAAAAAAAAAAAAAAAAAAAAAAAAAAAAAAAAAAAAAAAAAAAAAAAAAAAAAAAAAAAAAAAAAAAAAAAAAAAAAAAAAAAAAAAAAAAAAAAAAAAAAAAAAAAAAAAAAAAAAAAAAAAAAAAAAAAAAAAAAAAAAAAAAAAAAAAAAAAAAAAAAAAAAAAAAAAAAAAAAAAAAAAAAAAAAAAAAAAAAAAAAAAAAAAAAAAAAAAAAAAAAAAAAAAAAAAAAAAAAAAAAAAAAAAAAAAAAAAAAAAAAAAAAAAAAAAAAAAAAAAAAAAAAAAAAAAAAAAAAAAAAAAAAAAAAAAAAAAAAAAAAAAAAAAAAAAAAAAAAAAAAAAAAAAAAAAAAAAAAAAAAAAAAAAAAAAAAAAAAAAAAAAAAAAAAAAAAAAAAAAAAAAAAAAAAAAAAAAAAAAAAAAAAAAAAAAAAAAAAAAAAAAAAAAAAAAAAAAAAAAAAAAAAAAAAAAAAAAAAAAAAAAAAAAAAAAAAAAAAAAAAAAAAAAAAAAAAAAAAAAAAAAAAAAAAAAAAAAAAAAAAAAAAAAAAAAAAAAAAAAAAAAAAAAAAAAAAAAAAAAAAAAAAAAAAAAAAAAAAAAAAAAAAAAAAAAAAAAAAAAAAAAAAAAAAAAAAAAAAAAAAAAAAAAAAAAAAAAAAAAAAAAAAAAAAAAAAAAAAAAAAAAAAAAAAAAAAAAAAAAAAAAAAAAAAAAAAAAAAAAAAAAAAAAAAAAAAAAAAAAAAAAAAAAAAAAAAAAAAAAAAAAAAAAAAAAAAAAAAAAAAAAAAAAAAAAAAAAAAAAAAAAAAAAAAAAAAAAAAAAAAAAAAAAAAAAAAAAAAAAAAAAAAAAAAAAAAAAAAAAAAAAAAAAAAAAAAAAAAAAAAAAAAAAAAAAAAAAAAAAAAAAAAAAAAAAAAAAAAAAAAAAAAAAAAAAAAAAAAAAAAAAAAAAAAAAAAAAAAAAAAAAAAAAAAAAAAAAAAAAAAAAAAAAAAAAAAAAAAAAAAAAAAAAAAAAAAAAAAAAAAAAAAAAAAAAAAAAAAAAAAAAAAAAAAAAAAAAAAAAAAAAAAAAAAAAAAAAAAAAAAAAAAAAAAAAAAAAAAAAAAAAAAAAAAAAAAAAAAAAAAAAAAAAAAAAAAAAAAAAAAAAAAAAAAAAAAAAAAAAAAAAAAAAAAAAAAAAAAAAAAAAAAAAAAAAAAAAAAAAAAAAAAAAAAAAAAAAAAAAAAAEFkcmlhYW5zZSwgSi4gKEpvb3N0KQAABZADAAIAAAAUAAAQrpAEAAIAAAAUAAAQwpKRAAIAAAADODUAAJKSAAIAAAADODUAAOocAAcAAAgMAAAIogAAAAAc6gAAAAgAAAAAAAAAAAAAAAAAAAAAAAAAAAAAAAAAAAAAAAAAAAAAAAAAAAAAAAAAAAAAAAAAAAAAAAAAAAAAAAAAAAAAAAAAAAAAAAAAAAAAAAAAAAAAAAAAAAAAAAAAAAAAAAAAAAAAAAAAAAAAAAAAAAAAAAAAAAAAAAAAAAAAAAAAAAAAAAAAAAAAAAAAAAAAAAAAAAAAAAAAAAAAAAAAAAAAAAAAAAAAAAAAAAAAAAAAAAAAAAAAAAAAAAAAAAAAAAAAAAAAAAAAAAAAAAAAAAAAAAAAAAAAAAAAAAAAAAAAAAAAAAAAAAAAAAAAAAAAAAAAAAAAAAAAAAAAAAAAAAAAAAAAAAAAAAAAAAAAAAAAAAAAAAAAAAAAAAAAAAAAAAAAAAAAAAAAAAAAAAAAAAAAAAAAAAAAAAAAAAAAAAAAAAAAAAAAAAAAAAAAAAAAAAAAAAAAAAAAAAAAAAAAAAAAAAAAAAAAAAAAAAAAAAAAAAAAAAAAAAAAAAAAAAAAAAAAAAAAAAAAAAAAAAAAAAAAAAAAAAAAAAAAAAAAAAAAAAAAAAAAAAAAAAAAAAAAAAAAAAAAAAAAAAAAAAAAAAAAAAAAAAAAAAAAAAAAAAAAAAAAAAAAAAAAAAAAAAAAAAAAAAAAAAAAAAAAAAAAAAAAAAAAAAAAAAAAAAAAAAAAAAAAAAAAAAAAAAAAAAAAAAAAAAAAAAAAAAAAAAAAAAAAAAAAAAAAAAAAAAAAAAAAAAAAAAAAAAAAAAAAAAAAAAAAAAAAAAAAAAAAAAAAAAAAAAAAAAAAAAAAAAAAAAAAAAAAAAAAAAAAAAAAAAAAAAAAAAAAAAAAAAAAAAAAAAAAAAAAAAAAAAAAAAAAAAAAAAAAAAAAAAAAAAAAAAAAAAAAAAAAAAAAAAAAAAAAAAAAAAAAAAAAAAAAAAAAAAAAAAAAAAAAAAAAAAAAAAAAAAAAAAAAAAAAAAAAAAAAAAAAAAAAAAAAAAAAAAAAAAAAAAAAAAAAAAAAAAAAAAAAAAAAAAAAAAAAAAAAAAAAAAAAAAAAAAAAAAAAAAAAAAAAAAAAAAAAAAAAAAAAAAAAAAAAAAAAAAAAAAAAAAAAAAAAAAAAAAAAAAAAAAAAAAAAAAAAAAAAAAAAAAAAAAAAAAAAAAAAAAAAAAAAAAAAAAAAAAAAAAAAAAAAAAAAAAAAAAAAAAAAAAAAAAAAAAAAAAAAAAAAAAAAAAAAAAAAAAAAAAAAAAAAAAAAAAAAAAAAAAAAAAAAAAAAAAAAAAAAAAAAAAAAAAAAAAAAAAAAAAAAAAAAAAAAAAAAAAAAAAAAAAAAAAAAAAAAAAAAAAAAAAAAAAAAAAAAAAAAAAAAAAAAAAAAAAAAAAAAAAAAAAAAAAAAAAAAAAAAAAAAAAAAAAAAAAAAAAAAAAAAAAAAAAAAAAAAAAAAAAAAAAAAAAAAAAAAAAAAAAAAAAAAAAAAAAAAAAAAAAAAAAAAAAAAAAAAAAAAAAAAAAAAAAAAAAAAAAAAAAAAAAAAAAAAAAAAAAAAAAAAAAAAAAAAAAAAAAAAAAAAAAAAAAAAAAAAAAAAAAAAAAAAAAAAAAAAAAAAAAAAAAAAAAAAAAAAAAAAAAAAAAAAAAAAAAAAAAAAAAAAAAAAAAAAAAAAAAAAAAAAAAAAAAAAAAAAAAAAAAAAAAAAAAAAAAAAAAAAAAAAAAAAAAAAAAAAAAAAAAAAAAAAAAAAAAAAAAAAAAAAAAAAAAAAAAAAAAAAAAAAAAAAAAAAAAAAAAAAAAAAAAAAAAAAAAAAAAAAAAAAAAAAAAAAAAAAAAAAAAAAAAAAAAAAAAAAAAAAAAAAAAAAAAAAAAAAAAAAAAAAAAAAAAAAAAAAAAAAAAAAAAAAAAAAAAAAAAAAAAAAAAAAAAAAAAAAAAAAAAAAAAAAAAAAAAAAAAAAAAAAAAAAAAAAAAAAAAAAAAAAAAAAAAAAAAAAAAAAAAAAAAAAAAAAAAAAAAAAAAAAAAAAAAAAAAAAAAAAAAAAAAAAAAAAAAAAAAAAAAAAAAAAAAAAAAAAAAAAAAAAAAAAAAAAAAAAAAAAAAAAAAAAAAAAAAAAAAAAAAAAAAAAAAAAAAAAAAAAAAAAAAAAAAAAAAAAAAAAAAAAAAAAAAAAAAAAAAAAAAAAAAAAAAAAAAAAAAAAAAAAAAAAAAAAAAAAAAAAAAAAAAAAAAAAAAAAAAAAAAAAAAAAAAAAAAAAAAAAAAAAAAAAAAAAAAAAAAAAAAAAAAAAAAAAAAAAAAAAAAAAAAAAAAAAAAAAAAAAAAAAAAAAAAAAAAAAAAAAAAAAAAAAAAAAAAAAAAAAAAAAAAAAAAAAAAAAAAAAAAAAAAAAAAAAAAAAAAAAAAAAAAAAAAAAAAAAAAAAAAAAAAAAAAAAAAAAAAAAAAAAAAAAAAAAAAAAAAAAAAAAAAAAAAAAAAAAAAAAAAAAAAAAAAAAAAAAAAAAAAAAAAAAAAAAAAAAAAAAAAAAAAAAAAAAAAAAAAAAAAAAAAAAAAAAAAAAAAAAAAAAAAAAAAAAAAAAAAAAAAAAAAAAAAAAAAAAAAAAAAAAAAAAAAAAAAAAAAAAAAAAAAAAAAAAAAAAAAAAAAAAAAAAAAAAAAAAAAAAAAAAAAAAAAAAAAAAAAAAAAAAAAAAAAAAAAAAAAAAAAAAAAAAAAAAAAAAAAAAAAAAAAAAAAAAAAAAAAAAAAAAAAAAAAAAAAAAAAAAADIwMjE6MTA6MjcgMTg6NTY6MzEAMjAyMToxMDoyNyAxODo1NjozMQAAAEEAZAByAGkAYQBhAG4AcwBlACwAIABKAC4AIAAoAEoAbwBvAHMAdAApAAAA/+ELKGh0dHA6Ly9ucy5hZG9iZS5jb20veGFwLzEuMC8APD94cGFja2V0IGJlZ2luPSfvu78nIGlkPSdXNU0wTXBDZWhpSHpyZVN6TlRjemtjOWQnPz4NCjx4OnhtcG1ldGEgeG1sbnM6eD0iYWRvYmU6bnM6bWV0YS8iPjxyZGY6UkRGIHhtbG5zOnJkZj0iaHR0cDovL3d3dy53My5vcmcvMTk5OS8wMi8yMi1yZGYtc3ludGF4LW5zIyI+PHJkZjpEZXNjcmlwdGlvbiByZGY6YWJvdXQ9InV1aWQ6ZmFmNWJkZDUtYmEzZC0xMWRhLWFkMzEtZDMzZDc1MTgyZjFiIiB4bWxuczpkYz0iaHR0cDovL3B1cmwub3JnL2RjL2VsZW1lbnRzLzEuMS8iLz48cmRmOkRlc2NyaXB0aW9uIHJkZjphYm91dD0idXVpZDpmYWY1YmRkNS1iYTNkLTExZGEtYWQzMS1kMzNkNzUxODJmMWIiIHhtbG5zOnhtcD0iaHR0cDovL25zLmFkb2JlLmNvbS94YXAvMS4wLyI+PHhtcDpDcmVhdGVEYXRlPjIwMjEtMTAtMjdUMTg6NTY6MzEuODQ4PC94bXA6Q3JlYXRlRGF0ZT48L3JkZjpEZXNjcmlwdGlvbj48cmRmOkRlc2NyaXB0aW9uIHJkZjphYm91dD0idXVpZDpmYWY1YmRkNS1iYTNkLTExZGEtYWQzMS1kMzNkNzUxODJmMWIiIHhtbG5zOmRjPSJodHRwOi8vcHVybC5vcmcvZGMvZWxlbWVudHMvMS4xLyI+PGRjOmNyZWF0b3I+PHJkZjpTZXEgeG1sbnM6cmRmPSJodHRwOi8vd3d3LnczLm9yZy8xOTk5LzAyLzIyLXJkZi1zeW50YXgtbnMjIj48cmRmOmxpPkFkcmlhYW5zZSwgSi4gKEpvb3N0KTwvcmRmOmxpPjwvcmRmOlNlcT4NCgkJCTwvZGM6Y3JlYXRvcj48L3JkZjpEZXNjcmlwdGlvbj48L3JkZjpSREY+PC94OnhtcG1ldGE+DQogICAgICAgICAgICAgICAgICAgICAgICAgICAgICAgICAgICAgICAgICAgICAgICAgICAgICAgICAgICAgICAgICAgICAgICAgICAgICAgICAgICAgICAgICAgICAgICAgICAgCiAgICAgICAgICAgICAgICAgICAgICAgICAgICAgICAgICAgICAgICAgICAgICAgICAgICAgICAgICAgICAgICAgICAgICAgICAgICAgICAgICAgICAgICAgICAgICAgICAgICAKICAgICAgICAgICAgICAgICAgICAgICAgICAgICAgICAgICAgICAgICAgICAgICAgICAgICAgICAgICAgICAgICAgICAgICAgICAgICAgICAgICAgICAgICAgICAgICAgICAgIAogICAgICAgICAgICAgICAgICAgICAgICAgICAgICAgICAgICAgICAgICAgICAgICAgICAgICAgICAgICAgICAgICAgICAgICAgICAgICAgICAgICAgICAgICAgICAgICAgICAgCiAgICAgICAgICAgICAgICAgICAgICAgICAgICAgICAgICAgICAgICAgICAgICAgICAgICAgICAgICAgICAgICAgICAgICAgICAgICAgICAgICAgICAgICAgICAgICAgICAgICAKICAgICAgICAgICAgICAgICAgICAgICAgICAgICAgICAgICAgICAgICAgICAgICAgICAgICAgICAgICAgICAgICAgICAgICAgICAgICAgICAgICAgICAgICAgICAgICAgICAgIAogICAgICAgICAgICAgICAgICAgICAgICAgICAgICAgICAgICAgICAgICAgICAgICAgICAgICAgICAgICAgICAgICAgICAgICAgICAgICAgICAgICAgICAgICAgICAgICAgICAgCiAgICAgICAgICAgICAgICAgICAgICAgICAgICAgICAgICAgICAgICAgICAgICAgICAgICAgICAgICAgICAgICAgICAgICAgICAgICAgICAgICAgICAgICAgICAgICAgICAgICAKICAgICAgICAgICAgICAgICAgICAgICAgICAgICAgICAgICAgICAgICAgICAgICAgICAgICAgICAgICAgICAgICAgICAgICAgICAgICAgICAgICAgICAgICAgICAgICAgICAgIAogICAgICAgICAgICAgICAgICAgICAgICAgICAgICAgICAgICAgICAgICAgICAgICAgICAgICAgICAgICAgICAgICAgICAgICAgICAgICAgICAgICAgICAgICAgICAgICAgICAgCiAgICAgICAgICAgICAgICAgICAgICAgICAgICAgICAgICAgICAgICAgICAgICAgICAgICAgICAgICAgICAgICAgICAgICAgICAgICAgICAgICAgICAgICAgICAgICAgICAgICAKICAgICAgICAgICAgICAgICAgICAgICAgICAgICAgICAgICAgICAgICAgICAgICAgICAgICAgICAgICAgICAgICAgICAgICAgICAgICAgICAgICAgICAgICAgICAgICAgICAgIAogICAgICAgICAgICAgICAgICAgICAgICAgICAgICAgICAgICAgICAgICAgICAgICAgICAgICAgICAgICAgICAgICAgICAgICAgICAgICAgICAgICAgICAgICAgICAgICAgICAgCiAgICAgICAgICAgICAgICAgICAgICAgICAgICAgICAgICAgICAgICAgICAgICAgICAgICAgICAgICAgICAgICAgICAgICAgICAgICAgICAgICAgICAgICAgICAgICAgICAgICAKICAgICAgICAgICAgICAgICAgICAgICAgICAgICAgICAgICAgICAgICAgICAgICAgICAgICAgICAgICAgICAgICAgICAgICAgICAgICAgICAgICAgICAgICAgICAgICAgICAgIAogICAgICAgICAgICAgICAgICAgICAgICAgICAgICAgICAgICAgICAgICAgICAgICAgICAgICAgICAgICAgICAgICAgICAgICAgICAgICAgICAgICAgICAgICAgICAgICAgICAgCiAgICAgICAgICAgICAgICAgICAgICAgICAgICAgICAgICAgICAgICAgICAgICAgICAgICAgICAgICAgICAgICAgICAgICAgICAgICAgICAgICAgICAgICAgICAgICAgICAgICAKICAgICAgICAgICAgICAgICAgICAgICAgICAgICAgICAgICAgICAgICAgICAgICAgICAgICAgICAgICAgICAgICAgICAgICAgICAgICAgICAgICAgICAgICAgICAgICAgICAgIAogICAgICAgICAgICAgICAgICAgICAgICAgICAgICAgICAgICAgICAgICAgICAgICAgICAgICAgICAgICAgICAgICAgICAgICAgICAgICAgICAgICAgICAgICAgICAgICAgICAgCiAgICAgICAgICAgICAgICAgICAgICAgICAgICAgICAgICAgICAgICAgICAgICAgICAgICAgICAgICAgICAgICAgICAgICAgICAgICAgICAgICAgICAgICAgICAgICAgICAgICAKICAgICAgICAgICAgICAgICAgICAgICAgICAgIDw/eHBhY2tldCBlbmQ9J3cnPz7/2wBDAAcFBQYFBAcGBQYIBwcIChELCgkJChUPEAwRGBUaGRgVGBcbHichGx0lHRcYIi4iJSgpKywrGiAvMy8qMicqKyr/2wBDAQcICAoJChQLCxQqHBgcKioqKioqKioqKioqKioqKioqKioqKioqKioqKioqKioqKioqKioqKioqKioqKioqKir/wAARCAJfAdsDASIAAhEBAxEB/8QAHwAAAQUBAQEBAQEAAAAAAAAAAAECAwQFBgcICQoL/8QAtRAAAgEDAwIEAwUFBAQAAAF9AQIDAAQRBRIhMUEGE1FhByJxFDKBkaEII0KxwRVS0fAkM2JyggkKFhcYGRolJicoKSo0NTY3ODk6Q0RFRkdISUpTVFVWV1hZWmNkZWZnaGlqc3R1dnd4eXqDhIWGh4iJipKTlJWWl5iZmqKjpKWmp6ipqrKztLW2t7i5usLDxMXGx8jJytLT1NXW19jZ2uHi4+Tl5ufo6erx8vP09fb3+Pn6/8QAHwEAAwEBAQEBAQEBAQAAAAAAAAECAwQFBgcICQoL/8QAtREAAgECBAQDBAcFBAQAAQJ3AAECAxEEBSExBhJBUQdhcRMiMoEIFEKRobHBCSMzUvAVYnLRChYkNOEl8RcYGRomJygpKjU2Nzg5OkNERUZHSElKU1RVVldYWVpjZGVmZ2hpanN0dXZ3eHl6goOEhYaHiImKkpOUlZaXmJmaoqOkpaanqKmqsrO0tba3uLm6wsPExcbHyMnK0tPU1dbX2Nna4uPk5ebn6Onq8vP09fb3+Pn6/9oADAMBAAIRAxEAPwD6RooooAKKKKACiiigAooooAKKKKACiiigAooooAKKKKACiiigAooooAKKKKACiiigAooooAKKKKACiiigAooooAKKKKACiiigAooooAKKKKACiiigAooooAKKKKACiiigAooooAKKKKACiiigAooooAKKKKACiiigAooooAKKKKACiiigAooooAKKKKACiiigAooooAKKKKACiiigAooooAKKKKACiqGoa1pmkxmTU7+3tE9ZpQv865LUfjR4H04kHWUuGHa3Uv8A0oA7yivHrv8AaQ8Lwlvs1jqE+OmEVQfzNZcv7Tmn5/ceHrtgP70yCgD3WivBf+Gnbb/oWrj/AMCF/wAKP+Gnbb/oWrj/AMCV/wAKAPeqK8F/4adtv+hauP8AwJX/AAo/4adtv+hauP8AwJX/AAoA96orwX/hp22/6Fq4/wDAlf8ACj/hp22/6Fq4/wDAlf8ACgD3qivBf+Gnbb/oWrj/AMCV/wAKB+05an/mW7j/AMCV/wAKAPeqK8Og/aZ0on/SdBvV/wByVG/wrXsv2i/CNyQLiG+tc95Iwf5E0AetUVxmm/FnwTquBb6/bI5/gmJQ/qK6y1vLe9hEtpPHNG3Ro3DA/iKAJ6KKKACiiigAooooAKKKKACiiigAooooAKKKKACiiigAooooAKKKKACiiigAooooAKKKKACiiigAooooAKKKKACiiigAooooAKKKKACiiq97fWunWr3N9PHbwxjLSSMFAH1NAFiqOqavp+jWbXWq3sFpAn3pJpAo/M14t44/aGgtmksvBsIuXGQb6VcID/sr1P1PFeGa34k1fxHeG51q+mu5CeN7fKv0HQUDsfQfif8AaL0SwZ4fDdrJqUq8ebIPLj/Dua8o8QfGvxprm6NNS/s63brHZrsP/fX3vyIrz+igCW5ubi8nM1zPJM56tI5Yn8TzUVFFAwooooAKKKKACiiigAooooAKKKKACiiigA6Vd0/WdT0icTaVqFzZyA5DQSsn8qpUUAepaB8f/Fuk7E1Mw6tCOD5w2P8AmvH5ivXPC3x58K680cF/K2k3LEDFyf3ZP+/0H44r5RoPTigR99QzxXMSywSLJGwyrI2QR9akzXxR4V+IfiPwfMp0i/cQA5NtKd8Z/wCAnp+GK+gvAnxz0TxO0VnrONK1FuAJG/dSH/ZbsfY/rQB6rRSK6uoZCGUjII70uaBBRRRQAUUUUAFFFFABRRRQAUUUUAFFFFABRRRQAUUUUAFFFFABRRRQAUUUUAFFFFABRRRQAUUUUAFFFFABSZoJxXlPxV+Mdr4RjfStFaO51hl+Y9Uts92/2vb86AOl8d/ErRfAtiWvZPPvXGYbSM/M3ufQe9fLnjT4i6744vWk1S4KWoP7qziJEaD6dz7msDUtSvNW1Ca+1K4e5uZm3PJIckmqtAwooooGFFFFABRRRQAUUUUAFFFFABRRRQAUUUUAFFFFABRRRQAUUUUAFFFFABR2opaAPSvh78adY8ISR2WqPJqWk5A8t2zJCP8AYJ7ex4+lfTfhzxPpPinSY9Q0a7SeJuoHDIfRh2NfDNb3hHxjq3gzWEv9HnKDpLC3KSr6MP60CPuAHNFcf4A+Iel+OtHE1m4jvIgPtFqx+aM+3qPQ114OaBC0UUUAFFFFABRRRQAUUUUAFFFFABRRRQAUUUUAFFFFABRRRQAUUUUAFFFFABRRRQAUUUUAFITilJxXnPxb+JUXgfQ/s9i6vq92pWBD/wAsx0Lke3b3oAxvjD8W08M276LoEofVpVxJKPu2y/8AxR7CvmOWWS4mead2klkYs7ucliepNLdXU97dyXN3K008rFpHc5LE9aZQMMUlLSUDCiiigAoopQCzAAEknAA70AJRXd+Gfg94u8S7ZItPNlbNyJ7v5Mj1A6n8q9R0P9mrTIVV/EOsXF03eO1AjX8zkn9KAPnOlGSeBX2Jpvwf8D6bt8vQLeZl/iuMyE/99Gt+Dwf4cthiDQ7CP/dt1/woFc+Hdjf3W/75o2N6N/3zX3V/wj2j/wDQLs/+/K/4Uf8ACPaP/wBAuz/78r/hQFz4V2N6N/3zRsb0b/vmvur/AIR7R/8AoF2f/flf8KP+Ee0f/oF2f/flf8KAufCuxvRv++aNjejf98191f8ACPaP/wBAuz/78r/hR/wj2j/9Auz/AO/K/wCFAXPhXY3o3/fNGxv7p/Kvur/hHtH/AOgXZ/8Aflf8KD4d0cjB0uzI/wCuK/4UBc+FKTNfcFz4H8L3Y/0nQNPk/wB63X/Cua1X4IeBtTU40r7G5/itJCmPw5H6UBc+RKK96179ml1DyeG9a3jqIb1eT7blH9K8p8S/D7xN4VZm1fTJkgHS4Qb4z+I/rQFzm6KMYooGFFFFABQaKKANLQdf1DwzrMOp6TO0NxEeoPDDureoNfXHw6+Ilh480ITW5EN/CAt1bE8o3qPVT2NfGtbPhbxRqHhHXoNV0qTbJE3zofuyJ3U+xoFY+5aKwPB/iyx8ZeHYNV01uHGJIyfmifuprfFAgooooAKKKKACiiigAooooAKKKKACiiigAooooAKKKKACiiigAooooAKKKKACiikY/KecUAY3i3xLZ+E/DV1q9+3yQLlUB5kbso9zXxh4m8RXvirxBc6tqUm6adsgA8IvZR7Cu/8Ajl49PiXxQdIsJc6bprFMqeJZf4j9B0H415UKBi4ooooGFFFFABRShWZgqAkk4AHrXu/wt+Bv2mOHWvGUJCn5obBuCR2Z/wD4n86AOA8C/CjX/G7rPBEbPTc4a8mHDf7g/i/l719F+DvhN4a8HKktvaC7vgObu4G5wfbsv4c+9drbW8VrbpDbxrFEgwiIMBR6AVLQSIAABgYpaKKACiiigAooooAKKKKACiiigAooooAKKKKACo5okmjKSIrqwwVYZzUlFAHk/jb4D6B4hWS60Nf7Jvjk4iH7pz7r2/CvnbxV4L1vwZqP2XXLRocn93OOY5B6huh+nWvuGs3XNB07xHpslhrFrHc28g5VxyD6g9QfegZ8Jg8UV6V8T/hDe+CJ2v8ATA93o7tw4GWg/wBlv6H+Vea0DCiiigAoxRRQB3fwo+IM3gbxMn2gs+l3bBLmPOdvo4HqP5V9f288VzbxzQOskcihkZTwwPevgWvo/wDZ+8e/2jpz+F9TmLXVou+0Zj9+Puv1B/T6UCPb6KAciigQUUUUAFFFFABRRRQAUUUUAFFFFABRRRQAUUUUAFFFFABRRRQAUUUUAFcF8XfGI8IeBriWB9l7d5t7bnncRyfwGa72vkz46eKz4i8fyWcMhNppYMCAHgv1dvz4/CgDzVmLsWY5JOSfWkoooKCiiigApcZ6UlewfA34bDxFqY8Q6xFnTrR8QRsOJ5B3/wB0fzoA6f4M/CFbWOHxJ4lgBuGAe0tZB/qx1DsPX0HavdVXaKFQJwOAOgFOoJCiiigAooooAKKKKACiiigAooooAKKKKACiiigAooooAKKKKACiiigCC6s4b22kt7qNZYZFKujDIYehr5a+L3wpk8G37aro8bSaNcP0HJtmPY/7Pofwr6sqlqml2usaZPYahEJradCjow6g0DPg/sPekrrviP4GuvAvimWykDPZzZktZj/GnofcdD/9euRoGFFFFABWl4d1q68OeIbPVrFiJraQOAD94dx+NZtH1oA+7dB1e217QrPVLFw8F1EsikH1HT+laNeD/s4eLDNZXvhm6kJaE/aLUHsp+8Pz5/GvdxQIWiiigQUUUUAFFFFABRRRQAUUUUAFFFFABRRRQAUUUUAFFFFABRRRQBheM9ej8M+DdT1aU4+zwMU93PCj8SRXxFPPJc3Mk0zFpJWLux7knk19G/tJ699n8OadosT4a7nMso/2E6f+PH9K+be9A0LRRRQMKKKKANjwn4dufFfiiy0eyGXuJMM3aNByzH6AGvtXQ9FtNA0a10zT4xHb2yBEA7+59z1ryD9nTwiLTR7rxLdx/vrs+TASOkankj6n+Ve4UCCiiigQUUUUAFFFFABRRRQAUUUUAFFFFABRRRQAUUUUAFFFFABRRRQAUUUUAFFFFAHE/FPwRH418G3FvEi/b7cGW1c/3gPu59D0r46lieGV4pVKSIxVlYYII4IPvX30eRXyr8evCI0Dxt/adtHttdUBk4HAlH3/AM8g/jQM8sooooGFFFFAHS/D7xEfC3jvTNTLFYVlEc//AFzY4b8hz+Ffa8biSNXGCGGQRXwGTgV9m/CnXT4g+G2lXTtulii+zyn/AGk+X+gNAjsaKKKBBRRRQAUUUUAFFFFABRRRQAUUUUAFFFFABRRRQAUUUUAFFFIzbVJNAHyl+0Bqp1D4mSWytmOygSPHoSMn+Yry7vXQePNROq/EDW7vdlXvZFX/AHVYgfoBWBQUFFFFABVnTrCbVNUtbC1XdNdTLDGPUsQB/Oq1ei/A7Rhq/wAT7N5BlLNHuDx0IGB+p/SgD6m8P6RDoPh+x0u1GIrSFYl98DGfx61p0UUEhRRRQAUUUUAFFFFABRRRQAUUUUAFFFFABRRRQAUUUUAFFFFABRRRQAUUUUAFFFFABXnnxu8Nf8JD8N7t4o991p5+1RYHOB98f985/KvQ6gvLdLuxmt5QGSVCjA9wRQB8EZ/Kir+u6c2keIL/AE9+trcPF+RwKoUFBRRRQAV9Gfs06sZdE1bSmP8Ax7yrMo9mGD+q185163+zpqP2b4hXFmTgXlmwx6lSD/LNAM+o6KQUtBIUUUUAFFFFABRRRQAUUUUAFFFFABRRRQAUUUUAFFFFABVe/mFtp9xO3AijZ/yGasVj+LpPJ8Fa1IOCthOR9fLagD4cnlNxdSTN1kcufxOaZSDnFLQUFFFFABXvH7M2nh77W9QK/wCrSOEH65P9K8Hr6T/ZogCeFNXnI5kvVUH6IP8AGgGe10UUUEhRRRQAUUUUAFFFFABRRRQAUUUUAFFFFABRRRQAUUUUAFFFFABRRRQAUUUUAFFFFABQaKKAPjz4z6f/AGf8VtWAGFnZZh/wJQf55rhK9X/aKg8r4lRP/wA9bGNv/HmH9K8ooKCiiigAruPg3efYvi3ob5xvkeIj13RsK4eul+Hcvk/EjQHHa+iH5sB/WgD7ZHSikFLQSFFFFABRRRQAUUUUAFFFFABRRRQAUUUUAFFFFABRRRQAVh+Nv+RC17/sHT/+i2rcrD8bf8iFr3/YOn/9FtQB8OjoPpRQOgooKCiiigAr6b/ZuH/FBX5/6fz/AOgJXzJX05+zd/yIV/8A9f7f+gJQDPYRS0UUEhRRRQAUUUUAFFFFABRRRQAUUUUAFFFFABRRRQAUUUUAFFFFABRRRQAUUUUAFFFFABRRQaAPmH9pH/koFh76cv8A6MevH69g/aT4+IGn/wDYOX/0Y9eP0FBRRRQAVveB/wDkftC/6/4f/QxWDW94G/5H7Qv+v+H/ANDFAH2/S0CigkKKKKACiiigAooooAKKKKACiiigAooooAKKKKACiiigArD8bf8AIha9/wBg6f8A9FtW5WH42/5ELXv+wdP/AOi2oA+HR0FFA6CigoKKKKACvpz9m7/kQr//AK/2/wDQFr5jr6c/Zu/5EK//AOv9v/QFoBnsVFFFBIUUUUAFFFFABRRRQAUUUUAFFFFABRRRQAUUUUAFFFFABRRRQAUUUUAFFFFABRRRQAUGiigD5h/aT/5KBp//AGDl/wDRj14+K9g/aS/5KBp//YOX/wBGPXj4oKCiiigAre8Df8j9oX/X/D/6GKwa3vA3/I/aF/1/w/8AoYoA+4B0ooHSigkKKKKACiiigAooooAKKKKACiiigAooooAKKKKACiiigArD8bf8iFr3/YOn/wDRbVuVh+Nv+RC17/sHT/8AotqAPh0dBRQOgooKCiiigAr6c/Zu/wCRCv8A/r/b/wBAWvmOvpz9m7/kQr//AK/2/wDQFoBnsVFFFBIUUUUAFFFFABRRRQAUUUUAFFFFABRRRQAUUUUAFFFFABRRRQAUUUUAFFFFABRRRQAUUUGgD5h/aS/5KBp//YOX/wBGPXj4r2D9pP8A5KBp/wD2Dl/9GPXj4oKCiiigAre8Df8AI/aF/wBf8P8A6GKwa3vA3/I/aF/1/wAP/oYoA+4B0ooHSigkKKKKACiiigAooooAKKKKACiiigAooooAKKKKACiiigArD8bf8iFr3/YOn/8ARbVuVh+Nv+RC17/sHT/+i2oA+HR0FFA6CigoKKKKACvpz9m7/kQr/wD6/wBv/QFr5jr6c/Zu/wCRCv8A/r/b/wBAWgGexUUUUEhRRRQAUUUUAFFFFABRRRQAUUUUAFFFFABRRRQAUUUUAFFFFABRRRQAUUUUAFFFFABRRRQB8w/tJf8AJQNP/wCwcv8A6MevHxXsH7SX/JQNP/7By/8Aox68fFBQUUUUAFb3gb/kftC/6/4f/QxWDW94G/5H7Qv+v+H/ANDFAH3AOlFA6UUEhRRRQAUUUUAFFFFABRRRQAUUUUAFFFFABRRRQAUUUE460AFYfjb/AJELXv8AsHT/APotq29w9a5H4geJNFsvBes291qlrHNLYzIkZlG5mKEAYoA+MB0FFFFBQUUUUAFfTn7N3/IhX/8A1/t/6AtfMde3/Bf4l+GvBvhS7sdevZIJ5bsyKqwO/wAu1RnIB9KAPo+ivNv+F9eAv+gpN/4CSf8AxNH/AAvrwF/0FJv/AAEk/wAKCT0mivNv+F9eAv8AoKTf+Akn+FH/AAvrwF/0FJv/AAEk/wAKAPSaK82/4X14C/6Ck3/gJJ/hR/wvrwF/0FJv/AST/CgD0mivNv8AhfXgL/oKTf8AgJJ/hR/wvrwF/wBBSb/wEk/woA9Jorzb/hfXgL/oKTf+Akn+FH/C+vAX/QUm/wDAST/CgD0mivNv+F9eAv8AoKTf+Akn+FH/AAvrwF/0FJv/AAEk/wAKAPSaK82/4X14C/6Ck3/gJJ/hR/wvrwF/0FJv/AST/CgD0mivNv8AhfXgL/oKTf8AgJJ/hR/wvrwF/wBBSb/wEk/woA9Jorzb/hfXgL/oKTf+Akn+FH/C+vAX/QUm/wDAST/CgD0mivNv+F9eAv8AoKTf+Akn+FH/AAvrwF/0FJv/AAEk/wAKAPSaK82/4X14C/6Ck3/gJJ/hR/wvrwF/0FJv/AST/CgD0mivNv8AhfXgL/oKTf8AgJJ/hR/wvrwF/wBBSb/wEk/woA9Jorzb/hfXgL/oKTf+Akn+FH/C+vAX/QUm/wDAST/CgD0mivNv+F9eAv8AoKTf+Akn+FH/AAvrwF/0FJv/AAEk/wAKBnlX7SX/ACUDT/8AsHL/AOjHrx8V6L8aPF2keMvF1pf6DO09vHZrEzNGyYYOxxg+xFedUDCiiigAre8Df8j9oX/X/D/6GKwa2fCN1DY+MtIuruQRQQ3kTyO3RVDgk/lQB9yjpRWRpfinQ9ZUf2Xq1pc56COYE/lWsCD3oJFooooAKKKKACiiigAooooAKKKKACiiigAoopCcdaAFJxXAePPi3oHgpXt3c32ogcWkBGV/3j/DXE/Fz40nTpp/D/hG4H2lcpcXqc+We6ofUdz2PvXzzLLJNK0kzs7sSWZjkk0Dsd14p+MvizxPLIovTp1ox4t7Q7Mj/abqa4OSSSWQvK5kdvvM5yTSYoxQMPrzRRRQAUUUUAFLSUUALRxSUUALxRxSUUALxRxSUUALxRxSUUALxRxSUUALxRxSUUALxRxSUUALxRxSUUALxRxSUUALxRxSUUALxRxSUUALxRxSUUALxRxSUUALxRxSUUALSUUUAFFFFABSikpaAHwzSW8gkgkeOQdGQ4P513/hT40eK/DUiJNdHVLMHmC6Ykgf7LdR+o9q89zRmgD7F8DfFXQPG6LDbS/Zb/GWtJyAx/3T/EK7fNfA0E8ttOk1vI0cqNuR0O0qfUEdK+jvhF8ZhrckOgeKJAt+flgujwJ8dj6N/OgR7ZRSA56UtAgooooAKKKKACiiigAooooAK8m+N3xIPhbRxouky41S+Q7mU8wRdN31PQfjXp+p38OmaZcXt04SG3iaV2PYKMmviPxZ4iuPFXii91e6YlriQlR/cX+EflQNGQzM7lmJJJySe9JRRQMKKKKACiiigAooooAKKKKACiiigAooooAKKKKACiiigAooooAKKKKACiiigAooooAKKKKACiiigAooooAKKKKACiiigAooooAKKKKACiiigAooooAKKKKACnJI8MiyRMUdCCrKcEEd6bRQB9X/AAW+Ix8Y+HzYanIP7WsAFc/89k7OP5H3+ten18Q+CPFE3hDxdZ6tCzeXG4WdAfvxk/MPy5r7Ys7qO9s4bmBw8UyB0cfxKRkGgRNRRRQIKKKKACiiigAoooNAHlX7QWutpXw5axibbJqcwhz/ALC/M38gPxr5V717x+03dsb/AESzz8qxySY9yQP6V4RQMKKKKBhRRRQAUUUUAFFFFABRRRQAUUUUAFFFFABRRRQAUUUUAFFFFABRRRQAUUUUAFFFFABRRRQAUUUUAFFFFABRRRQAUUUUAFFFFABRRRQAUUUUAFFFFABRRRQAUUUUAA4r62+BOuNrHwytY5W3S2LtbHP90fd/Qj8q+Sa+hP2ZLxms9csyTtjeOQD0JyP6UCZ71RQKKBBRRRQAUUUUAFBooNAHzZ+0t/yNWlf9ep/9CrxSva/2lf8AkatK/wCvU/8AoVeKUFBRRRQAUUUUAFFFFABRRRQAUUUUAFFFFABRRRQAUUUUAFFFFABRRRQAUUUUAFFFFABRRRQAUUUUAFFFFABRRRQAUUUUAFFFFABRRRQAUUUUAFFFFABRRRQAUUUUAFFFFABXvP7MZ/03xB/1zh/m1eDV7x+zH/x/+If+ucP82oA+hhRQKKCQooooAKKKKACg0UGgD5s/aV/5GrSv+vU/+hV4pXtf7Sv/ACNWlf8AXqf/AEKvFKCgooooAKKKKACiiigAooooAKKKKACiiigAooooAKKKKACiiigAooooAKKKfFFJPMsUKNJI5wqqMkn2oAZRXdaH8HvGeuKskWlPaxMMh7o7Bj6df0rsrP8AZn1mRVa91yzhz1WONnx/KgDxOive2/ZjmC/L4kTd6G1OP/QqytQ/Zt8QwKW0/VLG6x/CQ0ZP8xQK54zRXVa98M/Fvhze+o6NcGBes0Q8xPzFcr9RigYUUUUAFFFFABRRRQAUUUUAFFFFABRRRQAUUUUAFFFFABRRRQAUUUUABr3j9mP/AI/vEP8A1zh/m1eDmveP2Y/+P7xB/wBc4f5tQB9DCigUUEhRRRQAUUUUAFBooNAHzZ+0r/yNWlf9ep/9CrxSva/2lf8AkatK/wCvU/8AoVeKUFBRRRQAUUUUAFFFFABRRRQAUUUUAFFFFABRRRQAUUUUAFFFFAC0nY/pQa9q+DvwgGueX4h8Swn7Crbra1YY84/3m/2fQd6AOb+Hvwc1nxqI726DadpJPFw6/NKP9hf619G+FPhz4c8H24XSbBPtBGHupRvlb/gR6D2HFdPDEkESxxIsaKMKqjAA+lSUCuIBgUtFFAgooooAayhuoB+orz/xn8HfDXi1ZJ1tRp+oMP8Aj6tlA3H/AGl6H69fevQqKAPivxv8PNb8C3vl6nD5tq7YivEB2P8A4H2rla+79W0ey1vTZrDU7eO4tpl2ujrnNfKPxT+F9z4E1T7RaB59HuG/cy9TGf7je/oe9Azz6ijNFAwooooAKKKKACiiigAooooAKKKKACiiigAooooAKKKKAA17z+zH/wAf3iD/AK5wfzavBjXvP7Mf/H94g/65wfzagD6FooooJCiiigAooooAKDRQaAPmz9pX/katK/69T/6FXile1/tK/wDI1aV/16n/ANCrxSgoKKKKACiiigAooooAKKKKACiiigAooooAKKKKACiiigAoopaAO++EXgH/AITjxYv2xCdMsiJbn0f0T8f5A19d28EdtCkMCLHGihVRRgKB0ArivhL4STwl4Cs4JEAvLpftFy3fcw4H4DA/Cu5oEwooooEFFFFABRRRQAUUUUAFZXiHQLPxJolzpmpRq9vOhU5GSvoR7itWigD4b8XeGbvwj4pu9Hvh80LfI/aRDyrD8P61i19J/tE+E1vvD9v4ht4/39iwilI7xse/0P8AOvmygYUUUUDCiiigAooooAKKKKACiiigAooooAKKKKACiiigANe8/sx/8f3iD/rnB/Nq8GNe8/sx/wDH94g/65wfzagGfQtFFFBIUUUUAFFFFABQaKDQB82ftK/8jVpX/Xqf/Qq8Ur2v9pX/AJGrSv8Ar1P/AKFXilBQUUUUAFFFFABRRRQAUUUUAFFFFABRRRQAUUUUAFFFFABXQ+AtIGuePtH0913JLdL5gx/COT/Kuer0r4BWy3HxXtWcZ8m3lkH1xj+tAH1jGqpGqrwFGAKfQKKCQooooAKKKKACiiigAooooAKKKKAMrxPpEeu+F9S0yUArdWzxjPYlTg/gcGvhiSNopnjkGHRirD0I6199su5cGvh3xpaiz8da5AgwkeoThfpvNA0YlFFFAwooooAKKKKACiiigAooooAKKKKACiiigAooooADXvP7Mf8Ax/eIP+ucH82rwY17z+zH/wAf3iD/AK5wfzagGfQtFFFBIUUUUAFFFFABQaKDQB82ftK/8jVpX/Xqf/Qq8Ur2v9pX/katK/69T/6FXilBQUUUUAFFFFABRRRQAUUUUAFFFFABRRRQAUUUUAFFFFABXp/7P0wi+KkKtj95ayqPyB/pXmFdZ8MNUGj/ABL0a7dtsf2gRufZuD/OgD7SFFNByMg5B6U6gkKKKKACiiigAooooAKKKKACiiigAJxXxB47mWf4ga/Ihyp1CbH/AH2a+0dZ1CPSdEvdQnIEdtA8rZ/2Rn+lfCl1cNd3k1zJy8zmRifUnJ/nQNEVFFFAwooooAKKKKACiiigAooooAKKKKACiiigAooooADXvP7Mf/H94g/65wfzavBjXvP7Mf8Ax/eIP+ucH82oBn0LRRRQSFFFFABRRRQAUGig0AfNn7Sv/I1aV/16n/0KvFK9r/aV/wCRq0r/AK9T/wChV4pQUFFFFABRRRQAUUUUAFFFFABRRRQAUUUUAFFFFABRRRQAU5JHikWSJtrqcqw7Gm0tAH2t8PvE0XizwRp+pxsDI0YSdR/DIvDD8/5109fLXwJ8ep4b8Rvouoy7LDUnAVmPEc3RfoDwPyr6jVt3I6UCHUUUUCCiiigAooooAKKKKACgnAoqte39vYWUt1eSLFBEhd3c4AAGTQB5h+0B4pXR/Ax0qGQC61Nwm3/pmD839B+NfLOMDiur+JHjSbxx4yuNQOVtIv3VrH/djHf6k8//AKq5SgaCiiigYUUUUAFFFFABRRRQAUUUUAFFFFABRRRQAUUUUABr3n9mP/j+8Qf9c4P5tXgxr3n9mP8A4/vEH/XOD+bUAz6FooooJCiiigAooooAKDRQaAPmz9pX/katK/69T/6FXile1/tK/wDI1aV/16n/ANCrxSgoKKKKACiiigAooooAKKKKACiiigAooooAKKKKACiiigApaSloAOcjBPHTFfSHwa+Liapaw+HfEdyq30ahba4kP+vA/hJ/vD9a+cKFdkdWRirA5BBwQaAPvpWyO34U6vnL4c/HubT449L8Z7p4Vwsd8vLqP9sdx7jn1r37SdZ0/W7FLvSryK7gcZDxNkf/AFqCS/RRRQAUUUUAFFFYXifxhonhKyNzrd/HbjGUjzl3+i9TQBtyypDE0krBEUZZmOABXzL8Z/iz/wAJFPJ4e8PSkaXG2J51P/Hww7D/AGR+tZfxI+M+peMS+n6V5mn6RnBQN88/uxHQew/HNeY4oGGKKKKBhRRRQAUUUUAFFFFABRRRQAUUUUAFFFFABRRRQAUUUUABr3n9mP8A4/vEH/XOD+bV4Ma95/Zj/wCP7xB/1zg/m1AM+haKKKCQooooAKKKKACg0UGgD5s/aV/5GrSv+vU/+hV4pXtf7Sv/ACNWlf8AXqf/AEKvFKCgooooAKKKKACiiigAooooAKKKKACiiigAooooAKKKKACiiigAooooAK1vD3iLV/DupR3OiahPZyFgG8tuHGejDoR9ayalg/4+I/8AfH86APvSBi1vGx5JUE/lUtQ23/HrF/uD+VTUEhRRRQAjdDXw34turi88Wao93NJM4u5VDSOWIAcgDn2r7kb7pr4V8S/8jVqv/X5N/wChmgaMyiiigYUUUUAFFFFABRRRQAUUUUAFFFFABRRRQAUUUUAFFFFABRRRQAGvef2Y/wDj+8Qf9c4P5tXgxr3n9mP/AI/vEH/XOD+bUAz6FooooJCiiigAooooAKDRQaAPmz9pX/katK/69T/6FXile1/tK/8AI1aV/wBep/8AQq8UoKCiiigAooooAKKKKACiiigAooooAKKKKACiiigAooooAKKKKACiiigAqWD/AI+I/wDfH86iqWD/AI+I/wDfH86APvO2/wCPWL/cH8qmqK2/49Iv9wfyqWgkKKKKAEb7pr4V8S/8jVqv/X5N/wChmvupvumvhXxL/wAjVqv/AF+Tf+hmgaMyiiigYUUUUAFFFFABRRRQAUUUUAFFFFABRRRQAUUUUAFFFFABRRRQAGvef2Y/+P7xB/1zg/m1eDGvef2Y/wDj+8Qf9c4P5tQDPoWiiigkKKKKACiiigAoNFBoA+bP2lf+Rq0r/r1P/oVeKV7X+0r/AMjVpX/Xqf8A0KvFKCgooooAKKKKACiiigAooooAKKKKACiiigAooooAKKKKACiiigAooooAKlg/4+I/98fzqKpYP+PiP/fH86APvS1/49Iv9wfyqWorX/j0i/3B/KpaCQooooARvumvhXxL/wAjVqv/AF+zf+hmvupvumvhXxL/AMjVqv8A1+zf+hmgaMyiiigYUUUUAFFFFABRRRQAUUUUAFFFFABRRRQAUUUUAFFFFABRRRQAGvef2Y/+P7xB/wBc4P5tXgxr3n9mP/j+8Qf9c4P5tQDPoWiiigkKKKKACiiigAoNFBoA+bP2lf8AkatK/wCvU/8AoVeKV7X+0r/yNWlf9ep/9CrxSgoKKKKACiiigAooooAKKKKACiiigAooooAKKKKACiiigAooooAKKKKACpYP+PiP/fH86iqSA4njJ/vD+dAH3ra/8ekX+4P5VLUNowazhIOQUBH5VNQSFFFFACN9018K+Jf+Rq1X/r9m/wDQzX3UxwpzXwp4jYP4n1RlOQbyUg/8DNA0ZtFFFAwooooAKKKKACiiigAooooAKKKKACiiigAooooAKKKKACiiigANe8/sx/8AH94g/wCucH82rwY17z+zH/x/eIP+ucH82oBn0LRRRQSFFFFABRRRQAUGig0AfNn7Sv8AyNWlf9ep/wDQq8Ur2v8AaV/5GrSv+vU/+hV4pQUFFFFABRRRQAUUUUAFFFFABRRRQAUUUUAFFFFABRRRQAUUUUAFFFFABS5xSUvagD7B+EXi+HxV4DssyA3tkgt7hM85UYDfiOa7yvh7wl4v1bwZrS6jo821jhZYm5SVf7rCvofw3+0H4X1OBF1sy6Xc/wAYZC8efZhz+YoEetUE4rix8XfApGf+Ejsx9WI/pWB4h+PvhDTLd/7Lml1S4x8qwxkIT/vGgR1XxC8WW/hDwbe6jM4WbYY7dM8vIRwB/Ovi2V2mmeRzuZzuJPcmuk8b+O9W8dasLvVJAkMYIgtkPyRA/wAye5NcxQMKKKKBhRRRQAUUUUAFFFFABRRRQAUUUUAFFFFABRRRQAUUUUAFFFFAAa95/Zj/AOP7xB/1zg/m1eDGvef2Y/8Aj+8Qf9c4P5tQDPoWiiigkKKKKACiiigAoNFBoA+bP2lf+Rq0r/r1P/oVeKV7X+0r/wAjVpX/AF6n/wBCrxSgoKKKKACiiigAooooAKKKKACiiigAooooAKKKKACiiigAooooAKKKKAClpKKAFpKKKAFpMfjRRQAUUUUAFFFFABRRRQAUUUUAFFFFABRRRQAUUUUAFFFFABRRRQAUUUUAFFFFAAa95/Zj/wCP7xB/1zg/m1eDGvef2Y/+P7xB/wBc4P5tQDPoWiiigkKKKKACiiigAoNFBoA+bP2lf+Rq0r/r1P8A6FXile1/tLf8jVpX/Xqf/Qq8UoKCiiigAooooAKKKKACiiigAooooAKKKKACiiigAooooAKKKKACiiigAooooAKKKKACiiigAooooAKKKKACiiigAooooAKKKKACiiigAooooAKKKKACiiigAooooAKKKKAA17z+zH/x/eIP+ucH82rwY17z+zH/AMf3iD/rnD/NqAZ9C0UUUEhRRRQAUUUUAFBoooA+cP2mISPEWjy9mt2H5NXiFfR/7S2lNN4b0rVETP2e4aJ29A44/Vf1r5wFBSCiiigAooooAKKKKACiiigAooooAKKKKACiiigAooooAKKKKACiiigAooooAKKKKACiiigAooooAKKKKACiiigAooooAKKKKACiiigAooooAKKKKACiiigAooooAKKKKAA9K99/Zjjbz9fk/hKwqD+LGvAq+nf2cdJa08D3eoSLg3l0Qp9VUY/nmgTPYaKKKBBRRRQAUUUUAFFFFAHOeP8Aw6nirwPqeksPnmhJib+66/Mp/MCvieaGS2neGdSkkbFWU9iDgivvogEc18wfHnwA+h+IG8RafFnT9Qf99tH+ql7/AIHr9c0DR5DRRRQMKKKKACiiigAooooAKKKKACiiigAooooAKKKKACiiigAooooAKKKKACiiigAooooAKKKKACiiigAooooAKKKKACiiigAooooAKKKKACiiigAooooAKKKKACiiigCeztJr69htLWMyTTuI40HVmY4A/M19ueD9BTwx4S07SExm2gVXI/ifGWP55rwf9n/wE+oasfFGoQ4tbQlbTcP9ZJ/e+g/nX0kDQJi0UUUCCiiigAooooAKKKKACs7W9Fstf0e403U4RNbXCbHUj9R71o0UAfGPxE+HmoeA9cMMytNp8xJtroDhh/dPow9K4+vuzXNC07xFpcun6vapc20owyuOnuD2PvXzZ8QfgXq/hySS+8Oq2pabksUHMsQ9CP4h7j8aBo8mopzo8TlJVZHU4KsMEfhTaBhRRRQAUUUUAFFFFABRRRQAUUUUAFFFFABRRRQAUUUUAFFFFABRRRQAUUUUAFFFFABRRRQAUUUUAFFFFABRRRQAUUUUAFFFFABRRRQAUUUUAFFFPiiknlWOGNpHY4CqMk/hQAyu5+Gnw2vvHesDKtDpcDD7RckYz/sL6t/Kun+H3wH1LXJI7/xUH06w4ZYOk03/AMSP1r6P0nR7LRNNhsNMt0t7aEYSNBx9frQIdpWmWuj6bb2GnwrBbW6BEjUYAAq7iiigQUUUUAFFFFABRRRQAUUUUAFFFFABSFcjBpaKAOR8S/DHwt4rDNqemRrcN/y8wfu5PzHX8c15ZrP7MzbmbQNdXb2jvI+R/wACX/CvoGigD5Vuf2evGcLEQ/Yrgdik2M/mBVf/AIUF45/59Lb/AMCBX1lRQM+Tf+FBeOf+fS2/8CBR/wAKC8c/8+lt/wCBAr6yooA+Tf8AhQXjn/n0tv8AwIFH/CgvHP8Az6W3/gQK+sqKAPk3/hQXjn/n0tv/AAIFH/CgvHP/AD6W3/gQK+sqKAPk3/hQXjn/AJ9Lb/wIFH/CgvHP/Ppbf+BAr6yooA+Tf+FBeOf+fS2/8CBR/wAKC8c/8+lt/wCBAr6yooA+Tf8AhQXjn/n0tv8AwIFH/CgvHP8Az6W3/gQK+sqKAPk3/hQXjn/n0tv/AAIFH/CgvHP/AD6W3/gQK+sqKAPk3/hQXjn/AJ9Lb/wIFH/CgvHP/Ppbf+BAr6yooA+Tf+FBeOf+fS2/8CBR/wAKC8c/8+lt/wCBAr6yooA+Tf8AhQXjn/n0tv8AwIFH/CgvHP8Az6W3/gQK+sqKAPk3/hQXjn/n0tv/AAIFH/CgvHP/AD6W3/gQK+sqKAPk3/hQXjn/AJ9Lb/wIFH/CgvHP/Ppbf+BAr6yooA+Tf+FBeOf+fS2/8CBR/wAKC8c/8+lt/wCBAr6yooA+Tf8AhQXjn/n0tv8AwIFH/CgvHP8Az6W3/gQK+sqKAPk3/hQXjn/n0tv/AAIFH/CgvHP/AD6W3/gQK+sqKAPk3/hQXjn/AJ9Lb/wIFH/CgvHP/Ppbf+BAr6yooA+Tf+FBeOf+fS2/8CBR/wAKC8c/8+lt/wCBAr6yooA+Tf8AhQXjn/n0tv8AwIFH/CgvHP8Az6W3/gQK+sqKAPk7/hQXjj/n0tv+/wCKntv2evGU8gWY2NuD1LTE4/IV9VYpCKAPA9G/ZnUSK/iDXSyjrHZR4z/wJv8ACvVPDXw48M+FEU6RpcSTj/l4k+eQ/wDAj/SuopaBDQuKdRRQAUUUUAFFFFABRRRQAUUUUAFFFFABRRRQAUUUUAFFFFABRRRQAUUUUAFFFFABRRRQAUUUUAFFFFABRRRQAUUUUAFFFFABRRRQAUUUUAFFFFABRRRQAUUUUAFFFFABRRRQAUUUUAFFFFABRRRQAUUUUAFFFFABRRRQAUUUUAFFFFABRRRQB//Z" vertex="1" parent="1">
                    <mxGeometry x="2353.25" y="1672.5" width="21.13" height="27" as="geometry"/>
                </mxCell>
                <mxCell id="91" value="Core Container" style="shape=cube;whiteSpace=wrap;html=1;boundedLbl=1;backgroundOutline=1;darkOpacity=0.05;darkOpacity2=0.1;size=10;fontSize=14;fontStyle=1;align=left;verticalAlign=top;fillColor=#FFFFFF;spacingLeft=10;" vertex="1" parent="1">
                    <mxGeometry x="2042" y="1775.5" width="560" height="264.5" as="geometry"/>
                </mxCell>
                <mxCell id="127" style="edgeStyle=none;jumpStyle=arc;html=1;entryX=0.5;entryY=1;entryDx=0;entryDy=0;dashed=1;startArrow=none;startFill=0;" edge="1" parent="1" source="93" target="87">
                    <mxGeometry relative="1" as="geometry">
                        <Array as="points">
                            <mxPoint x="2332" y="1740"/>
                        </Array>
                    </mxGeometry>
                </mxCell>
                <mxCell id="131" style="edgeStyle=none;jumpStyle=arc;html=1;entryX=0.5;entryY=0;entryDx=0;entryDy=0;dashed=1;startArrow=classic;startFill=1;endArrow=classic;endFill=1;exitX=0.75;exitY=1;exitDx=0;exitDy=0;" edge="1" parent="1" source="93" target="107">
                    <mxGeometry relative="1" as="geometry">
                        <Array as="points">
                            <mxPoint x="2417" y="1940"/>
                        </Array>
                    </mxGeometry>
                </mxCell>
                <mxCell id="93" value="&lt;b&gt;Apache Camel&lt;/b&gt;" style="rounded=0;whiteSpace=wrap;html=1;fillColor=#99CCFF;" vertex="1" parent="1">
                    <mxGeometry x="2289.5" y="1837.75" width="170" height="60" as="geometry"/>
                </mxCell>
                <mxCell id="124" value="" style="edgeStyle=none;jumpStyle=arc;html=1;dashed=1;startArrow=none;startFill=0;" edge="1" parent="1" source="95" target="119">
                    <mxGeometry relative="1" as="geometry"/>
                </mxCell>
                <mxCell id="95" value="&lt;font color=&quot;#000000&quot; style=&quot;font-size: 14px&quot;&gt;&lt;b style=&quot;font-size: 14px&quot;&gt;ids-resource-manager&lt;/b&gt;&lt;/font&gt;" style="rounded=0;whiteSpace=wrap;html=1;fontColor=#FFFFFF;fillColor=#FFFFFF;fontSize=14;" vertex="1" parent="1">
                    <mxGeometry x="2089.5" y="1837.75" width="180" height="60" as="geometry"/>
                </mxCell>
                <mxCell id="122" style="edgeStyle=none;html=1;exitX=0.5;exitY=1;exitDx=0;exitDy=0;entryX=0.5;entryY=0;entryDx=0;entryDy=0;jumpStyle=arc;dashed=1;" edge="1" parent="1" source="98" target="105">
                    <mxGeometry relative="1" as="geometry">
                        <Array as="points">
                            <mxPoint x="2200" y="1730"/>
                            <mxPoint x="2261" y="1730"/>
                        </Array>
                    </mxGeometry>
                </mxCell>
                <mxCell id="98" value="&lt;font color=&quot;#000000&quot; style=&quot;font-size: 14px&quot;&gt;&lt;span style=&quot;font-size: 14px&quot;&gt;&lt;b&gt;Resource Publisher&lt;/b&gt;&lt;br&gt;&lt;/span&gt;&lt;/font&gt;" style="rounded=0;whiteSpace=wrap;html=1;fontColor=#FFFFFF;fillColor=#FFFFFF;fontSize=14;" vertex="1" parent="1">
                    <mxGeometry x="2082" y="1557" width="235" height="70" as="geometry"/>
                </mxCell>
                <mxCell id="126" style="edgeStyle=none;jumpStyle=arc;html=1;exitX=0.5;exitY=0;exitDx=0;exitDy=0;entryX=0.75;entryY=1;entryDx=0;entryDy=0;dashed=1;startArrow=none;startFill=0;" edge="1" parent="1" source="99" target="102">
                    <mxGeometry relative="1" as="geometry">
                        <Array as="points">
                            <mxPoint x="2460" y="1520"/>
                            <mxPoint x="2402" y="1520"/>
                        </Array>
                    </mxGeometry>
                </mxCell>
                <mxCell id="99" value="&lt;font color=&quot;#000000&quot; style=&quot;font-size: 14px&quot;&gt;&lt;span style=&quot;font-size: 14px&quot;&gt;&lt;b&gt;IDS Message Dispatcher&lt;/b&gt;&lt;br&gt;&lt;/span&gt;&lt;/font&gt;" style="rounded=0;whiteSpace=wrap;html=1;fontColor=#FFFFFF;fillColor=#FFFFFF;fontSize=14;" vertex="1" parent="1">
                    <mxGeometry x="2342" y="1557" width="235" height="70" as="geometry"/>
                </mxCell>
                <mxCell id="100" value="&lt;font color=&quot;#000000&quot; style=&quot;font-size: 14px&quot;&gt;&lt;span style=&quot;font-size: 14px&quot;&gt;&lt;b&gt;IDS MessageHandler&lt;/b&gt;&lt;br&gt;&lt;/span&gt;&lt;/font&gt;" style="rounded=0;whiteSpace=wrap;html=1;fontColor=#FFFFFF;fillColor=#FFFFFF;fontSize=14;" vertex="1" parent="1">
                    <mxGeometry x="2204.5" y="1400" width="235" height="70" as="geometry"/>
                </mxCell>
                <mxCell id="101" value="&lt;font color=&quot;#000000&quot; style=&quot;font-size: 14px&quot;&gt;&lt;span style=&quot;font-size: 14px&quot;&gt;&lt;b&gt;IDS MessageHandler&lt;/b&gt;&lt;br&gt;&lt;/span&gt;&lt;/font&gt;" style="rounded=0;whiteSpace=wrap;html=1;fontColor=#FFFFFF;fillColor=#FFFFFF;fontSize=14;" vertex="1" parent="1">
                    <mxGeometry x="2214.5" y="1410" width="235" height="70" as="geometry"/>
                </mxCell>
                <mxCell id="102" value="&lt;font color=&quot;#000000&quot; style=&quot;font-size: 14px&quot;&gt;&lt;span style=&quot;font-size: 14px&quot;&gt;&lt;b&gt;IDS MessageHandler&lt;/b&gt;&lt;br&gt;&lt;/span&gt;&lt;/font&gt;" style="rounded=0;whiteSpace=wrap;html=1;fontColor=#FFFFFF;fillColor=#FFFFFF;fontSize=14;" vertex="1" parent="1">
                    <mxGeometry x="2224.5" y="1420" width="235" height="70" as="geometry"/>
                </mxCell>
                <mxCell id="103" value="" style="group" vertex="1" connectable="0" parent="1">
                    <mxGeometry x="2362" y="1765.5" width="178.75" height="35" as="geometry"/>
                </mxCell>
                <mxCell id="121" value="" style="group" vertex="1" connectable="0" parent="103">
                    <mxGeometry width="178.75" height="35" as="geometry"/>
                </mxCell>
                <mxCell id="96" value="&lt;b&gt;IDS Messages API&lt;/b&gt;" style="rounded=1;whiteSpace=wrap;html=1;strokeColor=#000000;fillColor=#FFFFFF;rotation=0;" vertex="1" parent="121">
                    <mxGeometry width="178.75" height="35" as="geometry"/>
                </mxCell>
                <mxCell id="97" value="" style="shape=image;verticalLabelPosition=bottom;verticalAlign=top;imageAspect=0;aspect=fixed;image=data:image/jpeg,/9j/4AAQSkZJRgABAQEAYABgAAD/4REMRXhpZgAATU0AKgAAAAgABAE7AAIAAAAWAAAISodpAAQAAAABAAAIYJydAAEAAAAsAAAQ2OocAAcAAAgMAAAAPgAAAAAc6gAAAAgAAAAAAAAAAAAAAAAAAAAAAAAAAAAAAAAAAAAAAAAAAAAAAAAAAAAAAAAAAAAAAAAAAAAAAAAAAAAAAAAAAAAAAAAAAAAAAAAAAAAAAAAAAAAAAAAAAAAAAAAAAAAAAAAAAAAAAAAAAAAAAAAAAAAAAAAAAAAAAAAAAAAAAAAAAAAAAAAAAAAAAAAAAAAAAAAAAAAAAAAAAAAAAAAAAAAAAAAAAAAAAAAAAAAAAAAAAAAAAAAAAAAAAAAAAAAAAAAAAAAAAAAAAAAAAAAAAAAAAAAAAAAAAAAAAAAAAAAAAAAAAAAAAAAAAAAAAAAAAAAAAAAAAAAAAAAAAAAAAAAAAAAAAAAAAAAAAAAAAAAAAAAAAAAAAAAAAAAAAAAAAAAAAAAAAAAAAAAAAAAAAAAAAAAAAAAAAAAAAAAAAAAAAAAAAAAAAAAAAAAAAAAAAAAAAAAAAAAAAAAAAAAAAAAAAAAAAAAAAAAAAAAAAAAAAAAAAAAAAAAAAAAAAAAAAAAAAAAAAAAAAAAAAAAAAAAAAAAAAAAAAAAAAAAAAAAAAAAAAAAAAAAAAAAAAAAAAAAAAAAAAAAAAAAAAAAAAAAAAAAAAAAAAAAAAAAAAAAAAAAAAAAAAAAAAAAAAAAAAAAAAAAAAAAAAAAAAAAAAAAAAAAAAAAAAAAAAAAAAAAAAAAAAAAAAAAAAAAAAAAAAAAAAAAAAAAAAAAAAAAAAAAAAAAAAAAAAAAAAAAAAAAAAAAAAAAAAAAAAAAAAAAAAAAAAAAAAAAAAAAAAAAAAAAAAAAAAAAAAAAAAAAAAAAAAAAAAAAAAAAAAAAAAAAAAAAAAAAAAAAAAAAAAAAAAAAAAAAAAAAAAAAAAAAAAAAAAAAAAAAAAAAAAAAAAAAAAAAAAAAAAAAAAAAAAAAAAAAAAAAAAAAAAAAAAAAAAAAAAAAAAAAAAAAAAAAAAAAAAAAAAAAAAAAAAAAAAAAAAAAAAAAAAAAAAAAAAAAAAAAAAAAAAAAAAAAAAAAAAAAAAAAAAAAAAAAAAAAAAAAAAAAAAAAAAAAAAAAAAAAAAAAAAAAAAAAAAAAAAAAAAAAAAAAAAAAAAAAAAAAAAAAAAAAAAAAAAAAAAAAAAAAAAAAAAAAAAAAAAAAAAAAAAAAAAAAAAAAAAAAAAAAAAAAAAAAAAAAAAAAAAAAAAAAAAAAAAAAAAAAAAAAAAAAAAAAAAAAAAAAAAAAAAAAAAAAAAAAAAAAAAAAAAAAAAAAAAAAAAAAAAAAAAAAAAAAAAAAAAAAAAAAAAAAAAAAAAAAAAAAAAAAAAAAAAAAAAAAAAAAAAAAAAAAAAAAAAAAAAAAAAAAAAAAAAAAAAAAAAAAAAAAAAAAAAAAAAAAAAAAAAAAAAAAAAAAAAAAAAAAAAAAAAAAAAAAAAAAAAAAAAAAAAAAAAAAAAAAAAAAAAAAAAAAAAAAAAAAAAAAAAAAAAAAAAAAAAAAAAAAAAAAAAAAAAAAAAAAAAAAAAAAAAAAAAAAAAAAAAAAAAAAAAAAAAAAAAAAAAAAAAAAAAAAAAAAAAAAAAAAAAAAAAAAAAAAAAAAAAAAAAAAAAAAAAAAAAAAAAAAAAAAAAAAAAAAAAAAAAAAAAAAAAAAAAAAAAAAAAAAAAAAAAAAAAAAAAAAAAAAAAAAAAAAAAAAAAAAAAAAAAAAAAAAAAAAAAAAAAAAAAAAAAAAAAAAAAAAAAAAAAAAAAAAAAAAAAAAAAAAAAAAAAAAAAAAAAAAAAAAAAAAAAAAAAAAAAAAAAAAAAAAAAAAAAAAAAAAAAAAAAAAAAAAAAAAAAAAAAAAAAAAAAAAAAAAAAAAAAAAAAAAAAAAAAAAAAAAAAAAAAAAAAAAAAAAAAAAAAAAAAAAAAAAAAAAAAAAAAAAAAAAAAAAAAAAAAAAAAAAAAAAAAAAAAAAAAAAAAAAAAAAAAAAAAAAAAAAAAAAAAAAAAAAAAAAAAAAAAAAAAAAAAAAAAAAAAAAAAAAAAAAAAAAAAAAAAAAAAAAAAAAAAAAAAAAAAAAAAAAAAAAAAAAAAAAAAAAAAAAAAAAAAAAAAAAAAAAAAAAAAAAAAAAAAAAAAAAAAAAAAAAAAAAAAAAAAAAAAAAAAAAAAAAAAAAAAAAAAAAAAAAAAAAAAAAAAAAAAAAAAAAAAAAAAAAAAAAAAAAAAAAAAAAAAAAAAAAAAAAAAAAAAAAAAAAAAAAAAAAAAAAAAAAAAAAAAAAAAAAAAAAAAAAAAAAAAAAAAAAAAAAAAAAAAAAAAAAAAAAAAAAAAAAAAAAAAAAAAAAAAAAAAAAAAAAAAAAAAAAAAAAAAAAAAAAAAAAAAAAAAAAAAAAAAAAAAAAAAAAAAAAAAAAAAAAAAAAAAAAAAAAAAAAAAAAAAAAAAAAAAAAAAAAAAAAAAAAAAAAAAAAAAAAAAAAAAAAAAAAAAAAAAAAAAAAAAAAAAAAAAAAAAAAAAAAAAAAAAAAAAAAAAAAAAAAAAAAAAAAAAAAAAAAAAAAAAAAAAAAAAAAAAAAAAAAAAAAAAAAAAAAAAAAAAAAAAAAAAAAAAAAAAAAAAAAAAAAAAAAAAAAAAAAAAAAAAAAAAAAAAAAAAAAAAAAAAAAAAAAAAAAAAAAAAAAAAAAAAAAAAAAAAAAAAAAAAAAAAAAAAAAAAAAAAAAAAAAAAAAAAAAAAAAAAAAAAAAAAAAAAAAAAAAAAAAAAAAAAAAAAAAAAAAAAAAAAAAAAEFkcmlhYW5zZSwgSi4gKEpvb3N0KQAABZADAAIAAAAUAAAQrpAEAAIAAAAUAAAQwpKRAAIAAAADODUAAJKSAAIAAAADODUAAOocAAcAAAgMAAAIogAAAAAc6gAAAAgAAAAAAAAAAAAAAAAAAAAAAAAAAAAAAAAAAAAAAAAAAAAAAAAAAAAAAAAAAAAAAAAAAAAAAAAAAAAAAAAAAAAAAAAAAAAAAAAAAAAAAAAAAAAAAAAAAAAAAAAAAAAAAAAAAAAAAAAAAAAAAAAAAAAAAAAAAAAAAAAAAAAAAAAAAAAAAAAAAAAAAAAAAAAAAAAAAAAAAAAAAAAAAAAAAAAAAAAAAAAAAAAAAAAAAAAAAAAAAAAAAAAAAAAAAAAAAAAAAAAAAAAAAAAAAAAAAAAAAAAAAAAAAAAAAAAAAAAAAAAAAAAAAAAAAAAAAAAAAAAAAAAAAAAAAAAAAAAAAAAAAAAAAAAAAAAAAAAAAAAAAAAAAAAAAAAAAAAAAAAAAAAAAAAAAAAAAAAAAAAAAAAAAAAAAAAAAAAAAAAAAAAAAAAAAAAAAAAAAAAAAAAAAAAAAAAAAAAAAAAAAAAAAAAAAAAAAAAAAAAAAAAAAAAAAAAAAAAAAAAAAAAAAAAAAAAAAAAAAAAAAAAAAAAAAAAAAAAAAAAAAAAAAAAAAAAAAAAAAAAAAAAAAAAAAAAAAAAAAAAAAAAAAAAAAAAAAAAAAAAAAAAAAAAAAAAAAAAAAAAAAAAAAAAAAAAAAAAAAAAAAAAAAAAAAAAAAAAAAAAAAAAAAAAAAAAAAAAAAAAAAAAAAAAAAAAAAAAAAAAAAAAAAAAAAAAAAAAAAAAAAAAAAAAAAAAAAAAAAAAAAAAAAAAAAAAAAAAAAAAAAAAAAAAAAAAAAAAAAAAAAAAAAAAAAAAAAAAAAAAAAAAAAAAAAAAAAAAAAAAAAAAAAAAAAAAAAAAAAAAAAAAAAAAAAAAAAAAAAAAAAAAAAAAAAAAAAAAAAAAAAAAAAAAAAAAAAAAAAAAAAAAAAAAAAAAAAAAAAAAAAAAAAAAAAAAAAAAAAAAAAAAAAAAAAAAAAAAAAAAAAAAAAAAAAAAAAAAAAAAAAAAAAAAAAAAAAAAAAAAAAAAAAAAAAAAAAAAAAAAAAAAAAAAAAAAAAAAAAAAAAAAAAAAAAAAAAAAAAAAAAAAAAAAAAAAAAAAAAAAAAAAAAAAAAAAAAAAAAAAAAAAAAAAAAAAAAAAAAAAAAAAAAAAAAAAAAAAAAAAAAAAAAAAAAAAAAAAAAAAAAAAAAAAAAAAAAAAAAAAAAAAAAAAAAAAAAAAAAAAAAAAAAAAAAAAAAAAAAAAAAAAAAAAAAAAAAAAAAAAAAAAAAAAAAAAAAAAAAAAAAAAAAAAAAAAAAAAAAAAAAAAAAAAAAAAAAAAAAAAAAAAAAAAAAAAAAAAAAAAAAAAAAAAAAAAAAAAAAAAAAAAAAAAAAAAAAAAAAAAAAAAAAAAAAAAAAAAAAAAAAAAAAAAAAAAAAAAAAAAAAAAAAAAAAAAAAAAAAAAAAAAAAAAAAAAAAAAAAAAAAAAAAAAAAAAAAAAAAAAAAAAAAAAAAAAAAAAAAAAAAAAAAAAAAAAAAAAAAAAAAAAAAAAAAAAAAAAAAAAAAAAAAAAAAAAAAAAAAAAAAAAAAAAAAAAAAAAAAAAAAAAAAAAAAAAAAAAAAAAAAAAAAAAAAAAAAAAAAAAAAAAAAAAAAAAAAAAAAAAAAAAAAAAAAAAAAAAAAAAAAAAAAAAAAAAAAAAAAAAAAAAAAAAAAAAAAAAAAAAAAAAAAAAAAAAAAAAAAAAAAAAAAAAAAAAAAAAAAAAAAAAAAAAAAAAAAAAAAAAAAAAAAAAAAAAAAAAAAAAAAAAAAAAAAAAAAAAAAAAAAAAAAAAAAAAAAAAAAAAAAAAAAAAAAAAAAAAAAAAAAAAAAAAAAAAAAAAAAAAAAAAAAAAAAAAAAAAAAAAAAAAAAAAAAAAAAAAAAAAAAAAAAAAAAAAAAAAAAAAAAAAAAAAAAAAAAAAAAAAAAAAAAAAAAAAAAAAAAAAAAAAAAAAAAAAAAAAAAAAAAAAAAAAAAAAAAAAAAAAAAAAAAAAAAAAAAAAAAAAAAAAAAAAAAAAAAAAAAAAAAAAAAAAAAAAAAAAAAAAAAAAAAAAAAAAAAAAAAAAAAAAAAAAAAAAAAAAAAAAAAAAAAAAAAAAAAAAAAAAAAAAAAAAAAAAAAAAAAAAAAAAAAAAAAAAAAAAAAAAAAAAAAAAAAAAAAAAAAAAAAAAAAAAAAAAAAAAAAAAAAAAAAAAAAAAAAAAAAAAAAAAAAAAAAAAAAAAAAAAAAAAAAAAAAAAAAAAAAAAAAAAAAAAAAAAAAAAAAAAAAAAAAAAAAAAAAAAAAAAAAAAAAAAAAAAAAAAAAAAAAAAAAAAAAAAAAAAAAAAAAAAAAAAAAAAAAAAAAAAAAAAAAAAAAAAAAAAAAAAAAAAAAAAAAAAAAAAAAAAAAAAAAAAAAAAAAAAAAAAAAAAAAAAAAAAAAAAAAAAAAAAAAAAAAAAAAAAAAAAAAAAAAAAAAAAAAAAAAAAAAAAAAAAAAAAAAAAAAAAAAAAAAAAAAAAAAAAAAAAAAAAAAAAAAAAAAAAAAAAAAAAAAAAAAAAAAAAAAAAAAAAAAAAAAAAAAAAAAAAAAAAAAAAAAAAAAAAAAAAAAAAAAAAAAAAAAAAAAAAAAAAAAAAAAAAAAAAAAAAAAAAAAAAAAAAAAAAAAAAAAAAAAAAAAAAAAAAAAAAAAAAAAAAAAAAAAAAAAAAAAAAAAAAAAAAAAAAAAAAAAAAAAAAAAAAAAAAAAAAAAAAAAAAAAAAAAAAAADIwMjE6MTA6MjcgMTg6NTY6MzEAMjAyMToxMDoyNyAxODo1NjozMQAAAEEAZAByAGkAYQBhAG4AcwBlACwAIABKAC4AIAAoAEoAbwBvAHMAdAApAAAA/+ELKGh0dHA6Ly9ucy5hZG9iZS5jb20veGFwLzEuMC8APD94cGFja2V0IGJlZ2luPSfvu78nIGlkPSdXNU0wTXBDZWhpSHpyZVN6TlRjemtjOWQnPz4NCjx4OnhtcG1ldGEgeG1sbnM6eD0iYWRvYmU6bnM6bWV0YS8iPjxyZGY6UkRGIHhtbG5zOnJkZj0iaHR0cDovL3d3dy53My5vcmcvMTk5OS8wMi8yMi1yZGYtc3ludGF4LW5zIyI+PHJkZjpEZXNjcmlwdGlvbiByZGY6YWJvdXQ9InV1aWQ6ZmFmNWJkZDUtYmEzZC0xMWRhLWFkMzEtZDMzZDc1MTgyZjFiIiB4bWxuczpkYz0iaHR0cDovL3B1cmwub3JnL2RjL2VsZW1lbnRzLzEuMS8iLz48cmRmOkRlc2NyaXB0aW9uIHJkZjphYm91dD0idXVpZDpmYWY1YmRkNS1iYTNkLTExZGEtYWQzMS1kMzNkNzUxODJmMWIiIHhtbG5zOnhtcD0iaHR0cDovL25zLmFkb2JlLmNvbS94YXAvMS4wLyI+PHhtcDpDcmVhdGVEYXRlPjIwMjEtMTAtMjdUMTg6NTY6MzEuODQ4PC94bXA6Q3JlYXRlRGF0ZT48L3JkZjpEZXNjcmlwdGlvbj48cmRmOkRlc2NyaXB0aW9uIHJkZjphYm91dD0idXVpZDpmYWY1YmRkNS1iYTNkLTExZGEtYWQzMS1kMzNkNzUxODJmMWIiIHhtbG5zOmRjPSJodHRwOi8vcHVybC5vcmcvZGMvZWxlbWVudHMvMS4xLyI+PGRjOmNyZWF0b3I+PHJkZjpTZXEgeG1sbnM6cmRmPSJodHRwOi8vd3d3LnczLm9yZy8xOTk5LzAyLzIyLXJkZi1zeW50YXgtbnMjIj48cmRmOmxpPkFkcmlhYW5zZSwgSi4gKEpvb3N0KTwvcmRmOmxpPjwvcmRmOlNlcT4NCgkJCTwvZGM6Y3JlYXRvcj48L3JkZjpEZXNjcmlwdGlvbj48L3JkZjpSREY+PC94OnhtcG1ldGE+DQogICAgICAgICAgICAgICAgICAgICAgICAgICAgICAgICAgICAgICAgICAgICAgICAgICAgICAgICAgICAgICAgICAgICAgICAgICAgICAgICAgICAgICAgICAgICAgICAgICAgCiAgICAgICAgICAgICAgICAgICAgICAgICAgICAgICAgICAgICAgICAgICAgICAgICAgICAgICAgICAgICAgICAgICAgICAgICAgICAgICAgICAgICAgICAgICAgICAgICAgICAKICAgICAgICAgICAgICAgICAgICAgICAgICAgICAgICAgICAgICAgICAgICAgICAgICAgICAgICAgICAgICAgICAgICAgICAgICAgICAgICAgICAgICAgICAgICAgICAgICAgIAogICAgICAgICAgICAgICAgICAgICAgICAgICAgICAgICAgICAgICAgICAgICAgICAgICAgICAgICAgICAgICAgICAgICAgICAgICAgICAgICAgICAgICAgICAgICAgICAgICAgCiAgICAgICAgICAgICAgICAgICAgICAgICAgICAgICAgICAgICAgICAgICAgICAgICAgICAgICAgICAgICAgICAgICAgICAgICAgICAgICAgICAgICAgICAgICAgICAgICAgICAKICAgICAgICAgICAgICAgICAgICAgICAgICAgICAgICAgICAgICAgICAgICAgICAgICAgICAgICAgICAgICAgICAgICAgICAgICAgICAgICAgICAgICAgICAgICAgICAgICAgIAogICAgICAgICAgICAgICAgICAgICAgICAgICAgICAgICAgICAgICAgICAgICAgICAgICAgICAgICAgICAgICAgICAgICAgICAgICAgICAgICAgICAgICAgICAgICAgICAgICAgCiAgICAgICAgICAgICAgICAgICAgICAgICAgICAgICAgICAgICAgICAgICAgICAgICAgICAgICAgICAgICAgICAgICAgICAgICAgICAgICAgICAgICAgICAgICAgICAgICAgICAKICAgICAgICAgICAgICAgICAgICAgICAgICAgICAgICAgICAgICAgICAgICAgICAgICAgICAgICAgICAgICAgICAgICAgICAgICAgICAgICAgICAgICAgICAgICAgICAgICAgIAogICAgICAgICAgICAgICAgICAgICAgICAgICAgICAgICAgICAgICAgICAgICAgICAgICAgICAgICAgICAgICAgICAgICAgICAgICAgICAgICAgICAgICAgICAgICAgICAgICAgCiAgICAgICAgICAgICAgICAgICAgICAgICAgICAgICAgICAgICAgICAgICAgICAgICAgICAgICAgICAgICAgICAgICAgICAgICAgICAgICAgICAgICAgICAgICAgICAgICAgICAKICAgICAgICAgICAgICAgICAgICAgICAgICAgICAgICAgICAgICAgICAgICAgICAgICAgICAgICAgICAgICAgICAgICAgICAgICAgICAgICAgICAgICAgICAgICAgICAgICAgIAogICAgICAgICAgICAgICAgICAgICAgICAgICAgICAgICAgICAgICAgICAgICAgICAgICAgICAgICAgICAgICAgICAgICAgICAgICAgICAgICAgICAgICAgICAgICAgICAgICAgCiAgICAgICAgICAgICAgICAgICAgICAgICAgICAgICAgICAgICAgICAgICAgICAgICAgICAgICAgICAgICAgICAgICAgICAgICAgICAgICAgICAgICAgICAgICAgICAgICAgICAKICAgICAgICAgICAgICAgICAgICAgICAgICAgICAgICAgICAgICAgICAgICAgICAgICAgICAgICAgICAgICAgICAgICAgICAgICAgICAgICAgICAgICAgICAgICAgICAgICAgIAogICAgICAgICAgICAgICAgICAgICAgICAgICAgICAgICAgICAgICAgICAgICAgICAgICAgICAgICAgICAgICAgICAgICAgICAgICAgICAgICAgICAgICAgICAgICAgICAgICAgCiAgICAgICAgICAgICAgICAgICAgICAgICAgICAgICAgICAgICAgICAgICAgICAgICAgICAgICAgICAgICAgICAgICAgICAgICAgICAgICAgICAgICAgICAgICAgICAgICAgICAKICAgICAgICAgICAgICAgICAgICAgICAgICAgICAgICAgICAgICAgICAgICAgICAgICAgICAgICAgICAgICAgICAgICAgICAgICAgICAgICAgICAgICAgICAgICAgICAgICAgIAogICAgICAgICAgICAgICAgICAgICAgICAgICAgICAgICAgICAgICAgICAgICAgICAgICAgICAgICAgICAgICAgICAgICAgICAgICAgICAgICAgICAgICAgICAgICAgICAgICAgCiAgICAgICAgICAgICAgICAgICAgICAgICAgICAgICAgICAgICAgICAgICAgICAgICAgICAgICAgICAgICAgICAgICAgICAgICAgICAgICAgICAgICAgICAgICAgICAgICAgICAKICAgICAgICAgICAgICAgICAgICAgICAgICAgIDw/eHBhY2tldCBlbmQ9J3cnPz7/2wBDAAcFBQYFBAcGBQYIBwcIChELCgkJChUPEAwRGBUaGRgVGBcbHichGx0lHRcYIi4iJSgpKywrGiAvMy8qMicqKyr/2wBDAQcICAoJChQLCxQqHBgcKioqKioqKioqKioqKioqKioqKioqKioqKioqKioqKioqKioqKioqKioqKioqKioqKir/wAARCAJfAdsDASIAAhEBAxEB/8QAHwAAAQUBAQEBAQEAAAAAAAAAAAECAwQFBgcICQoL/8QAtRAAAgEDAwIEAwUFBAQAAAF9AQIDAAQRBRIhMUEGE1FhByJxFDKBkaEII0KxwRVS0fAkM2JyggkKFhcYGRolJicoKSo0NTY3ODk6Q0RFRkdISUpTVFVWV1hZWmNkZWZnaGlqc3R1dnd4eXqDhIWGh4iJipKTlJWWl5iZmqKjpKWmp6ipqrKztLW2t7i5usLDxMXGx8jJytLT1NXW19jZ2uHi4+Tl5ufo6erx8vP09fb3+Pn6/8QAHwEAAwEBAQEBAQEBAQAAAAAAAAECAwQFBgcICQoL/8QAtREAAgECBAQDBAcFBAQAAQJ3AAECAxEEBSExBhJBUQdhcRMiMoEIFEKRobHBCSMzUvAVYnLRChYkNOEl8RcYGRomJygpKjU2Nzg5OkNERUZHSElKU1RVVldYWVpjZGVmZ2hpanN0dXZ3eHl6goOEhYaHiImKkpOUlZaXmJmaoqOkpaanqKmqsrO0tba3uLm6wsPExcbHyMnK0tPU1dbX2Nna4uPk5ebn6Onq8vP09fb3+Pn6/9oADAMBAAIRAxEAPwD6RooooAKKKKACiiigAooooAKKKKACiiigAooooAKKKKACiiigAooooAKKKKACiiigAooooAKKKKACiiigAooooAKKKKACiiigAooooAKKKKACiiigAooooAKKKKACiiigAooooAKKKKACiiigAooooAKKKKACiiigAooooAKKKKACiiigAooooAKKKKACiiigAooooAKKKKACiiigAooooAKKKKACiqGoa1pmkxmTU7+3tE9ZpQv865LUfjR4H04kHWUuGHa3Uv8A0oA7yivHrv8AaQ8Lwlvs1jqE+OmEVQfzNZcv7Tmn5/ceHrtgP70yCgD3WivBf+Gnbb/oWrj/AMCF/wAKP+Gnbb/oWrj/AMCV/wAKAPeqK8F/4adtv+hauP8AwJX/AAo/4adtv+hauP8AwJX/AAoA96orwX/hp22/6Fq4/wDAlf8ACj/hp22/6Fq4/wDAlf8ACgD3qivBf+Gnbb/oWrj/AMCV/wAKB+05an/mW7j/AMCV/wAKAPeqK8Og/aZ0on/SdBvV/wByVG/wrXsv2i/CNyQLiG+tc95Iwf5E0AetUVxmm/FnwTquBb6/bI5/gmJQ/qK6y1vLe9hEtpPHNG3Ro3DA/iKAJ6KKKACiiigAooooAKKKKACiiigAooooAKKKKACiiigAooooAKKKKACiiigAooooAKKKKACiiigAooooAKKKKACiiigAooooAKKKKACiiq97fWunWr3N9PHbwxjLSSMFAH1NAFiqOqavp+jWbXWq3sFpAn3pJpAo/M14t44/aGgtmksvBsIuXGQb6VcID/sr1P1PFeGa34k1fxHeG51q+mu5CeN7fKv0HQUDsfQfif8AaL0SwZ4fDdrJqUq8ebIPLj/Dua8o8QfGvxprm6NNS/s63brHZrsP/fX3vyIrz+igCW5ubi8nM1zPJM56tI5Yn8TzUVFFAwooooAKKKKACiiigAooooAKKKKACiiigA6Vd0/WdT0icTaVqFzZyA5DQSsn8qpUUAepaB8f/Fuk7E1Mw6tCOD5w2P8AmvH5ivXPC3x58K680cF/K2k3LEDFyf3ZP+/0H44r5RoPTigR99QzxXMSywSLJGwyrI2QR9akzXxR4V+IfiPwfMp0i/cQA5NtKd8Z/wCAnp+GK+gvAnxz0TxO0VnrONK1FuAJG/dSH/ZbsfY/rQB6rRSK6uoZCGUjII70uaBBRRRQAUUUUAFFFFABRRRQAUUUUAFFFFABRRRQAUUUUAFFFFABRRRQAUUUUAFFFFABRRRQAUUUUAFFFFABSZoJxXlPxV+Mdr4RjfStFaO51hl+Y9Uts92/2vb86AOl8d/ErRfAtiWvZPPvXGYbSM/M3ufQe9fLnjT4i6744vWk1S4KWoP7qziJEaD6dz7msDUtSvNW1Ca+1K4e5uZm3PJIckmqtAwooooGFFFFABRRRQAUUUUAFFFFABRRRQAUUUUAFFFFABRRRQAUUUUAFFFFABR2opaAPSvh78adY8ISR2WqPJqWk5A8t2zJCP8AYJ7ex4+lfTfhzxPpPinSY9Q0a7SeJuoHDIfRh2NfDNb3hHxjq3gzWEv9HnKDpLC3KSr6MP60CPuAHNFcf4A+Iel+OtHE1m4jvIgPtFqx+aM+3qPQ114OaBC0UUUAFFFFABRRRQAUUUUAFFFFABRRRQAUUUUAFFFFABRRRQAUUUUAFFFFABRRRQAUUUUAFITilJxXnPxb+JUXgfQ/s9i6vq92pWBD/wAsx0Lke3b3oAxvjD8W08M276LoEofVpVxJKPu2y/8AxR7CvmOWWS4mead2klkYs7ucliepNLdXU97dyXN3K008rFpHc5LE9aZQMMUlLSUDCiiigAoopQCzAAEknAA70AJRXd+Gfg94u8S7ZItPNlbNyJ7v5Mj1A6n8q9R0P9mrTIVV/EOsXF03eO1AjX8zkn9KAPnOlGSeBX2Jpvwf8D6bt8vQLeZl/iuMyE/99Gt+Dwf4cthiDQ7CP/dt1/woFc+Hdjf3W/75o2N6N/3zX3V/wj2j/wDQLs/+/K/4Uf8ACPaP/wBAuz/78r/hQFz4V2N6N/3zRsb0b/vmvur/AIR7R/8AoF2f/flf8KP+Ee0f/oF2f/flf8KAufCuxvRv++aNjejf98191f8ACPaP/wBAuz/78r/hR/wj2j/9Auz/AO/K/wCFAXPhXY3o3/fNGxv7p/Kvur/hHtH/AOgXZ/8Aflf8KD4d0cjB0uzI/wCuK/4UBc+FKTNfcFz4H8L3Y/0nQNPk/wB63X/Cua1X4IeBtTU40r7G5/itJCmPw5H6UBc+RKK96179ml1DyeG9a3jqIb1eT7blH9K8p8S/D7xN4VZm1fTJkgHS4Qb4z+I/rQFzm6KMYooGFFFFABQaKKANLQdf1DwzrMOp6TO0NxEeoPDDureoNfXHw6+Ilh480ITW5EN/CAt1bE8o3qPVT2NfGtbPhbxRqHhHXoNV0qTbJE3zofuyJ3U+xoFY+5aKwPB/iyx8ZeHYNV01uHGJIyfmifuprfFAgooooAKKKKACiiigAooooAKKKKACiiigAooooAKKKKACiiigAooooAKKKKACiikY/KecUAY3i3xLZ+E/DV1q9+3yQLlUB5kbso9zXxh4m8RXvirxBc6tqUm6adsgA8IvZR7Cu/8Ajl49PiXxQdIsJc6bprFMqeJZf4j9B0H415UKBi4ooooGFFFFABRShWZgqAkk4AHrXu/wt+Bv2mOHWvGUJCn5obBuCR2Z/wD4n86AOA8C/CjX/G7rPBEbPTc4a8mHDf7g/i/l719F+DvhN4a8HKktvaC7vgObu4G5wfbsv4c+9drbW8VrbpDbxrFEgwiIMBR6AVLQSIAABgYpaKKACiiigAooooAKKKKACiiigAooooAKKKKACo5okmjKSIrqwwVYZzUlFAHk/jb4D6B4hWS60Nf7Jvjk4iH7pz7r2/CvnbxV4L1vwZqP2XXLRocn93OOY5B6huh+nWvuGs3XNB07xHpslhrFrHc28g5VxyD6g9QfegZ8Jg8UV6V8T/hDe+CJ2v8ATA93o7tw4GWg/wBlv6H+Vea0DCiiigAoxRRQB3fwo+IM3gbxMn2gs+l3bBLmPOdvo4HqP5V9f288VzbxzQOskcihkZTwwPevgWvo/wDZ+8e/2jpz+F9TmLXVou+0Zj9+Puv1B/T6UCPb6KAciigQUUUUAFFFFABRRRQAUUUUAFFFFABRRRQAUUUUAFFFFABRRRQAUUUUAFcF8XfGI8IeBriWB9l7d5t7bnncRyfwGa72vkz46eKz4i8fyWcMhNppYMCAHgv1dvz4/CgDzVmLsWY5JOSfWkoooKCiiigApcZ6UlewfA34bDxFqY8Q6xFnTrR8QRsOJ5B3/wB0fzoA6f4M/CFbWOHxJ4lgBuGAe0tZB/qx1DsPX0HavdVXaKFQJwOAOgFOoJCiiigAooooAKKKKACiiigAooooAKKKKACiiigAooooAKKKKACiiigCC6s4b22kt7qNZYZFKujDIYehr5a+L3wpk8G37aro8bSaNcP0HJtmPY/7Pofwr6sqlqml2usaZPYahEJradCjow6g0DPg/sPekrrviP4GuvAvimWykDPZzZktZj/GnofcdD/9euRoGFFFFABWl4d1q68OeIbPVrFiJraQOAD94dx+NZtH1oA+7dB1e217QrPVLFw8F1EsikH1HT+laNeD/s4eLDNZXvhm6kJaE/aLUHsp+8Pz5/GvdxQIWiiigQUUUUAFFFFABRRRQAUUUUAFFFFABRRRQAUUUUAFFFFABRRRQBheM9ej8M+DdT1aU4+zwMU93PCj8SRXxFPPJc3Mk0zFpJWLux7knk19G/tJ699n8OadosT4a7nMso/2E6f+PH9K+be9A0LRRRQMKKKKANjwn4dufFfiiy0eyGXuJMM3aNByzH6AGvtXQ9FtNA0a10zT4xHb2yBEA7+59z1ryD9nTwiLTR7rxLdx/vrs+TASOkankj6n+Ve4UCCiiigQUUUUAFFFFABRRRQAUUUUAFFFFABRRRQAUUUUAFFFFABRRRQAUUUUAFFFFAHE/FPwRH418G3FvEi/b7cGW1c/3gPu59D0r46lieGV4pVKSIxVlYYII4IPvX30eRXyr8evCI0Dxt/adtHttdUBk4HAlH3/AM8g/jQM8sooooGFFFFAHS/D7xEfC3jvTNTLFYVlEc//AFzY4b8hz+Ffa8biSNXGCGGQRXwGTgV9m/CnXT4g+G2lXTtulii+zyn/AGk+X+gNAjsaKKKBBRRRQAUUUUAFFFFABRRRQAUUUUAFFFFABRRRQAUUUUAFFFIzbVJNAHyl+0Bqp1D4mSWytmOygSPHoSMn+Yry7vXQePNROq/EDW7vdlXvZFX/AHVYgfoBWBQUFFFFABVnTrCbVNUtbC1XdNdTLDGPUsQB/Oq1ei/A7Rhq/wAT7N5BlLNHuDx0IGB+p/SgD6m8P6RDoPh+x0u1GIrSFYl98DGfx61p0UUEhRRRQAUUUUAFFFFABRRRQAUUUUAFFFFABRRRQAUUUUAFFFFABRRRQAUUUUAFFFFABXnnxu8Nf8JD8N7t4o991p5+1RYHOB98f985/KvQ6gvLdLuxmt5QGSVCjA9wRQB8EZ/Kir+u6c2keIL/AE9+trcPF+RwKoUFBRRRQAV9Gfs06sZdE1bSmP8Ax7yrMo9mGD+q185163+zpqP2b4hXFmTgXlmwx6lSD/LNAM+o6KQUtBIUUUUAFFFFABRRRQAUUUUAFFFFABRRRQAUUUUAFFFFABVe/mFtp9xO3AijZ/yGasVj+LpPJ8Fa1IOCthOR9fLagD4cnlNxdSTN1kcufxOaZSDnFLQUFFFFABXvH7M2nh77W9QK/wCrSOEH65P9K8Hr6T/ZogCeFNXnI5kvVUH6IP8AGgGe10UUUEhRRRQAUUUUAFFFFABRRRQAUUUUAFFFFABRRRQAUUUUAFFFFABRRRQAUUUUAFFFFABQaKKAPjz4z6f/AGf8VtWAGFnZZh/wJQf55rhK9X/aKg8r4lRP/wA9bGNv/HmH9K8ooKCiiigAruPg3efYvi3ob5xvkeIj13RsK4eul+Hcvk/EjQHHa+iH5sB/WgD7ZHSikFLQSFFFFABRRRQAUUUUAFFFFABRRRQAUUUUAFFFFABRRRQAVh+Nv+RC17/sHT/+i2rcrD8bf8iFr3/YOn/9FtQB8OjoPpRQOgooKCiiigAr6b/ZuH/FBX5/6fz/AOgJXzJX05+zd/yIV/8A9f7f+gJQDPYRS0UUEhRRRQAUUUUAFFFFABRRRQAUUUUAFFFFABRRRQAUUUUAFFFFABRRRQAUUUUAFFFFABRRQaAPmH9pH/koFh76cv8A6MevH69g/aT4+IGn/wDYOX/0Y9eP0FBRRRQAVveB/wDkftC/6/4f/QxWDW94G/5H7Qv+v+H/ANDFAH2/S0CigkKKKKACiiigAooooAKKKKACiiigAooooAKKKKACiiigArD8bf8AIha9/wBg6f8A9FtW5WH42/5ELXv+wdP/AOi2oA+HR0FFA6CigoKKKKACvpz9m7/kQr//AK/2/wDQFr5jr6c/Zu/5EK//AOv9v/QFoBnsVFFFBIUUUUAFFFFABRRRQAUUUUAFFFFABRRRQAUUUUAFFFFABRRRQAUUUUAFFFFABRRRQAUGiigD5h/aT/5KBp//AGDl/wDRj14+K9g/aS/5KBp//YOX/wBGPXj4oKCiiigAre8Df8j9oX/X/D/6GKwa3vA3/I/aF/1/w/8AoYoA+4B0ooHSigkKKKKACiiigAooooAKKKKACiiigAooooAKKKKACiiigArD8bf8iFr3/YOn/wDRbVuVh+Nv+RC17/sHT/8AotqAPh0dBRQOgooKCiiigAr6c/Zu/wCRCv8A/r/b/wBAWvmOvpz9m7/kQr//AK/2/wDQFoBnsVFFFBIUUUUAFFFFABRRRQAUUUUAFFFFABRRRQAUUUUAFFFFABRRRQAUUUUAFFFFABRRRQAUUUGgD5h/aS/5KBp//YOX/wBGPXj4r2D9pP8A5KBp/wD2Dl/9GPXj4oKCiiigAre8Df8AI/aF/wBf8P8A6GKwa3vA3/I/aF/1/wAP/oYoA+4B0ooHSigkKKKKACiiigAooooAKKKKACiiigAooooAKKKKACiiigArD8bf8iFr3/YOn/8ARbVuVh+Nv+RC17/sHT/+i2oA+HR0FFA6CigoKKKKACvpz9m7/kQr/wD6/wBv/QFr5jr6c/Zu/wCRCv8A/r/b/wBAWgGexUUUUEhRRRQAUUUUAFFFFABRRRQAUUUUAFFFFABRRRQAUUUUAFFFFABRRRQAUUUUAFFFFABRRRQB8w/tJf8AJQNP/wCwcv8A6MevHxXsH7SX/JQNP/7By/8Aox68fFBQUUUUAFb3gb/kftC/6/4f/QxWDW94G/5H7Qv+v+H/ANDFAH3AOlFA6UUEhRRRQAUUUUAFFFFABRRRQAUUUUAFFFFABRRRQAUUUE460AFYfjb/AJELXv8AsHT/APotq29w9a5H4geJNFsvBes291qlrHNLYzIkZlG5mKEAYoA+MB0FFFFBQUUUUAFfTn7N3/IhX/8A1/t/6AtfMde3/Bf4l+GvBvhS7sdevZIJ5bsyKqwO/wAu1RnIB9KAPo+ivNv+F9eAv+gpN/4CSf8AxNH/AAvrwF/0FJv/AAEk/wAKCT0mivNv+F9eAv8AoKTf+Akn+FH/AAvrwF/0FJv/AAEk/wAKAPSaK82/4X14C/6Ck3/gJJ/hR/wvrwF/0FJv/AST/CgD0mivNv8AhfXgL/oKTf8AgJJ/hR/wvrwF/wBBSb/wEk/woA9Jorzb/hfXgL/oKTf+Akn+FH/C+vAX/QUm/wDAST/CgD0mivNv+F9eAv8AoKTf+Akn+FH/AAvrwF/0FJv/AAEk/wAKAPSaK82/4X14C/6Ck3/gJJ/hR/wvrwF/0FJv/AST/CgD0mivNv8AhfXgL/oKTf8AgJJ/hR/wvrwF/wBBSb/wEk/woA9Jorzb/hfXgL/oKTf+Akn+FH/C+vAX/QUm/wDAST/CgD0mivNv+F9eAv8AoKTf+Akn+FH/AAvrwF/0FJv/AAEk/wAKAPSaK82/4X14C/6Ck3/gJJ/hR/wvrwF/0FJv/AST/CgD0mivNv8AhfXgL/oKTf8AgJJ/hR/wvrwF/wBBSb/wEk/woA9Jorzb/hfXgL/oKTf+Akn+FH/C+vAX/QUm/wDAST/CgD0mivNv+F9eAv8AoKTf+Akn+FH/AAvrwF/0FJv/AAEk/wAKBnlX7SX/ACUDT/8AsHL/AOjHrx8V6L8aPF2keMvF1pf6DO09vHZrEzNGyYYOxxg+xFedUDCiiigAre8Df8j9oX/X/D/6GKwa2fCN1DY+MtIuruQRQQ3kTyO3RVDgk/lQB9yjpRWRpfinQ9ZUf2Xq1pc56COYE/lWsCD3oJFooooAKKKKACiiigAooooAKKKKACiiigAoopCcdaAFJxXAePPi3oHgpXt3c32ogcWkBGV/3j/DXE/Fz40nTpp/D/hG4H2lcpcXqc+We6ofUdz2PvXzzLLJNK0kzs7sSWZjkk0Dsd14p+MvizxPLIovTp1ox4t7Q7Mj/abqa4OSSSWQvK5kdvvM5yTSYoxQMPrzRRRQAUUUUAFLSUUALRxSUUALxRxSUUALxRxSUUALxRxSUUALxRxSUUALxRxSUUALxRxSUUALxRxSUUALxRxSUUALxRxSUUALxRxSUUALxRxSUUALxRxSUUALxRxSUUALSUUUAFFFFABSikpaAHwzSW8gkgkeOQdGQ4P513/hT40eK/DUiJNdHVLMHmC6Ykgf7LdR+o9q89zRmgD7F8DfFXQPG6LDbS/Zb/GWtJyAx/3T/EK7fNfA0E8ttOk1vI0cqNuR0O0qfUEdK+jvhF8ZhrckOgeKJAt+flgujwJ8dj6N/OgR7ZRSA56UtAgooooAKKKKACiiigAooooAK8m+N3xIPhbRxouky41S+Q7mU8wRdN31PQfjXp+p38OmaZcXt04SG3iaV2PYKMmviPxZ4iuPFXii91e6YlriQlR/cX+EflQNGQzM7lmJJJySe9JRRQMKKKKACiiigAooooAKKKKACiiigAooooAKKKKACiiigAooooAKKKKACiiigAooooAKKKKACiiigAooooAKKKKACiiigAooooAKKKKACiiigAooooAKKKKACnJI8MiyRMUdCCrKcEEd6bRQB9X/AAW+Ix8Y+HzYanIP7WsAFc/89k7OP5H3+ten18Q+CPFE3hDxdZ6tCzeXG4WdAfvxk/MPy5r7Ys7qO9s4bmBw8UyB0cfxKRkGgRNRRRQIKKKKACiiigAoooNAHlX7QWutpXw5axibbJqcwhz/ALC/M38gPxr5V717x+03dsb/AESzz8qxySY9yQP6V4RQMKKKKBhRRRQAUUUUAFFFFABRRRQAUUUUAFFFFABRRRQAUUUUAFFFFABRRRQAUUUUAFFFFABRRRQAUUUUAFFFFABRRRQAUUUUAFFFFABRRRQAUUUUAFFFFABRRRQAUUUUAA4r62+BOuNrHwytY5W3S2LtbHP90fd/Qj8q+Sa+hP2ZLxms9csyTtjeOQD0JyP6UCZ71RQKKBBRRRQAUUUUAFBooNAHzZ+0t/yNWlf9ep/9CrxSva/2lf8AkatK/wCvU/8AoVeKUFBRRRQAUUUUAFFFFABRRRQAUUUUAFFFFABRRRQAUUUUAFFFFABRRRQAUUUUAFFFFABRRRQAUUUUAFFFFABRRRQAUUUUAFFFFABRRRQAUUUUAFFFFABRRRQAUUUUAFFFFABXvP7MZ/03xB/1zh/m1eDV7x+zH/x/+If+ucP82oA+hhRQKKCQooooAKKKKACg0UGgD5s/aV/5GrSv+vU/+hV4pXtf7Sv/ACNWlf8AXqf/AEKvFKCgooooAKKKKACiiigAooooAKKKKACiiigAooooAKKKKACiiigAooooAKKKfFFJPMsUKNJI5wqqMkn2oAZRXdaH8HvGeuKskWlPaxMMh7o7Bj6df0rsrP8AZn1mRVa91yzhz1WONnx/KgDxOive2/ZjmC/L4kTd6G1OP/QqytQ/Zt8QwKW0/VLG6x/CQ0ZP8xQK54zRXVa98M/Fvhze+o6NcGBes0Q8xPzFcr9RigYUUUUAFFFFABRRRQAUUUUAFFFFABRRRQAUUUUAFFFFABRRRQAUUUUABr3j9mP/AI/vEP8A1zh/m1eDmveP2Y/+P7xB/wBc4f5tQB9DCigUUEhRRRQAUUUUAFBooNAHzZ+0r/yNWlf9ep/9CrxSva/2lf8AkatK/wCvU/8AoVeKUFBRRRQAUUUUAFFFFABRRRQAUUUUAFFFFABRRRQAUUUUAFFFFAC0nY/pQa9q+DvwgGueX4h8Swn7Crbra1YY84/3m/2fQd6AOb+Hvwc1nxqI726DadpJPFw6/NKP9hf619G+FPhz4c8H24XSbBPtBGHupRvlb/gR6D2HFdPDEkESxxIsaKMKqjAA+lSUCuIBgUtFFAgooooAayhuoB+orz/xn8HfDXi1ZJ1tRp+oMP8Aj6tlA3H/AGl6H69fevQqKAPivxv8PNb8C3vl6nD5tq7YivEB2P8A4H2rla+79W0ey1vTZrDU7eO4tpl2ujrnNfKPxT+F9z4E1T7RaB59HuG/cy9TGf7je/oe9Azz6ijNFAwooooAKKKKACiiigAooooAKKKKACiiigAooooAKKKKAA17z+zH/wAf3iD/AK5wfzavBjXvP7Mf/H94g/65wfzagD6FooooJCiiigAooooAKDRQaAPmz9pX/katK/69T/6FXile1/tK/wDI1aV/16n/ANCrxSgoKKKKACiiigAooooAKKKKACiiigAooooAKKKKACiiigAoopaAO++EXgH/AITjxYv2xCdMsiJbn0f0T8f5A19d28EdtCkMCLHGihVRRgKB0ArivhL4STwl4Cs4JEAvLpftFy3fcw4H4DA/Cu5oEwooooEFFFFABRRRQAUUUUAFZXiHQLPxJolzpmpRq9vOhU5GSvoR7itWigD4b8XeGbvwj4pu9Hvh80LfI/aRDyrD8P61i19J/tE+E1vvD9v4ht4/39iwilI7xse/0P8AOvmygYUUUUDCiiigAooooAKKKKACiiigAooooAKKKKACiiigANe8/sx/8f3iD/rnB/Nq8GNe8/sx/wDH94g/65wfzagGfQtFFFBIUUUUAFFFFABQaKDQB82ftK/8jVpX/Xqf/Qq8Ur2v9pX/AJGrSv8Ar1P/AKFXilBQUUUUAFFFFABRRRQAUUUUAFFFFABRRRQAUUUUAFFFFABXQ+AtIGuePtH0913JLdL5gx/COT/Kuer0r4BWy3HxXtWcZ8m3lkH1xj+tAH1jGqpGqrwFGAKfQKKCQooooAKKKKACiiigAooooAKKKKAMrxPpEeu+F9S0yUArdWzxjPYlTg/gcGvhiSNopnjkGHRirD0I6199su5cGvh3xpaiz8da5AgwkeoThfpvNA0YlFFFAwooooAKKKKACiiigAooooAKKKKACiiigAooooADXvP7Mf8Ax/eIP+ucH82rwY17z+zH/wAf3iD/AK5wfzagGfQtFFFBIUUUUAFFFFABQaKDQB82ftK/8jVpX/Xqf/Qq8Ur2v9pX/katK/69T/6FXilBQUUUUAFFFFABRRRQAUUUUAFFFFABRRRQAUUUUAFFFFABXp/7P0wi+KkKtj95ayqPyB/pXmFdZ8MNUGj/ABL0a7dtsf2gRufZuD/OgD7SFFNByMg5B6U6gkKKKKACiiigAooooAKKKKACiiigAJxXxB47mWf4ga/Ihyp1CbH/AH2a+0dZ1CPSdEvdQnIEdtA8rZ/2Rn+lfCl1cNd3k1zJy8zmRifUnJ/nQNEVFFFAwooooAKKKKACiiigAooooAKKKKACiiigAooooADXvP7Mf/H94g/65wfzavBjXvP7Mf8Ax/eIP+ucH82oBn0LRRRQSFFFFABRRRQAUGig0AfNn7Sv/I1aV/16n/0KvFK9r/aV/wCRq0r/AK9T/wChV4pQUFFFFABRRRQAUUUUAFFFFABRRRQAUUUUAFFFFABRRRQAU5JHikWSJtrqcqw7Gm0tAH2t8PvE0XizwRp+pxsDI0YSdR/DIvDD8/5109fLXwJ8ep4b8Rvouoy7LDUnAVmPEc3RfoDwPyr6jVt3I6UCHUUUUCCiiigAooooAKKKKACgnAoqte39vYWUt1eSLFBEhd3c4AAGTQB5h+0B4pXR/Ax0qGQC61Nwm3/pmD839B+NfLOMDiur+JHjSbxx4yuNQOVtIv3VrH/djHf6k8//AKq5SgaCiiigYUUUUAFFFFABRRRQAUUUUAFFFFABRRRQAUUUUABr3n9mP/j+8Qf9c4P5tXgxr3n9mP8A4/vEH/XOD+bUAz6FooooJCiiigAooooAKDRQaAPmz9pX/katK/69T/6FXile1/tK/wDI1aV/16n/ANCrxSgoKKKKACiiigAooooAKKKKACiiigAooooAKKKKACiiigApaSloAOcjBPHTFfSHwa+Liapaw+HfEdyq30ahba4kP+vA/hJ/vD9a+cKFdkdWRirA5BBwQaAPvpWyO34U6vnL4c/HubT449L8Z7p4Vwsd8vLqP9sdx7jn1r37SdZ0/W7FLvSryK7gcZDxNkf/AFqCS/RRRQAUUUUAFFFYXifxhonhKyNzrd/HbjGUjzl3+i9TQBtyypDE0krBEUZZmOABXzL8Z/iz/wAJFPJ4e8PSkaXG2J51P/Hww7D/AGR+tZfxI+M+peMS+n6V5mn6RnBQN88/uxHQew/HNeY4oGGKKKKBhRRRQAUUUUAFFFFABRRRQAUUUUAFFFFABRRRQAUUUUABr3n9mP8A4/vEH/XOD+bV4Ma95/Zj/wCP7xB/1zg/m1AM+haKKKCQooooAKKKKACg0UGgD5s/aV/5GrSv+vU/+hV4pXtf7Sv/ACNWlf8AXqf/AEKvFKCgooooAKKKKACiiigAooooAKKKKACiiigAooooAKKKKACiiigAooooAK1vD3iLV/DupR3OiahPZyFgG8tuHGejDoR9ayalg/4+I/8AfH86APvSBi1vGx5JUE/lUtQ23/HrF/uD+VTUEhRRRQAjdDXw34turi88Wao93NJM4u5VDSOWIAcgDn2r7kb7pr4V8S/8jVqv/X5N/wChmgaMyiiigYUUUUAFFFFABRRRQAUUUUAFFFFABRRRQAUUUUAFFFFABRRRQAGvef2Y/wDj+8Qf9c4P5tXgxr3n9mP/AI/vEH/XOD+bUAz6FooooJCiiigAooooAKDRQaAPmz9pX/katK/69T/6FXile1/tK/8AI1aV/wBep/8AQq8UoKCiiigAooooAKKKKACiiigAooooAKKKKACiiigAooooAKKKKACiiigAqWD/AI+I/wDfH86iqWD/AI+I/wDfH86APvO2/wCPWL/cH8qmqK2/49Iv9wfyqWgkKKKKAEb7pr4V8S/8jVqv/X5N/wChmvupvumvhXxL/wAjVqv/AF+Tf+hmgaMyiiigYUUUUAFFFFABRRRQAUUUUAFFFFABRRRQAUUUUAFFFFABRRRQAGvef2Y/+P7xB/1zg/m1eDGvef2Y/wDj+8Qf9c4P5tQDPoWiiigkKKKKACiiigAoNFBoA+bP2lf+Rq0r/r1P/oVeKV7X+0r/AMjVpX/Xqf8A0KvFKCgooooAKKKKACiiigAooooAKKKKACiiigAooooAKKKKACiiigAooooAKlg/4+I/98fzqKpYP+PiP/fH86APvS1/49Iv9wfyqWorX/j0i/3B/KpaCQooooARvumvhXxL/wAjVqv/AF+zf+hmvupvumvhXxL/AMjVqv8A1+zf+hmgaMyiiigYUUUUAFFFFABRRRQAUUUUAFFFFABRRRQAUUUUAFFFFABRRRQAGvef2Y/+P7xB/wBc4P5tXgxr3n9mP/j+8Qf9c4P5tQDPoWiiigkKKKKACiiigAoNFBoA+bP2lf8AkatK/wCvU/8AoVeKV7X+0r/yNWlf9ep/9CrxSgoKKKKACiiigAooooAKKKKACiiigAooooAKKKKACiiigAooooAKKKKACpYP+PiP/fH86iqSA4njJ/vD+dAH3ra/8ekX+4P5VLUNowazhIOQUBH5VNQSFFFFACN9018K+Jf+Rq1X/r9m/wDQzX3UxwpzXwp4jYP4n1RlOQbyUg/8DNA0ZtFFFAwooooAKKKKACiiigAooooAKKKKACiiigAooooAKKKKACiiigANe8/sx/8AH94g/wCucH82rwY17z+zH/x/eIP+ucH82oBn0LRRRQSFFFFABRRRQAUGig0AfNn7Sv8AyNWlf9ep/wDQq8Ur2v8AaV/5GrSv+vU/+hV4pQUFFFFABRRRQAUUUUAFFFFABRRRQAUUUUAFFFFABRRRQAUUUUAFFFFABS5xSUvagD7B+EXi+HxV4DssyA3tkgt7hM85UYDfiOa7yvh7wl4v1bwZrS6jo821jhZYm5SVf7rCvofw3+0H4X1OBF1sy6Xc/wAYZC8efZhz+YoEetUE4rix8XfApGf+Ejsx9WI/pWB4h+PvhDTLd/7Lml1S4x8qwxkIT/vGgR1XxC8WW/hDwbe6jM4WbYY7dM8vIRwB/Ovi2V2mmeRzuZzuJPcmuk8b+O9W8dasLvVJAkMYIgtkPyRA/wAye5NcxQMKKKKBhRRRQAUUUUAFFFFABRRRQAUUUUAFFFFABRRRQAUUUUAFFFFAAa95/Zj/AOP7xB/1zg/m1eDGvef2Y/8Aj+8Qf9c4P5tQDPoWiiigkKKKKACiiigAoNFBoA+bP2lf+Rq0r/r1P/oVeKV7X+0r/wAjVpX/AF6n/wBCrxSgoKKKKACiiigAooooAKKKKACiiigAooooAKKKKACiiigAooooAKKKKAClpKKAFpKKKAFpMfjRRQAUUUUAFFFFABRRRQAUUUUAFFFFABRRRQAUUUUAFFFFABRRRQAUUUUAFFFFAAa95/Zj/wCP7xB/1zg/m1eDGvef2Y/+P7xB/wBc4P5tQDPoWiiigkKKKKACiiigAoNFBoA+bP2lf+Rq0r/r1P8A6FXile1/tLf8jVpX/Xqf/Qq8UoKCiiigAooooAKKKKACiiigAooooAKKKKACiiigAooooAKKKKACiiigAooooAKKKKACiiigAooooAKKKKACiiigAooooAKKKKACiiigAooooAKKKKACiiigAooooAKKKKAA17z+zH/x/eIP+ucH82rwY17z+zH/AMf3iD/rnD/NqAZ9C0UUUEhRRRQAUUUUAFBoooA+cP2mISPEWjy9mt2H5NXiFfR/7S2lNN4b0rVETP2e4aJ29A44/Vf1r5wFBSCiiigAooooAKKKKACiiigAooooAKKKKACiiigAooooAKKKKACiiigAooooAKKKKACiiigAooooAKKKKACiiigAooooAKKKKACiiigAooooAKKKKACiiigAooooAKKKKAA9K99/Zjjbz9fk/hKwqD+LGvAq+nf2cdJa08D3eoSLg3l0Qp9VUY/nmgTPYaKKKBBRRRQAUUUUAFFFFAHOeP8Aw6nirwPqeksPnmhJib+66/Mp/MCvieaGS2neGdSkkbFWU9iDgivvogEc18wfHnwA+h+IG8RafFnT9Qf99tH+ql7/AIHr9c0DR5DRRRQMKKKKACiiigAooooAKKKKACiiigAooooAKKKKACiiigAooooAKKKKACiiigAooooAKKKKACiiigAooooAKKKKACiiigAooooAKKKKACiiigAooooAKKKKACiiigCeztJr69htLWMyTTuI40HVmY4A/M19ueD9BTwx4S07SExm2gVXI/ifGWP55rwf9n/wE+oasfFGoQ4tbQlbTcP9ZJ/e+g/nX0kDQJi0UUUCCiiigAooooAKKKKACs7W9Fstf0e403U4RNbXCbHUj9R71o0UAfGPxE+HmoeA9cMMytNp8xJtroDhh/dPow9K4+vuzXNC07xFpcun6vapc20owyuOnuD2PvXzZ8QfgXq/hySS+8Oq2pabksUHMsQ9CP4h7j8aBo8mopzo8TlJVZHU4KsMEfhTaBhRRRQAUUUUAFFFFABRRRQAUUUUAFFFFABRRRQAUUUUAFFFFABRRRQAUUUUAFFFFABRRRQAUUUUAFFFFABRRRQAUUUUAFFFFABRRRQAUUUUAFFFPiiknlWOGNpHY4CqMk/hQAyu5+Gnw2vvHesDKtDpcDD7RckYz/sL6t/Kun+H3wH1LXJI7/xUH06w4ZYOk03/AMSP1r6P0nR7LRNNhsNMt0t7aEYSNBx9frQIdpWmWuj6bb2GnwrBbW6BEjUYAAq7iiigQUUUUAFFFFABRRRQAUUUUAFFFFABSFcjBpaKAOR8S/DHwt4rDNqemRrcN/y8wfu5PzHX8c15ZrP7MzbmbQNdXb2jvI+R/wACX/CvoGigD5Vuf2evGcLEQ/Yrgdik2M/mBVf/AIUF45/59Lb/AMCBX1lRQM+Tf+FBeOf+fS2/8CBR/wAKC8c/8+lt/wCBAr6yooA+Tf8AhQXjn/n0tv8AwIFH/CgvHP8Az6W3/gQK+sqKAPk3/hQXjn/n0tv/AAIFH/CgvHP/AD6W3/gQK+sqKAPk3/hQXjn/AJ9Lb/wIFH/CgvHP/Ppbf+BAr6yooA+Tf+FBeOf+fS2/8CBR/wAKC8c/8+lt/wCBAr6yooA+Tf8AhQXjn/n0tv8AwIFH/CgvHP8Az6W3/gQK+sqKAPk3/hQXjn/n0tv/AAIFH/CgvHP/AD6W3/gQK+sqKAPk3/hQXjn/AJ9Lb/wIFH/CgvHP/Ppbf+BAr6yooA+Tf+FBeOf+fS2/8CBR/wAKC8c/8+lt/wCBAr6yooA+Tf8AhQXjn/n0tv8AwIFH/CgvHP8Az6W3/gQK+sqKAPk3/hQXjn/n0tv/AAIFH/CgvHP/AD6W3/gQK+sqKAPk3/hQXjn/AJ9Lb/wIFH/CgvHP/Ppbf+BAr6yooA+Tf+FBeOf+fS2/8CBR/wAKC8c/8+lt/wCBAr6yooA+Tf8AhQXjn/n0tv8AwIFH/CgvHP8Az6W3/gQK+sqKAPk3/hQXjn/n0tv/AAIFH/CgvHP/AD6W3/gQK+sqKAPk3/hQXjn/AJ9Lb/wIFH/CgvHP/Ppbf+BAr6yooA+Tf+FBeOf+fS2/8CBR/wAKC8c/8+lt/wCBAr6yooA+Tf8AhQXjn/n0tv8AwIFH/CgvHP8Az6W3/gQK+sqKAPk7/hQXjj/n0tv+/wCKntv2evGU8gWY2NuD1LTE4/IV9VYpCKAPA9G/ZnUSK/iDXSyjrHZR4z/wJv8ACvVPDXw48M+FEU6RpcSTj/l4k+eQ/wDAj/SuopaBDQuKdRRQAUUUUAFFFFABRRRQAUUUUAFFFFABRRRQAUUUUAFFFFABRRRQAUUUUAFFFFABRRRQAUUUUAFFFFABRRRQAUUUUAFFFFABRRRQAUUUUAFFFFABRRRQAUUUUAFFFFABRRRQAUUUUAFFFFABRRRQAUUUUAFFFFABRRRQAUUUUAFFFFABRRRQB//Z" vertex="1" parent="121">
                    <mxGeometry x="152.5" y="3" width="21.13" height="27" as="geometry"/>
                </mxCell>
                <mxCell id="104" value="" style="group" vertex="1" connectable="0" parent="1">
                    <mxGeometry x="2172" y="1765.5" width="178.75" height="35" as="geometry"/>
                </mxCell>
                <mxCell id="105" value="&lt;b&gt;Resource API&lt;/b&gt;" style="rounded=1;whiteSpace=wrap;html=1;strokeColor=#000000;fillColor=#FFFFFF;rotation=0;" vertex="1" parent="104">
                    <mxGeometry width="178.75" height="35" as="geometry"/>
                </mxCell>
                <mxCell id="106" value="" style="shape=image;verticalLabelPosition=bottom;verticalAlign=top;imageAspect=0;aspect=fixed;image=data:image/jpeg,/9j/4AAQSkZJRgABAQEAYABgAAD/4REMRXhpZgAATU0AKgAAAAgABAE7AAIAAAAWAAAISodpAAQAAAABAAAIYJydAAEAAAAsAAAQ2OocAAcAAAgMAAAAPgAAAAAc6gAAAAgAAAAAAAAAAAAAAAAAAAAAAAAAAAAAAAAAAAAAAAAAAAAAAAAAAAAAAAAAAAAAAAAAAAAAAAAAAAAAAAAAAAAAAAAAAAAAAAAAAAAAAAAAAAAAAAAAAAAAAAAAAAAAAAAAAAAAAAAAAAAAAAAAAAAAAAAAAAAAAAAAAAAAAAAAAAAAAAAAAAAAAAAAAAAAAAAAAAAAAAAAAAAAAAAAAAAAAAAAAAAAAAAAAAAAAAAAAAAAAAAAAAAAAAAAAAAAAAAAAAAAAAAAAAAAAAAAAAAAAAAAAAAAAAAAAAAAAAAAAAAAAAAAAAAAAAAAAAAAAAAAAAAAAAAAAAAAAAAAAAAAAAAAAAAAAAAAAAAAAAAAAAAAAAAAAAAAAAAAAAAAAAAAAAAAAAAAAAAAAAAAAAAAAAAAAAAAAAAAAAAAAAAAAAAAAAAAAAAAAAAAAAAAAAAAAAAAAAAAAAAAAAAAAAAAAAAAAAAAAAAAAAAAAAAAAAAAAAAAAAAAAAAAAAAAAAAAAAAAAAAAAAAAAAAAAAAAAAAAAAAAAAAAAAAAAAAAAAAAAAAAAAAAAAAAAAAAAAAAAAAAAAAAAAAAAAAAAAAAAAAAAAAAAAAAAAAAAAAAAAAAAAAAAAAAAAAAAAAAAAAAAAAAAAAAAAAAAAAAAAAAAAAAAAAAAAAAAAAAAAAAAAAAAAAAAAAAAAAAAAAAAAAAAAAAAAAAAAAAAAAAAAAAAAAAAAAAAAAAAAAAAAAAAAAAAAAAAAAAAAAAAAAAAAAAAAAAAAAAAAAAAAAAAAAAAAAAAAAAAAAAAAAAAAAAAAAAAAAAAAAAAAAAAAAAAAAAAAAAAAAAAAAAAAAAAAAAAAAAAAAAAAAAAAAAAAAAAAAAAAAAAAAAAAAAAAAAAAAAAAAAAAAAAAAAAAAAAAAAAAAAAAAAAAAAAAAAAAAAAAAAAAAAAAAAAAAAAAAAAAAAAAAAAAAAAAAAAAAAAAAAAAAAAAAAAAAAAAAAAAAAAAAAAAAAAAAAAAAAAAAAAAAAAAAAAAAAAAAAAAAAAAAAAAAAAAAAAAAAAAAAAAAAAAAAAAAAAAAAAAAAAAAAAAAAAAAAAAAAAAAAAAAAAAAAAAAAAAAAAAAAAAAAAAAAAAAAAAAAAAAAAAAAAAAAAAAAAAAAAAAAAAAAAAAAAAAAAAAAAAAAAAAAAAAAAAAAAAAAAAAAAAAAAAAAAAAAAAAAAAAAAAAAAAAAAAAAAAAAAAAAAAAAAAAAAAAAAAAAAAAAAAAAAAAAAAAAAAAAAAAAAAAAAAAAAAAAAAAAAAAAAAAAAAAAAAAAAAAAAAAAAAAAAAAAAAAAAAAAAAAAAAAAAAAAAAAAAAAAAAAAAAAAAAAAAAAAAAAAAAAAAAAAAAAAAAAAAAAAAAAAAAAAAAAAAAAAAAAAAAAAAAAAAAAAAAAAAAAAAAAAAAAAAAAAAAAAAAAAAAAAAAAAAAAAAAAAAAAAAAAAAAAAAAAAAAAAAAAAAAAAAAAAAAAAAAAAAAAAAAAAAAAAAAAAAAAAAAAAAAAAAAAAAAAAAAAAAAAAAAAAAAAAAAAAAAAAAAAAAAAAAAAAAAAAAAAAAAAAAAAAAAAAAAAAAAAAAAAAAAAAAAAAAAAAAAAAAAAAAAAAAAAAAAAAAAAAAAAAAAAAAAAAAAAAAAAAAAAAAAAAAAAAAAAAAAAAAAAAAAAAAAAAAAAAAAAAAAAAAAAAAAAAAAAAAAAAAAAAAAAAAAAAAAAAAAAAAAAAAAAAAAAAAAAAAAAAAAAAAAAAAAAAAAAAAAAAAAAAAAAAAAAAAAAAAAAAAAAAAAAAAAAAAAAAAAAAAAAAAAAAAAAAAAAAAAAAAAAAAAAAAAAAAAAAAAAAAAAAAAAAAAAAAAAAAAAAAAAAAAAAAAAAAAAAAAAAAAAAAAAAAAAAAAAAAAAAAAAAAAAAAAAAAAAAAAAAAAAAAAAAAAAAAAAAAAAAAAAAAAAAAAAAAAAAAAAAAAAAAAAAAAAAAAAAAAAAAAAAAAAAAAAAAAAAAAAAAAAAAAAAAAAAAAAAAAAAAAAAAAAAAAAAAAAAAAAAAAAAAAAAAAAAAAAAAAAAAAAAAAAAAAAAAAAAAAAAAAAAAAAAAAAAAAAAAAAAAAAAAAAAAAAAAAAAAAAAAAAAAAAAAAAAAAAAAAAAAAAAAAAAAAAAAAAAAAAAAAAAAAAAAAAAAAAAAAAAAAAAAAAAAAAAAAAAAAAAAAAAAAAAAAAAAAAAAAAAAAAAAAAAAAAAAAAAAAAAAAAAAAAAAAAAAAAAAAAAAAAAAAAAAAAAAAAAAAAAAAAAAAAAAAAAAAAAAAAAAAAAAAAAAAAAAAAAAAAAAAAAAAAAAAAAAAAAAAAAAAAAAAAAAAAAAAAAAAAAAAAAAAAAAAAAAAAAAAAAAAAAAAAAAAAAAAAAAAAAAAAAAAAAAAAAAAAAAAAAAAAAAAAAAAAAAAAAAAAAAAAAAAAAAAAAAAAAAAAAAAAAAAAAAAAAAAAAAAAAAAAAAAAAAAAAAAAAAAAAAAAAAAAAAAAAAAAAAAAAAAAAAAAAAAAAAAAAAAAAAAAAAAAAAAAAAAAAAAAAAAAAAAAAAAAAAAAAAAAAAAAAAAAAAAAAAAAAAAAAAAAAAAAAAAAAAAAAAAAAAAAAAAAAAAAAAAAAAAAAAAAAAAAAAAAAAAAAAAAAAAAAAAAAAAAAAAAAAAAAAAAAAAAAAAAAAAAAAAAAAAAAAEFkcmlhYW5zZSwgSi4gKEpvb3N0KQAABZADAAIAAAAUAAAQrpAEAAIAAAAUAAAQwpKRAAIAAAADODUAAJKSAAIAAAADODUAAOocAAcAAAgMAAAIogAAAAAc6gAAAAgAAAAAAAAAAAAAAAAAAAAAAAAAAAAAAAAAAAAAAAAAAAAAAAAAAAAAAAAAAAAAAAAAAAAAAAAAAAAAAAAAAAAAAAAAAAAAAAAAAAAAAAAAAAAAAAAAAAAAAAAAAAAAAAAAAAAAAAAAAAAAAAAAAAAAAAAAAAAAAAAAAAAAAAAAAAAAAAAAAAAAAAAAAAAAAAAAAAAAAAAAAAAAAAAAAAAAAAAAAAAAAAAAAAAAAAAAAAAAAAAAAAAAAAAAAAAAAAAAAAAAAAAAAAAAAAAAAAAAAAAAAAAAAAAAAAAAAAAAAAAAAAAAAAAAAAAAAAAAAAAAAAAAAAAAAAAAAAAAAAAAAAAAAAAAAAAAAAAAAAAAAAAAAAAAAAAAAAAAAAAAAAAAAAAAAAAAAAAAAAAAAAAAAAAAAAAAAAAAAAAAAAAAAAAAAAAAAAAAAAAAAAAAAAAAAAAAAAAAAAAAAAAAAAAAAAAAAAAAAAAAAAAAAAAAAAAAAAAAAAAAAAAAAAAAAAAAAAAAAAAAAAAAAAAAAAAAAAAAAAAAAAAAAAAAAAAAAAAAAAAAAAAAAAAAAAAAAAAAAAAAAAAAAAAAAAAAAAAAAAAAAAAAAAAAAAAAAAAAAAAAAAAAAAAAAAAAAAAAAAAAAAAAAAAAAAAAAAAAAAAAAAAAAAAAAAAAAAAAAAAAAAAAAAAAAAAAAAAAAAAAAAAAAAAAAAAAAAAAAAAAAAAAAAAAAAAAAAAAAAAAAAAAAAAAAAAAAAAAAAAAAAAAAAAAAAAAAAAAAAAAAAAAAAAAAAAAAAAAAAAAAAAAAAAAAAAAAAAAAAAAAAAAAAAAAAAAAAAAAAAAAAAAAAAAAAAAAAAAAAAAAAAAAAAAAAAAAAAAAAAAAAAAAAAAAAAAAAAAAAAAAAAAAAAAAAAAAAAAAAAAAAAAAAAAAAAAAAAAAAAAAAAAAAAAAAAAAAAAAAAAAAAAAAAAAAAAAAAAAAAAAAAAAAAAAAAAAAAAAAAAAAAAAAAAAAAAAAAAAAAAAAAAAAAAAAAAAAAAAAAAAAAAAAAAAAAAAAAAAAAAAAAAAAAAAAAAAAAAAAAAAAAAAAAAAAAAAAAAAAAAAAAAAAAAAAAAAAAAAAAAAAAAAAAAAAAAAAAAAAAAAAAAAAAAAAAAAAAAAAAAAAAAAAAAAAAAAAAAAAAAAAAAAAAAAAAAAAAAAAAAAAAAAAAAAAAAAAAAAAAAAAAAAAAAAAAAAAAAAAAAAAAAAAAAAAAAAAAAAAAAAAAAAAAAAAAAAAAAAAAAAAAAAAAAAAAAAAAAAAAAAAAAAAAAAAAAAAAAAAAAAAAAAAAAAAAAAAAAAAAAAAAAAAAAAAAAAAAAAAAAAAAAAAAAAAAAAAAAAAAAAAAAAAAAAAAAAAAAAAAAAAAAAAAAAAAAAAAAAAAAAAAAAAAAAAAAAAAAAAAAAAAAAAAAAAAAAAAAAAAAAAAAAAAAAAAAAAAAAAAAAAAAAAAAAAAAAAAAAAAAAAAAAAAAAAAAAAAAAAAAAAAAAAAAAAAAAAAAAAAAAAAAAAAAAAAAAAAAAAAAAAAAAAAAAAAAAAAAAAAAAAAAAAAAAAAAAAAAAAAAAAAAAAAAAAAAAAAAAAAAAAAAAAAAAAAAAAAAAAAAAAAAAAAAAAAAAAAAAAAAAAAAAAAAAAAAAAAAAAAAAAAAAAAAAAAAAAAAAAAAAAAAAAAAAAAAAAAAAAAAAAAAAAAAAAAAAAAAAAAAAAAAAAAAAAAAAAAAAAAAAAAAAAAAAAAAAAAAAAAAAAAAAAAAAAAAAAAAAAAAAAAAAAAAAAAAAAAAAAAAAAAAAAAAAAAAAAAAAAAAAAAAAAAAAAAAAAAAAAAAAAAAAAAAAAAAAAAAAAAAAAAAAAAAAAAAAAAAAAAAAAAAAAAAAAAAAAAAAAAAAAAAAAAAAAAAAAAAAAAAAAAAAAAAAAAAAAAAAAAAAAAAAAAAAAAAAAAAAAAAAAAAAAAAAAAAAAAAAAAAAAAAAAAAAAAAAAAAAAAAAAAAAAAAAAAAAAAAAAAAAAAAAAAAAAAAAAAAAAAAAAAAAAAAAAAAAAAAAAAAAAAAAAAAAAAAAAAAAAAAAAAAAAAAAAAAAAAAAAAAAAAAAAAAAAAAAAAAAAAAAAAAAAAAAAAAAAAAAAAAAAAAAAAAAAAAAAAAAAAAAAAAAAAAAAAAAAAAAAAAAAAAAAAAAAAAAAAAAAAAAAAAAAAAAAAAAAAAAAAAAAAAAAAAAAAAAAAAAAAAAAAAAAAAAAAAAAAAAAAAAAAAAAAAAAAAAAAAAAAAAAAAAAAAAAAAAAAAAAAAAAAAAAAAAAAAAAAAAAAAAAAAAAAAAAAAAAAAAAAAAAAAAAAAAAAAAAAAAAAAAAAAAAAAAAAAAAAAAAAAAAAAAAAAAAAAAAAAAAAAAAAAAAAAAAAAAAAAAAAAAAAAAAAAAAAAAAAAAAAAAAAAAAAAAAAAAAAAAAAAAAAAAAAAAAAAAAAAAAAAAAAAAAAAAAAAAAAAAAAAAAAAAAAAAAAAAAAAAAAAAAAAAAAAAAAAAAAAAAAAAAAAAAAAAAAAAAAAAAAAAAAAAAAAAAAAAAAAAAAAAAAAAAAAAAAAAAAAAAAAAAAAAAAAAAAAAAAAAAAAAAAAAAAAAAAAAAAAAAAAAAAAAAAAAAAAAAAAAAAAAAAAAAAAAAAAAAAAAAAAAAAAAAAAAAAAAAAAAAAAAAAAAAAAAAAAAAAAADIwMjE6MTA6MjcgMTg6NTY6MzEAMjAyMToxMDoyNyAxODo1NjozMQAAAEEAZAByAGkAYQBhAG4AcwBlACwAIABKAC4AIAAoAEoAbwBvAHMAdAApAAAA/+ELKGh0dHA6Ly9ucy5hZG9iZS5jb20veGFwLzEuMC8APD94cGFja2V0IGJlZ2luPSfvu78nIGlkPSdXNU0wTXBDZWhpSHpyZVN6TlRjemtjOWQnPz4NCjx4OnhtcG1ldGEgeG1sbnM6eD0iYWRvYmU6bnM6bWV0YS8iPjxyZGY6UkRGIHhtbG5zOnJkZj0iaHR0cDovL3d3dy53My5vcmcvMTk5OS8wMi8yMi1yZGYtc3ludGF4LW5zIyI+PHJkZjpEZXNjcmlwdGlvbiByZGY6YWJvdXQ9InV1aWQ6ZmFmNWJkZDUtYmEzZC0xMWRhLWFkMzEtZDMzZDc1MTgyZjFiIiB4bWxuczpkYz0iaHR0cDovL3B1cmwub3JnL2RjL2VsZW1lbnRzLzEuMS8iLz48cmRmOkRlc2NyaXB0aW9uIHJkZjphYm91dD0idXVpZDpmYWY1YmRkNS1iYTNkLTExZGEtYWQzMS1kMzNkNzUxODJmMWIiIHhtbG5zOnhtcD0iaHR0cDovL25zLmFkb2JlLmNvbS94YXAvMS4wLyI+PHhtcDpDcmVhdGVEYXRlPjIwMjEtMTAtMjdUMTg6NTY6MzEuODQ4PC94bXA6Q3JlYXRlRGF0ZT48L3JkZjpEZXNjcmlwdGlvbj48cmRmOkRlc2NyaXB0aW9uIHJkZjphYm91dD0idXVpZDpmYWY1YmRkNS1iYTNkLTExZGEtYWQzMS1kMzNkNzUxODJmMWIiIHhtbG5zOmRjPSJodHRwOi8vcHVybC5vcmcvZGMvZWxlbWVudHMvMS4xLyI+PGRjOmNyZWF0b3I+PHJkZjpTZXEgeG1sbnM6cmRmPSJodHRwOi8vd3d3LnczLm9yZy8xOTk5LzAyLzIyLXJkZi1zeW50YXgtbnMjIj48cmRmOmxpPkFkcmlhYW5zZSwgSi4gKEpvb3N0KTwvcmRmOmxpPjwvcmRmOlNlcT4NCgkJCTwvZGM6Y3JlYXRvcj48L3JkZjpEZXNjcmlwdGlvbj48L3JkZjpSREY+PC94OnhtcG1ldGE+DQogICAgICAgICAgICAgICAgICAgICAgICAgICAgICAgICAgICAgICAgICAgICAgICAgICAgICAgICAgICAgICAgICAgICAgICAgICAgICAgICAgICAgICAgICAgICAgICAgICAgCiAgICAgICAgICAgICAgICAgICAgICAgICAgICAgICAgICAgICAgICAgICAgICAgICAgICAgICAgICAgICAgICAgICAgICAgICAgICAgICAgICAgICAgICAgICAgICAgICAgICAKICAgICAgICAgICAgICAgICAgICAgICAgICAgICAgICAgICAgICAgICAgICAgICAgICAgICAgICAgICAgICAgICAgICAgICAgICAgICAgICAgICAgICAgICAgICAgICAgICAgIAogICAgICAgICAgICAgICAgICAgICAgICAgICAgICAgICAgICAgICAgICAgICAgICAgICAgICAgICAgICAgICAgICAgICAgICAgICAgICAgICAgICAgICAgICAgICAgICAgICAgCiAgICAgICAgICAgICAgICAgICAgICAgICAgICAgICAgICAgICAgICAgICAgICAgICAgICAgICAgICAgICAgICAgICAgICAgICAgICAgICAgICAgICAgICAgICAgICAgICAgICAKICAgICAgICAgICAgICAgICAgICAgICAgICAgICAgICAgICAgICAgICAgICAgICAgICAgICAgICAgICAgICAgICAgICAgICAgICAgICAgICAgICAgICAgICAgICAgICAgICAgIAogICAgICAgICAgICAgICAgICAgICAgICAgICAgICAgICAgICAgICAgICAgICAgICAgICAgICAgICAgICAgICAgICAgICAgICAgICAgICAgICAgICAgICAgICAgICAgICAgICAgCiAgICAgICAgICAgICAgICAgICAgICAgICAgICAgICAgICAgICAgICAgICAgICAgICAgICAgICAgICAgICAgICAgICAgICAgICAgICAgICAgICAgICAgICAgICAgICAgICAgICAKICAgICAgICAgICAgICAgICAgICAgICAgICAgICAgICAgICAgICAgICAgICAgICAgICAgICAgICAgICAgICAgICAgICAgICAgICAgICAgICAgICAgICAgICAgICAgICAgICAgIAogICAgICAgICAgICAgICAgICAgICAgICAgICAgICAgICAgICAgICAgICAgICAgICAgICAgICAgICAgICAgICAgICAgICAgICAgICAgICAgICAgICAgICAgICAgICAgICAgICAgCiAgICAgICAgICAgICAgICAgICAgICAgICAgICAgICAgICAgICAgICAgICAgICAgICAgICAgICAgICAgICAgICAgICAgICAgICAgICAgICAgICAgICAgICAgICAgICAgICAgICAKICAgICAgICAgICAgICAgICAgICAgICAgICAgICAgICAgICAgICAgICAgICAgICAgICAgICAgICAgICAgICAgICAgICAgICAgICAgICAgICAgICAgICAgICAgICAgICAgICAgIAogICAgICAgICAgICAgICAgICAgICAgICAgICAgICAgICAgICAgICAgICAgICAgICAgICAgICAgICAgICAgICAgICAgICAgICAgICAgICAgICAgICAgICAgICAgICAgICAgICAgCiAgICAgICAgICAgICAgICAgICAgICAgICAgICAgICAgICAgICAgICAgICAgICAgICAgICAgICAgICAgICAgICAgICAgICAgICAgICAgICAgICAgICAgICAgICAgICAgICAgICAKICAgICAgICAgICAgICAgICAgICAgICAgICAgICAgICAgICAgICAgICAgICAgICAgICAgICAgICAgICAgICAgICAgICAgICAgICAgICAgICAgICAgICAgICAgICAgICAgICAgIAogICAgICAgICAgICAgICAgICAgICAgICAgICAgICAgICAgICAgICAgICAgICAgICAgICAgICAgICAgICAgICAgICAgICAgICAgICAgICAgICAgICAgICAgICAgICAgICAgICAgCiAgICAgICAgICAgICAgICAgICAgICAgICAgICAgICAgICAgICAgICAgICAgICAgICAgICAgICAgICAgICAgICAgICAgICAgICAgICAgICAgICAgICAgICAgICAgICAgICAgICAKICAgICAgICAgICAgICAgICAgICAgICAgICAgICAgICAgICAgICAgICAgICAgICAgICAgICAgICAgICAgICAgICAgICAgICAgICAgICAgICAgICAgICAgICAgICAgICAgICAgIAogICAgICAgICAgICAgICAgICAgICAgICAgICAgICAgICAgICAgICAgICAgICAgICAgICAgICAgICAgICAgICAgICAgICAgICAgICAgICAgICAgICAgICAgICAgICAgICAgICAgCiAgICAgICAgICAgICAgICAgICAgICAgICAgICAgICAgICAgICAgICAgICAgICAgICAgICAgICAgICAgICAgICAgICAgICAgICAgICAgICAgICAgICAgICAgICAgICAgICAgICAKICAgICAgICAgICAgICAgICAgICAgICAgICAgIDw/eHBhY2tldCBlbmQ9J3cnPz7/2wBDAAcFBQYFBAcGBQYIBwcIChELCgkJChUPEAwRGBUaGRgVGBcbHichGx0lHRcYIi4iJSgpKywrGiAvMy8qMicqKyr/2wBDAQcICAoJChQLCxQqHBgcKioqKioqKioqKioqKioqKioqKioqKioqKioqKioqKioqKioqKioqKioqKioqKioqKir/wAARCAJfAdsDASIAAhEBAxEB/8QAHwAAAQUBAQEBAQEAAAAAAAAAAAECAwQFBgcICQoL/8QAtRAAAgEDAwIEAwUFBAQAAAF9AQIDAAQRBRIhMUEGE1FhByJxFDKBkaEII0KxwRVS0fAkM2JyggkKFhcYGRolJicoKSo0NTY3ODk6Q0RFRkdISUpTVFVWV1hZWmNkZWZnaGlqc3R1dnd4eXqDhIWGh4iJipKTlJWWl5iZmqKjpKWmp6ipqrKztLW2t7i5usLDxMXGx8jJytLT1NXW19jZ2uHi4+Tl5ufo6erx8vP09fb3+Pn6/8QAHwEAAwEBAQEBAQEBAQAAAAAAAAECAwQFBgcICQoL/8QAtREAAgECBAQDBAcFBAQAAQJ3AAECAxEEBSExBhJBUQdhcRMiMoEIFEKRobHBCSMzUvAVYnLRChYkNOEl8RcYGRomJygpKjU2Nzg5OkNERUZHSElKU1RVVldYWVpjZGVmZ2hpanN0dXZ3eHl6goOEhYaHiImKkpOUlZaXmJmaoqOkpaanqKmqsrO0tba3uLm6wsPExcbHyMnK0tPU1dbX2Nna4uPk5ebn6Onq8vP09fb3+Pn6/9oADAMBAAIRAxEAPwD6RooooAKKKKACiiigAooooAKKKKACiiigAooooAKKKKACiiigAooooAKKKKACiiigAooooAKKKKACiiigAooooAKKKKACiiigAooooAKKKKACiiigAooooAKKKKACiiigAooooAKKKKACiiigAooooAKKKKACiiigAooooAKKKKACiiigAooooAKKKKACiiigAooooAKKKKACiiigAooooAKKKKACiqGoa1pmkxmTU7+3tE9ZpQv865LUfjR4H04kHWUuGHa3Uv8A0oA7yivHrv8AaQ8Lwlvs1jqE+OmEVQfzNZcv7Tmn5/ceHrtgP70yCgD3WivBf+Gnbb/oWrj/AMCF/wAKP+Gnbb/oWrj/AMCV/wAKAPeqK8F/4adtv+hauP8AwJX/AAo/4adtv+hauP8AwJX/AAoA96orwX/hp22/6Fq4/wDAlf8ACj/hp22/6Fq4/wDAlf8ACgD3qivBf+Gnbb/oWrj/AMCV/wAKB+05an/mW7j/AMCV/wAKAPeqK8Og/aZ0on/SdBvV/wByVG/wrXsv2i/CNyQLiG+tc95Iwf5E0AetUVxmm/FnwTquBb6/bI5/gmJQ/qK6y1vLe9hEtpPHNG3Ro3DA/iKAJ6KKKACiiigAooooAKKKKACiiigAooooAKKKKACiiigAooooAKKKKACiiigAooooAKKKKACiiigAooooAKKKKACiiigAooooAKKKKACiiq97fWunWr3N9PHbwxjLSSMFAH1NAFiqOqavp+jWbXWq3sFpAn3pJpAo/M14t44/aGgtmksvBsIuXGQb6VcID/sr1P1PFeGa34k1fxHeG51q+mu5CeN7fKv0HQUDsfQfif8AaL0SwZ4fDdrJqUq8ebIPLj/Dua8o8QfGvxprm6NNS/s63brHZrsP/fX3vyIrz+igCW5ubi8nM1zPJM56tI5Yn8TzUVFFAwooooAKKKKACiiigAooooAKKKKACiiigA6Vd0/WdT0icTaVqFzZyA5DQSsn8qpUUAepaB8f/Fuk7E1Mw6tCOD5w2P8AmvH5ivXPC3x58K680cF/K2k3LEDFyf3ZP+/0H44r5RoPTigR99QzxXMSywSLJGwyrI2QR9akzXxR4V+IfiPwfMp0i/cQA5NtKd8Z/wCAnp+GK+gvAnxz0TxO0VnrONK1FuAJG/dSH/ZbsfY/rQB6rRSK6uoZCGUjII70uaBBRRRQAUUUUAFFFFABRRRQAUUUUAFFFFABRRRQAUUUUAFFFFABRRRQAUUUUAFFFFABRRRQAUUUUAFFFFABSZoJxXlPxV+Mdr4RjfStFaO51hl+Y9Uts92/2vb86AOl8d/ErRfAtiWvZPPvXGYbSM/M3ufQe9fLnjT4i6744vWk1S4KWoP7qziJEaD6dz7msDUtSvNW1Ca+1K4e5uZm3PJIckmqtAwooooGFFFFABRRRQAUUUUAFFFFABRRRQAUUUUAFFFFABRRRQAUUUUAFFFFABR2opaAPSvh78adY8ISR2WqPJqWk5A8t2zJCP8AYJ7ex4+lfTfhzxPpPinSY9Q0a7SeJuoHDIfRh2NfDNb3hHxjq3gzWEv9HnKDpLC3KSr6MP60CPuAHNFcf4A+Iel+OtHE1m4jvIgPtFqx+aM+3qPQ114OaBC0UUUAFFFFABRRRQAUUUUAFFFFABRRRQAUUUUAFFFFABRRRQAUUUUAFFFFABRRRQAUUUUAFITilJxXnPxb+JUXgfQ/s9i6vq92pWBD/wAsx0Lke3b3oAxvjD8W08M276LoEofVpVxJKPu2y/8AxR7CvmOWWS4mead2klkYs7ucliepNLdXU97dyXN3K008rFpHc5LE9aZQMMUlLSUDCiiigAoopQCzAAEknAA70AJRXd+Gfg94u8S7ZItPNlbNyJ7v5Mj1A6n8q9R0P9mrTIVV/EOsXF03eO1AjX8zkn9KAPnOlGSeBX2Jpvwf8D6bt8vQLeZl/iuMyE/99Gt+Dwf4cthiDQ7CP/dt1/woFc+Hdjf3W/75o2N6N/3zX3V/wj2j/wDQLs/+/K/4Uf8ACPaP/wBAuz/78r/hQFz4V2N6N/3zRsb0b/vmvur/AIR7R/8AoF2f/flf8KP+Ee0f/oF2f/flf8KAufCuxvRv++aNjejf98191f8ACPaP/wBAuz/78r/hR/wj2j/9Auz/AO/K/wCFAXPhXY3o3/fNGxv7p/Kvur/hHtH/AOgXZ/8Aflf8KD4d0cjB0uzI/wCuK/4UBc+FKTNfcFz4H8L3Y/0nQNPk/wB63X/Cua1X4IeBtTU40r7G5/itJCmPw5H6UBc+RKK96179ml1DyeG9a3jqIb1eT7blH9K8p8S/D7xN4VZm1fTJkgHS4Qb4z+I/rQFzm6KMYooGFFFFABQaKKANLQdf1DwzrMOp6TO0NxEeoPDDureoNfXHw6+Ilh480ITW5EN/CAt1bE8o3qPVT2NfGtbPhbxRqHhHXoNV0qTbJE3zofuyJ3U+xoFY+5aKwPB/iyx8ZeHYNV01uHGJIyfmifuprfFAgooooAKKKKACiiigAooooAKKKKACiiigAooooAKKKKACiiigAooooAKKKKACiikY/KecUAY3i3xLZ+E/DV1q9+3yQLlUB5kbso9zXxh4m8RXvirxBc6tqUm6adsgA8IvZR7Cu/8Ajl49PiXxQdIsJc6bprFMqeJZf4j9B0H415UKBi4ooooGFFFFABRShWZgqAkk4AHrXu/wt+Bv2mOHWvGUJCn5obBuCR2Z/wD4n86AOA8C/CjX/G7rPBEbPTc4a8mHDf7g/i/l719F+DvhN4a8HKktvaC7vgObu4G5wfbsv4c+9drbW8VrbpDbxrFEgwiIMBR6AVLQSIAABgYpaKKACiiigAooooAKKKKACiiigAooooAKKKKACo5okmjKSIrqwwVYZzUlFAHk/jb4D6B4hWS60Nf7Jvjk4iH7pz7r2/CvnbxV4L1vwZqP2XXLRocn93OOY5B6huh+nWvuGs3XNB07xHpslhrFrHc28g5VxyD6g9QfegZ8Jg8UV6V8T/hDe+CJ2v8ATA93o7tw4GWg/wBlv6H+Vea0DCiiigAoxRRQB3fwo+IM3gbxMn2gs+l3bBLmPOdvo4HqP5V9f288VzbxzQOskcihkZTwwPevgWvo/wDZ+8e/2jpz+F9TmLXVou+0Zj9+Puv1B/T6UCPb6KAciigQUUUUAFFFFABRRRQAUUUUAFFFFABRRRQAUUUUAFFFFABRRRQAUUUUAFcF8XfGI8IeBriWB9l7d5t7bnncRyfwGa72vkz46eKz4i8fyWcMhNppYMCAHgv1dvz4/CgDzVmLsWY5JOSfWkoooKCiiigApcZ6UlewfA34bDxFqY8Q6xFnTrR8QRsOJ5B3/wB0fzoA6f4M/CFbWOHxJ4lgBuGAe0tZB/qx1DsPX0HavdVXaKFQJwOAOgFOoJCiiigAooooAKKKKACiiigAooooAKKKKACiiigAooooAKKKKACiiigCC6s4b22kt7qNZYZFKujDIYehr5a+L3wpk8G37aro8bSaNcP0HJtmPY/7Pofwr6sqlqml2usaZPYahEJradCjow6g0DPg/sPekrrviP4GuvAvimWykDPZzZktZj/GnofcdD/9euRoGFFFFABWl4d1q68OeIbPVrFiJraQOAD94dx+NZtH1oA+7dB1e217QrPVLFw8F1EsikH1HT+laNeD/s4eLDNZXvhm6kJaE/aLUHsp+8Pz5/GvdxQIWiiigQUUUUAFFFFABRRRQAUUUUAFFFFABRRRQAUUUUAFFFFABRRRQBheM9ej8M+DdT1aU4+zwMU93PCj8SRXxFPPJc3Mk0zFpJWLux7knk19G/tJ699n8OadosT4a7nMso/2E6f+PH9K+be9A0LRRRQMKKKKANjwn4dufFfiiy0eyGXuJMM3aNByzH6AGvtXQ9FtNA0a10zT4xHb2yBEA7+59z1ryD9nTwiLTR7rxLdx/vrs+TASOkankj6n+Ve4UCCiiigQUUUUAFFFFABRRRQAUUUUAFFFFABRRRQAUUUUAFFFFABRRRQAUUUUAFFFFAHE/FPwRH418G3FvEi/b7cGW1c/3gPu59D0r46lieGV4pVKSIxVlYYII4IPvX30eRXyr8evCI0Dxt/adtHttdUBk4HAlH3/AM8g/jQM8sooooGFFFFAHS/D7xEfC3jvTNTLFYVlEc//AFzY4b8hz+Ffa8biSNXGCGGQRXwGTgV9m/CnXT4g+G2lXTtulii+zyn/AGk+X+gNAjsaKKKBBRRRQAUUUUAFFFFABRRRQAUUUUAFFFFABRRRQAUUUUAFFFIzbVJNAHyl+0Bqp1D4mSWytmOygSPHoSMn+Yry7vXQePNROq/EDW7vdlXvZFX/AHVYgfoBWBQUFFFFABVnTrCbVNUtbC1XdNdTLDGPUsQB/Oq1ei/A7Rhq/wAT7N5BlLNHuDx0IGB+p/SgD6m8P6RDoPh+x0u1GIrSFYl98DGfx61p0UUEhRRRQAUUUUAFFFFABRRRQAUUUUAFFFFABRRRQAUUUUAFFFFABRRRQAUUUUAFFFFABXnnxu8Nf8JD8N7t4o991p5+1RYHOB98f985/KvQ6gvLdLuxmt5QGSVCjA9wRQB8EZ/Kir+u6c2keIL/AE9+trcPF+RwKoUFBRRRQAV9Gfs06sZdE1bSmP8Ax7yrMo9mGD+q185163+zpqP2b4hXFmTgXlmwx6lSD/LNAM+o6KQUtBIUUUUAFFFFABRRRQAUUUUAFFFFABRRRQAUUUUAFFFFABVe/mFtp9xO3AijZ/yGasVj+LpPJ8Fa1IOCthOR9fLagD4cnlNxdSTN1kcufxOaZSDnFLQUFFFFABXvH7M2nh77W9QK/wCrSOEH65P9K8Hr6T/ZogCeFNXnI5kvVUH6IP8AGgGe10UUUEhRRRQAUUUUAFFFFABRRRQAUUUUAFFFFABRRRQAUUUUAFFFFABRRRQAUUUUAFFFFABQaKKAPjz4z6f/AGf8VtWAGFnZZh/wJQf55rhK9X/aKg8r4lRP/wA9bGNv/HmH9K8ooKCiiigAruPg3efYvi3ob5xvkeIj13RsK4eul+Hcvk/EjQHHa+iH5sB/WgD7ZHSikFLQSFFFFABRRRQAUUUUAFFFFABRRRQAUUUUAFFFFABRRRQAVh+Nv+RC17/sHT/+i2rcrD8bf8iFr3/YOn/9FtQB8OjoPpRQOgooKCiiigAr6b/ZuH/FBX5/6fz/AOgJXzJX05+zd/yIV/8A9f7f+gJQDPYRS0UUEhRRRQAUUUUAFFFFABRRRQAUUUUAFFFFABRRRQAUUUUAFFFFABRRRQAUUUUAFFFFABRRQaAPmH9pH/koFh76cv8A6MevH69g/aT4+IGn/wDYOX/0Y9eP0FBRRRQAVveB/wDkftC/6/4f/QxWDW94G/5H7Qv+v+H/ANDFAH2/S0CigkKKKKACiiigAooooAKKKKACiiigAooooAKKKKACiiigArD8bf8AIha9/wBg6f8A9FtW5WH42/5ELXv+wdP/AOi2oA+HR0FFA6CigoKKKKACvpz9m7/kQr//AK/2/wDQFr5jr6c/Zu/5EK//AOv9v/QFoBnsVFFFBIUUUUAFFFFABRRRQAUUUUAFFFFABRRRQAUUUUAFFFFABRRRQAUUUUAFFFFABRRRQAUGiigD5h/aT/5KBp//AGDl/wDRj14+K9g/aS/5KBp//YOX/wBGPXj4oKCiiigAre8Df8j9oX/X/D/6GKwa3vA3/I/aF/1/w/8AoYoA+4B0ooHSigkKKKKACiiigAooooAKKKKACiiigAooooAKKKKACiiigArD8bf8iFr3/YOn/wDRbVuVh+Nv+RC17/sHT/8AotqAPh0dBRQOgooKCiiigAr6c/Zu/wCRCv8A/r/b/wBAWvmOvpz9m7/kQr//AK/2/wDQFoBnsVFFFBIUUUUAFFFFABRRRQAUUUUAFFFFABRRRQAUUUUAFFFFABRRRQAUUUUAFFFFABRRRQAUUUGgD5h/aS/5KBp//YOX/wBGPXj4r2D9pP8A5KBp/wD2Dl/9GPXj4oKCiiigAre8Df8AI/aF/wBf8P8A6GKwa3vA3/I/aF/1/wAP/oYoA+4B0ooHSigkKKKKACiiigAooooAKKKKACiiigAooooAKKKKACiiigArD8bf8iFr3/YOn/8ARbVuVh+Nv+RC17/sHT/+i2oA+HR0FFA6CigoKKKKACvpz9m7/kQr/wD6/wBv/QFr5jr6c/Zu/wCRCv8A/r/b/wBAWgGexUUUUEhRRRQAUUUUAFFFFABRRRQAUUUUAFFFFABRRRQAUUUUAFFFFABRRRQAUUUUAFFFFABRRRQB8w/tJf8AJQNP/wCwcv8A6MevHxXsH7SX/JQNP/7By/8Aox68fFBQUUUUAFb3gb/kftC/6/4f/QxWDW94G/5H7Qv+v+H/ANDFAH3AOlFA6UUEhRRRQAUUUUAFFFFABRRRQAUUUUAFFFFABRRRQAUUUE460AFYfjb/AJELXv8AsHT/APotq29w9a5H4geJNFsvBes291qlrHNLYzIkZlG5mKEAYoA+MB0FFFFBQUUUUAFfTn7N3/IhX/8A1/t/6AtfMde3/Bf4l+GvBvhS7sdevZIJ5bsyKqwO/wAu1RnIB9KAPo+ivNv+F9eAv+gpN/4CSf8AxNH/AAvrwF/0FJv/AAEk/wAKCT0mivNv+F9eAv8AoKTf+Akn+FH/AAvrwF/0FJv/AAEk/wAKAPSaK82/4X14C/6Ck3/gJJ/hR/wvrwF/0FJv/AST/CgD0mivNv8AhfXgL/oKTf8AgJJ/hR/wvrwF/wBBSb/wEk/woA9Jorzb/hfXgL/oKTf+Akn+FH/C+vAX/QUm/wDAST/CgD0mivNv+F9eAv8AoKTf+Akn+FH/AAvrwF/0FJv/AAEk/wAKAPSaK82/4X14C/6Ck3/gJJ/hR/wvrwF/0FJv/AST/CgD0mivNv8AhfXgL/oKTf8AgJJ/hR/wvrwF/wBBSb/wEk/woA9Jorzb/hfXgL/oKTf+Akn+FH/C+vAX/QUm/wDAST/CgD0mivNv+F9eAv8AoKTf+Akn+FH/AAvrwF/0FJv/AAEk/wAKAPSaK82/4X14C/6Ck3/gJJ/hR/wvrwF/0FJv/AST/CgD0mivNv8AhfXgL/oKTf8AgJJ/hR/wvrwF/wBBSb/wEk/woA9Jorzb/hfXgL/oKTf+Akn+FH/C+vAX/QUm/wDAST/CgD0mivNv+F9eAv8AoKTf+Akn+FH/AAvrwF/0FJv/AAEk/wAKBnlX7SX/ACUDT/8AsHL/AOjHrx8V6L8aPF2keMvF1pf6DO09vHZrEzNGyYYOxxg+xFedUDCiiigAre8Df8j9oX/X/D/6GKwa2fCN1DY+MtIuruQRQQ3kTyO3RVDgk/lQB9yjpRWRpfinQ9ZUf2Xq1pc56COYE/lWsCD3oJFooooAKKKKACiiigAooooAKKKKACiiigAoopCcdaAFJxXAePPi3oHgpXt3c32ogcWkBGV/3j/DXE/Fz40nTpp/D/hG4H2lcpcXqc+We6ofUdz2PvXzzLLJNK0kzs7sSWZjkk0Dsd14p+MvizxPLIovTp1ox4t7Q7Mj/abqa4OSSSWQvK5kdvvM5yTSYoxQMPrzRRRQAUUUUAFLSUUALRxSUUALxRxSUUALxRxSUUALxRxSUUALxRxSUUALxRxSUUALxRxSUUALxRxSUUALxRxSUUALxRxSUUALxRxSUUALxRxSUUALxRxSUUALxRxSUUALSUUUAFFFFABSikpaAHwzSW8gkgkeOQdGQ4P513/hT40eK/DUiJNdHVLMHmC6Ykgf7LdR+o9q89zRmgD7F8DfFXQPG6LDbS/Zb/GWtJyAx/3T/EK7fNfA0E8ttOk1vI0cqNuR0O0qfUEdK+jvhF8ZhrckOgeKJAt+flgujwJ8dj6N/OgR7ZRSA56UtAgooooAKKKKACiiigAooooAK8m+N3xIPhbRxouky41S+Q7mU8wRdN31PQfjXp+p38OmaZcXt04SG3iaV2PYKMmviPxZ4iuPFXii91e6YlriQlR/cX+EflQNGQzM7lmJJJySe9JRRQMKKKKACiiigAooooAKKKKACiiigAooooAKKKKACiiigAooooAKKKKACiiigAooooAKKKKACiiigAooooAKKKKACiiigAooooAKKKKACiiigAooooAKKKKACnJI8MiyRMUdCCrKcEEd6bRQB9X/AAW+Ix8Y+HzYanIP7WsAFc/89k7OP5H3+ten18Q+CPFE3hDxdZ6tCzeXG4WdAfvxk/MPy5r7Ys7qO9s4bmBw8UyB0cfxKRkGgRNRRRQIKKKKACiiigAoooNAHlX7QWutpXw5axibbJqcwhz/ALC/M38gPxr5V717x+03dsb/AESzz8qxySY9yQP6V4RQMKKKKBhRRRQAUUUUAFFFFABRRRQAUUUUAFFFFABRRRQAUUUUAFFFFABRRRQAUUUUAFFFFABRRRQAUUUUAFFFFABRRRQAUUUUAFFFFABRRRQAUUUUAFFFFABRRRQAUUUUAA4r62+BOuNrHwytY5W3S2LtbHP90fd/Qj8q+Sa+hP2ZLxms9csyTtjeOQD0JyP6UCZ71RQKKBBRRRQAUUUUAFBooNAHzZ+0t/yNWlf9ep/9CrxSva/2lf8AkatK/wCvU/8AoVeKUFBRRRQAUUUUAFFFFABRRRQAUUUUAFFFFABRRRQAUUUUAFFFFABRRRQAUUUUAFFFFABRRRQAUUUUAFFFFABRRRQAUUUUAFFFFABRRRQAUUUUAFFFFABRRRQAUUUUAFFFFABXvP7MZ/03xB/1zh/m1eDV7x+zH/x/+If+ucP82oA+hhRQKKCQooooAKKKKACg0UGgD5s/aV/5GrSv+vU/+hV4pXtf7Sv/ACNWlf8AXqf/AEKvFKCgooooAKKKKACiiigAooooAKKKKACiiigAooooAKKKKACiiigAooooAKKKfFFJPMsUKNJI5wqqMkn2oAZRXdaH8HvGeuKskWlPaxMMh7o7Bj6df0rsrP8AZn1mRVa91yzhz1WONnx/KgDxOive2/ZjmC/L4kTd6G1OP/QqytQ/Zt8QwKW0/VLG6x/CQ0ZP8xQK54zRXVa98M/Fvhze+o6NcGBes0Q8xPzFcr9RigYUUUUAFFFFABRRRQAUUUUAFFFFABRRRQAUUUUAFFFFABRRRQAUUUUABr3j9mP/AI/vEP8A1zh/m1eDmveP2Y/+P7xB/wBc4f5tQB9DCigUUEhRRRQAUUUUAFBooNAHzZ+0r/yNWlf9ep/9CrxSva/2lf8AkatK/wCvU/8AoVeKUFBRRRQAUUUUAFFFFABRRRQAUUUUAFFFFABRRRQAUUUUAFFFFAC0nY/pQa9q+DvwgGueX4h8Swn7Crbra1YY84/3m/2fQd6AOb+Hvwc1nxqI726DadpJPFw6/NKP9hf619G+FPhz4c8H24XSbBPtBGHupRvlb/gR6D2HFdPDEkESxxIsaKMKqjAA+lSUCuIBgUtFFAgooooAayhuoB+orz/xn8HfDXi1ZJ1tRp+oMP8Aj6tlA3H/AGl6H69fevQqKAPivxv8PNb8C3vl6nD5tq7YivEB2P8A4H2rla+79W0ey1vTZrDU7eO4tpl2ujrnNfKPxT+F9z4E1T7RaB59HuG/cy9TGf7je/oe9Azz6ijNFAwooooAKKKKACiiigAooooAKKKKACiiigAooooAKKKKAA17z+zH/wAf3iD/AK5wfzavBjXvP7Mf/H94g/65wfzagD6FooooJCiiigAooooAKDRQaAPmz9pX/katK/69T/6FXile1/tK/wDI1aV/16n/ANCrxSgoKKKKACiiigAooooAKKKKACiiigAooooAKKKKACiiigAoopaAO++EXgH/AITjxYv2xCdMsiJbn0f0T8f5A19d28EdtCkMCLHGihVRRgKB0ArivhL4STwl4Cs4JEAvLpftFy3fcw4H4DA/Cu5oEwooooEFFFFABRRRQAUUUUAFZXiHQLPxJolzpmpRq9vOhU5GSvoR7itWigD4b8XeGbvwj4pu9Hvh80LfI/aRDyrD8P61i19J/tE+E1vvD9v4ht4/39iwilI7xse/0P8AOvmygYUUUUDCiiigAooooAKKKKACiiigAooooAKKKKACiiigANe8/sx/8f3iD/rnB/Nq8GNe8/sx/wDH94g/65wfzagGfQtFFFBIUUUUAFFFFABQaKDQB82ftK/8jVpX/Xqf/Qq8Ur2v9pX/AJGrSv8Ar1P/AKFXilBQUUUUAFFFFABRRRQAUUUUAFFFFABRRRQAUUUUAFFFFABXQ+AtIGuePtH0913JLdL5gx/COT/Kuer0r4BWy3HxXtWcZ8m3lkH1xj+tAH1jGqpGqrwFGAKfQKKCQooooAKKKKACiiigAooooAKKKKAMrxPpEeu+F9S0yUArdWzxjPYlTg/gcGvhiSNopnjkGHRirD0I6199su5cGvh3xpaiz8da5AgwkeoThfpvNA0YlFFFAwooooAKKKKACiiigAooooAKKKKACiiigAooooADXvP7Mf8Ax/eIP+ucH82rwY17z+zH/wAf3iD/AK5wfzagGfQtFFFBIUUUUAFFFFABQaKDQB82ftK/8jVpX/Xqf/Qq8Ur2v9pX/katK/69T/6FXilBQUUUUAFFFFABRRRQAUUUUAFFFFABRRRQAUUUUAFFFFABXp/7P0wi+KkKtj95ayqPyB/pXmFdZ8MNUGj/ABL0a7dtsf2gRufZuD/OgD7SFFNByMg5B6U6gkKKKKACiiigAooooAKKKKACiiigAJxXxB47mWf4ga/Ihyp1CbH/AH2a+0dZ1CPSdEvdQnIEdtA8rZ/2Rn+lfCl1cNd3k1zJy8zmRifUnJ/nQNEVFFFAwooooAKKKKACiiigAooooAKKKKACiiigAooooADXvP7Mf/H94g/65wfzavBjXvP7Mf8Ax/eIP+ucH82oBn0LRRRQSFFFFABRRRQAUGig0AfNn7Sv/I1aV/16n/0KvFK9r/aV/wCRq0r/AK9T/wChV4pQUFFFFABRRRQAUUUUAFFFFABRRRQAUUUUAFFFFABRRRQAU5JHikWSJtrqcqw7Gm0tAH2t8PvE0XizwRp+pxsDI0YSdR/DIvDD8/5109fLXwJ8ep4b8Rvouoy7LDUnAVmPEc3RfoDwPyr6jVt3I6UCHUUUUCCiiigAooooAKKKKACgnAoqte39vYWUt1eSLFBEhd3c4AAGTQB5h+0B4pXR/Ax0qGQC61Nwm3/pmD839B+NfLOMDiur+JHjSbxx4yuNQOVtIv3VrH/djHf6k8//AKq5SgaCiiigYUUUUAFFFFABRRRQAUUUUAFFFFABRRRQAUUUUABr3n9mP/j+8Qf9c4P5tXgxr3n9mP8A4/vEH/XOD+bUAz6FooooJCiiigAooooAKDRQaAPmz9pX/katK/69T/6FXile1/tK/wDI1aV/16n/ANCrxSgoKKKKACiiigAooooAKKKKACiiigAooooAKKKKACiiigApaSloAOcjBPHTFfSHwa+Liapaw+HfEdyq30ahba4kP+vA/hJ/vD9a+cKFdkdWRirA5BBwQaAPvpWyO34U6vnL4c/HubT449L8Z7p4Vwsd8vLqP9sdx7jn1r37SdZ0/W7FLvSryK7gcZDxNkf/AFqCS/RRRQAUUUUAFFFYXifxhonhKyNzrd/HbjGUjzl3+i9TQBtyypDE0krBEUZZmOABXzL8Z/iz/wAJFPJ4e8PSkaXG2J51P/Hww7D/AGR+tZfxI+M+peMS+n6V5mn6RnBQN88/uxHQew/HNeY4oGGKKKKBhRRRQAUUUUAFFFFABRRRQAUUUUAFFFFABRRRQAUUUUABr3n9mP8A4/vEH/XOD+bV4Ma95/Zj/wCP7xB/1zg/m1AM+haKKKCQooooAKKKKACg0UGgD5s/aV/5GrSv+vU/+hV4pXtf7Sv/ACNWlf8AXqf/AEKvFKCgooooAKKKKACiiigAooooAKKKKACiiigAooooAKKKKACiiigAooooAK1vD3iLV/DupR3OiahPZyFgG8tuHGejDoR9ayalg/4+I/8AfH86APvSBi1vGx5JUE/lUtQ23/HrF/uD+VTUEhRRRQAjdDXw34turi88Wao93NJM4u5VDSOWIAcgDn2r7kb7pr4V8S/8jVqv/X5N/wChmgaMyiiigYUUUUAFFFFABRRRQAUUUUAFFFFABRRRQAUUUUAFFFFABRRRQAGvef2Y/wDj+8Qf9c4P5tXgxr3n9mP/AI/vEH/XOD+bUAz6FooooJCiiigAooooAKDRQaAPmz9pX/katK/69T/6FXile1/tK/8AI1aV/wBep/8AQq8UoKCiiigAooooAKKKKACiiigAooooAKKKKACiiigAooooAKKKKACiiigAqWD/AI+I/wDfH86iqWD/AI+I/wDfH86APvO2/wCPWL/cH8qmqK2/49Iv9wfyqWgkKKKKAEb7pr4V8S/8jVqv/X5N/wChmvupvumvhXxL/wAjVqv/AF+Tf+hmgaMyiiigYUUUUAFFFFABRRRQAUUUUAFFFFABRRRQAUUUUAFFFFABRRRQAGvef2Y/+P7xB/1zg/m1eDGvef2Y/wDj+8Qf9c4P5tQDPoWiiigkKKKKACiiigAoNFBoA+bP2lf+Rq0r/r1P/oVeKV7X+0r/AMjVpX/Xqf8A0KvFKCgooooAKKKKACiiigAooooAKKKKACiiigAooooAKKKKACiiigAooooAKlg/4+I/98fzqKpYP+PiP/fH86APvS1/49Iv9wfyqWorX/j0i/3B/KpaCQooooARvumvhXxL/wAjVqv/AF+zf+hmvupvumvhXxL/AMjVqv8A1+zf+hmgaMyiiigYUUUUAFFFFABRRRQAUUUUAFFFFABRRRQAUUUUAFFFFABRRRQAGvef2Y/+P7xB/wBc4P5tXgxr3n9mP/j+8Qf9c4P5tQDPoWiiigkKKKKACiiigAoNFBoA+bP2lf8AkatK/wCvU/8AoVeKV7X+0r/yNWlf9ep/9CrxSgoKKKKACiiigAooooAKKKKACiiigAooooAKKKKACiiigAooooAKKKKACpYP+PiP/fH86iqSA4njJ/vD+dAH3ra/8ekX+4P5VLUNowazhIOQUBH5VNQSFFFFACN9018K+Jf+Rq1X/r9m/wDQzX3UxwpzXwp4jYP4n1RlOQbyUg/8DNA0ZtFFFAwooooAKKKKACiiigAooooAKKKKACiiigAooooAKKKKACiiigANe8/sx/8AH94g/wCucH82rwY17z+zH/x/eIP+ucH82oBn0LRRRQSFFFFABRRRQAUGig0AfNn7Sv8AyNWlf9ep/wDQq8Ur2v8AaV/5GrSv+vU/+hV4pQUFFFFABRRRQAUUUUAFFFFABRRRQAUUUUAFFFFABRRRQAUUUUAFFFFABS5xSUvagD7B+EXi+HxV4DssyA3tkgt7hM85UYDfiOa7yvh7wl4v1bwZrS6jo821jhZYm5SVf7rCvofw3+0H4X1OBF1sy6Xc/wAYZC8efZhz+YoEetUE4rix8XfApGf+Ejsx9WI/pWB4h+PvhDTLd/7Lml1S4x8qwxkIT/vGgR1XxC8WW/hDwbe6jM4WbYY7dM8vIRwB/Ovi2V2mmeRzuZzuJPcmuk8b+O9W8dasLvVJAkMYIgtkPyRA/wAye5NcxQMKKKKBhRRRQAUUUUAFFFFABRRRQAUUUUAFFFFABRRRQAUUUUAFFFFAAa95/Zj/AOP7xB/1zg/m1eDGvef2Y/8Aj+8Qf9c4P5tQDPoWiiigkKKKKACiiigAoNFBoA+bP2lf+Rq0r/r1P/oVeKV7X+0r/wAjVpX/AF6n/wBCrxSgoKKKKACiiigAooooAKKKKACiiigAooooAKKKKACiiigAooooAKKKKAClpKKAFpKKKAFpMfjRRQAUUUUAFFFFABRRRQAUUUUAFFFFABRRRQAUUUUAFFFFABRRRQAUUUUAFFFFAAa95/Zj/wCP7xB/1zg/m1eDGvef2Y/+P7xB/wBc4P5tQDPoWiiigkKKKKACiiigAoNFBoA+bP2lf+Rq0r/r1P8A6FXile1/tLf8jVpX/Xqf/Qq8UoKCiiigAooooAKKKKACiiigAooooAKKKKACiiigAooooAKKKKACiiigAooooAKKKKACiiigAooooAKKKKACiiigAooooAKKKKACiiigAooooAKKKKACiiigAooooAKKKKAA17z+zH/x/eIP+ucH82rwY17z+zH/AMf3iD/rnD/NqAZ9C0UUUEhRRRQAUUUUAFBoooA+cP2mISPEWjy9mt2H5NXiFfR/7S2lNN4b0rVETP2e4aJ29A44/Vf1r5wFBSCiiigAooooAKKKKACiiigAooooAKKKKACiiigAooooAKKKKACiiigAooooAKKKKACiiigAooooAKKKKACiiigAooooAKKKKACiiigAooooAKKKKACiiigAooooAKKKKAA9K99/Zjjbz9fk/hKwqD+LGvAq+nf2cdJa08D3eoSLg3l0Qp9VUY/nmgTPYaKKKBBRRRQAUUUUAFFFFAHOeP8Aw6nirwPqeksPnmhJib+66/Mp/MCvieaGS2neGdSkkbFWU9iDgivvogEc18wfHnwA+h+IG8RafFnT9Qf99tH+ql7/AIHr9c0DR5DRRRQMKKKKACiiigAooooAKKKKACiiigAooooAKKKKACiiigAooooAKKKKACiiigAooooAKKKKACiiigAooooAKKKKACiiigAooooAKKKKACiiigAooooAKKKKACiiigCeztJr69htLWMyTTuI40HVmY4A/M19ueD9BTwx4S07SExm2gVXI/ifGWP55rwf9n/wE+oasfFGoQ4tbQlbTcP9ZJ/e+g/nX0kDQJi0UUUCCiiigAooooAKKKKACs7W9Fstf0e403U4RNbXCbHUj9R71o0UAfGPxE+HmoeA9cMMytNp8xJtroDhh/dPow9K4+vuzXNC07xFpcun6vapc20owyuOnuD2PvXzZ8QfgXq/hySS+8Oq2pabksUHMsQ9CP4h7j8aBo8mopzo8TlJVZHU4KsMEfhTaBhRRRQAUUUUAFFFFABRRRQAUUUUAFFFFABRRRQAUUUUAFFFFABRRRQAUUUUAFFFFABRRRQAUUUUAFFFFABRRRQAUUUUAFFFFABRRRQAUUUUAFFFPiiknlWOGNpHY4CqMk/hQAyu5+Gnw2vvHesDKtDpcDD7RckYz/sL6t/Kun+H3wH1LXJI7/xUH06w4ZYOk03/AMSP1r6P0nR7LRNNhsNMt0t7aEYSNBx9frQIdpWmWuj6bb2GnwrBbW6BEjUYAAq7iiigQUUUUAFFFFABRRRQAUUUUAFFFFABSFcjBpaKAOR8S/DHwt4rDNqemRrcN/y8wfu5PzHX8c15ZrP7MzbmbQNdXb2jvI+R/wACX/CvoGigD5Vuf2evGcLEQ/Yrgdik2M/mBVf/AIUF45/59Lb/AMCBX1lRQM+Tf+FBeOf+fS2/8CBR/wAKC8c/8+lt/wCBAr6yooA+Tf8AhQXjn/n0tv8AwIFH/CgvHP8Az6W3/gQK+sqKAPk3/hQXjn/n0tv/AAIFH/CgvHP/AD6W3/gQK+sqKAPk3/hQXjn/AJ9Lb/wIFH/CgvHP/Ppbf+BAr6yooA+Tf+FBeOf+fS2/8CBR/wAKC8c/8+lt/wCBAr6yooA+Tf8AhQXjn/n0tv8AwIFH/CgvHP8Az6W3/gQK+sqKAPk3/hQXjn/n0tv/AAIFH/CgvHP/AD6W3/gQK+sqKAPk3/hQXjn/AJ9Lb/wIFH/CgvHP/Ppbf+BAr6yooA+Tf+FBeOf+fS2/8CBR/wAKC8c/8+lt/wCBAr6yooA+Tf8AhQXjn/n0tv8AwIFH/CgvHP8Az6W3/gQK+sqKAPk3/hQXjn/n0tv/AAIFH/CgvHP/AD6W3/gQK+sqKAPk3/hQXjn/AJ9Lb/wIFH/CgvHP/Ppbf+BAr6yooA+Tf+FBeOf+fS2/8CBR/wAKC8c/8+lt/wCBAr6yooA+Tf8AhQXjn/n0tv8AwIFH/CgvHP8Az6W3/gQK+sqKAPk3/hQXjn/n0tv/AAIFH/CgvHP/AD6W3/gQK+sqKAPk3/hQXjn/AJ9Lb/wIFH/CgvHP/Ppbf+BAr6yooA+Tf+FBeOf+fS2/8CBR/wAKC8c/8+lt/wCBAr6yooA+Tf8AhQXjn/n0tv8AwIFH/CgvHP8Az6W3/gQK+sqKAPk7/hQXjj/n0tv+/wCKntv2evGU8gWY2NuD1LTE4/IV9VYpCKAPA9G/ZnUSK/iDXSyjrHZR4z/wJv8ACvVPDXw48M+FEU6RpcSTj/l4k+eQ/wDAj/SuopaBDQuKdRRQAUUUUAFFFFABRRRQAUUUUAFFFFABRRRQAUUUUAFFFFABRRRQAUUUUAFFFFABRRRQAUUUUAFFFFABRRRQAUUUUAFFFFABRRRQAUUUUAFFFFABRRRQAUUUUAFFFFABRRRQAUUUUAFFFFABRRRQAUUUUAFFFFABRRRQAUUUUAFFFFABRRRQB//Z" vertex="1" parent="104">
                    <mxGeometry x="152.5" y="3" width="21.13" height="27" as="geometry"/>
                </mxCell>
                <mxCell id="125" style="edgeStyle=none;jumpStyle=arc;html=1;exitX=1;exitY=0.5;exitDx=0;exitDy=0;entryX=0.25;entryY=0;entryDx=0;entryDy=0;dashed=1;startArrow=classic;startFill=1;" edge="1" parent="1" source="119" target="107">
                    <mxGeometry relative="1" as="geometry">
                        <Array as="points">
                            <mxPoint x="2382" y="1972"/>
                            <mxPoint x="2382" y="1990"/>
                        </Array>
                    </mxGeometry>
                </mxCell>
                <mxCell id="119" value="&lt;font color=&quot;#000000&quot; style=&quot;font-size: 14px&quot;&gt;&lt;b style=&quot;font-size: 14px&quot;&gt;ids-selfdescription&lt;/b&gt;&lt;/font&gt;" style="rounded=0;whiteSpace=wrap;html=1;fontColor=#FFFFFF;fillColor=#FFFFFF;fontSize=14;" vertex="1" parent="1">
                    <mxGeometry x="2089.5" y="1940.5" width="180" height="62.25" as="geometry"/>
                </mxCell>
                <mxCell id="107" value="&lt;b style=&quot;font-size: 14px&quot;&gt;IDS endpoint&lt;br&gt;&lt;/b&gt;" style="rounded=1;whiteSpace=wrap;html=1;strokeColor=#000000;fillColor=#FFFFFF;rotation=-90;fontSize=14;" vertex="1" parent="1">
                    <mxGeometry x="2502" y="1892.5" width="187.51" height="95.25" as="geometry"/>
                </mxCell>
                <mxCell id="108" value="" style="endArrow=classic;startArrow=classic;html=1;fontColor=#000000;entryX=0.5;entryY=0;entryDx=0;entryDy=0;" edge="1" parent="1" source="107" target="115">
                    <mxGeometry x="2548.005" y="1765.5" width="50" height="50" as="geometry">
                        <mxPoint x="2654.005" y="1984.5" as="sourcePoint"/>
                        <mxPoint x="2704.005" y="1934.5" as="targetPoint"/>
                    </mxGeometry>
                </mxCell>
                <mxCell id="109" value="DAPS" style="ellipse;shape=cloud;whiteSpace=wrap;html=1;strokeColor=#6c8ebf;fillColor=#dae8fc;fontSize=14;fontStyle=1;rotation=0;" vertex="1" parent="1">
                    <mxGeometry x="2724.005" y="1765.5" width="160" height="80" as="geometry"/>
                </mxCell>
                <mxCell id="110" value="Clearing House" style="ellipse;shape=cloud;whiteSpace=wrap;html=1;strokeColor=#6c8ebf;fillColor=#dae8fc;fontSize=14;fontStyle=1;rotation=0;" vertex="1" parent="1">
                    <mxGeometry x="2724.005" y="1820.5" width="160" height="80" as="geometry"/>
                </mxCell>
                <mxCell id="111" value="IDS Connector" style="ellipse;shape=cloud;whiteSpace=wrap;html=1;strokeColor=#6c8ebf;fillColor=#dae8fc;fontSize=14;fontStyle=1;rotation=0;" vertex="1" parent="1">
                    <mxGeometry x="2724.005" y="1880.5" width="160" height="80" as="geometry"/>
                </mxCell>
                <mxCell id="112" value="App Store" style="ellipse;shape=cloud;whiteSpace=wrap;html=1;strokeColor=#6c8ebf;fillColor=#dae8fc;fontSize=14;fontStyle=1;rotation=0;" vertex="1" parent="1">
                    <mxGeometry x="2724.005" y="1940.5" width="160" height="80" as="geometry"/>
                </mxCell>
                <mxCell id="113" value="IDS Broker" style="ellipse;shape=cloud;whiteSpace=wrap;html=1;strokeColor=#6c8ebf;fillColor=#dae8fc;fontSize=14;fontStyle=1;rotation=0;" vertex="1" parent="1">
                    <mxGeometry x="2724.005" y="1990.5" width="160" height="80" as="geometry"/>
                </mxCell>
                <mxCell id="114" value="App Store" style="ellipse;shape=cloud;whiteSpace=wrap;html=1;strokeColor=#6c8ebf;fillColor=#dae8fc;fontSize=14;fontStyle=1;rotation=0;" vertex="1" parent="1">
                    <mxGeometry x="2724.005" y="2045.5" width="160" height="80" as="geometry"/>
                </mxCell>
                <mxCell id="115" value="&lt;b style=&quot;font-size: 14px;&quot;&gt;IDS endpoint&lt;/b&gt;" style="rounded=1;whiteSpace=wrap;html=1;strokeColor=#000000;fillColor=#FFFFFF;rotation=-90;fontSize=14;" vertex="1" parent="1">
                    <mxGeometry x="2552.005" y="1915.5" width="333" height="50" as="geometry"/>
                </mxCell>
                <mxCell id="116" value="" style="shape=image;verticalLabelPosition=bottom;verticalAlign=top;imageAspect=0;aspect=fixed;image=data:image/jpeg,/9j/4AAQSkZJRgABAQEAYABgAAD/4REMRXhpZgAATU0AKgAAAAgABAE7AAIAAAAWAAAISodpAAQAAAABAAAIYJydAAEAAAAsAAAQ2OocAAcAAAgMAAAAPgAAAAAc6gAAAAgAAAAAAAAAAAAAAAAAAAAAAAAAAAAAAAAAAAAAAAAAAAAAAAAAAAAAAAAAAAAAAAAAAAAAAAAAAAAAAAAAAAAAAAAAAAAAAAAAAAAAAAAAAAAAAAAAAAAAAAAAAAAAAAAAAAAAAAAAAAAAAAAAAAAAAAAAAAAAAAAAAAAAAAAAAAAAAAAAAAAAAAAAAAAAAAAAAAAAAAAAAAAAAAAAAAAAAAAAAAAAAAAAAAAAAAAAAAAAAAAAAAAAAAAAAAAAAAAAAAAAAAAAAAAAAAAAAAAAAAAAAAAAAAAAAAAAAAAAAAAAAAAAAAAAAAAAAAAAAAAAAAAAAAAAAAAAAAAAAAAAAAAAAAAAAAAAAAAAAAAAAAAAAAAAAAAAAAAAAAAAAAAAAAAAAAAAAAAAAAAAAAAAAAAAAAAAAAAAAAAAAAAAAAAAAAAAAAAAAAAAAAAAAAAAAAAAAAAAAAAAAAAAAAAAAAAAAAAAAAAAAAAAAAAAAAAAAAAAAAAAAAAAAAAAAAAAAAAAAAAAAAAAAAAAAAAAAAAAAAAAAAAAAAAAAAAAAAAAAAAAAAAAAAAAAAAAAAAAAAAAAAAAAAAAAAAAAAAAAAAAAAAAAAAAAAAAAAAAAAAAAAAAAAAAAAAAAAAAAAAAAAAAAAAAAAAAAAAAAAAAAAAAAAAAAAAAAAAAAAAAAAAAAAAAAAAAAAAAAAAAAAAAAAAAAAAAAAAAAAAAAAAAAAAAAAAAAAAAAAAAAAAAAAAAAAAAAAAAAAAAAAAAAAAAAAAAAAAAAAAAAAAAAAAAAAAAAAAAAAAAAAAAAAAAAAAAAAAAAAAAAAAAAAAAAAAAAAAAAAAAAAAAAAAAAAAAAAAAAAAAAAAAAAAAAAAAAAAAAAAAAAAAAAAAAAAAAAAAAAAAAAAAAAAAAAAAAAAAAAAAAAAAAAAAAAAAAAAAAAAAAAAAAAAAAAAAAAAAAAAAAAAAAAAAAAAAAAAAAAAAAAAAAAAAAAAAAAAAAAAAAAAAAAAAAAAAAAAAAAAAAAAAAAAAAAAAAAAAAAAAAAAAAAAAAAAAAAAAAAAAAAAAAAAAAAAAAAAAAAAAAAAAAAAAAAAAAAAAAAAAAAAAAAAAAAAAAAAAAAAAAAAAAAAAAAAAAAAAAAAAAAAAAAAAAAAAAAAAAAAAAAAAAAAAAAAAAAAAAAAAAAAAAAAAAAAAAAAAAAAAAAAAAAAAAAAAAAAAAAAAAAAAAAAAAAAAAAAAAAAAAAAAAAAAAAAAAAAAAAAAAAAAAAAAAAAAAAAAAAAAAAAAAAAAAAAAAAAAAAAAAAAAAAAAAAAAAAAAAAAAAAAAAAAAAAAAAAAAAAAAAAAAAAAAAAAAAAAAAAAAAAAAAAAAAAAAAAAAAAAAAAAAAAAAAAAAAAAAAAAAAAAAAAAAAAAAAAAAAAAAAAAAAAAAAAAAAAAAAAAAAAAAAAAAAAAAAAAAAAAAAAAAAAAAAAAAAAAAAAAAAAAAAAAAAAAAAAAAAAAAAAAAAAAAAAAAAAAAAAAAAAAAAAAAAAAAAAAAAAAAAAAAAAAAAAAAAAAAAAAAAAAAAAAAAAAAAAAAAAAAAAAAAAAAAAAAAAAAAAAAAAAAAAAAAAAAAAAAAAAAAAAAAAAAAAAAAAAAAAAAAAAAAAAAAAAAAAAAAAAAAAAAAAAAAAAAAAAAAAAAAAAAAAAAAAAAAAAAAAAAAAAAAAAAAAAAAAAAAAAAAAAAAAAAAAAAAAAAAAAAAAAAAAAAAAAAAAAAAAAAAAAAAAAAAAAAAAAAAAAAAAAAAAAAAAAAAAAAAAAAAAAAAAAAAAAAAAAAAAAAAAAAAAAAAAAAAAAAAAAAAAAAAAAAAAAAAAAAAAAAAAAAAAAAAAAAAAAAAAAAAAAAAAAAAAAAAAAAAAAAAAAAAAAAAAAAAAAAAAAAAAAAAAAAAAAAAAAAAAAAAAAAAAAAAAAAAAAAAAAAAAAAAAAAAAAAAAAAAAAAAAAAAAAAAAAAAAAAAAAAAAAAAAAAAAAAAAAAAAAAAAAAAAAAAAAAAAAAAAAAAAAAAAAAAAAAAAAAAAAAAAAAAAAAAAAAAAAAAAAAAAAAAAAAAAAAAAAAAAAAAAAAAAAAAAAAAAAAAAAAAAAAAAAAAAAAAAAAAAAAAAAAAAAAAAAAAAAAAAAAAAAAAAAAAAAAAAAAAAAAAAAAAAAAAAAAAAAAAAAAAAAAAAAAAAAAAAAAAAAAAAAAAAAAAAAAAAAAAAAAAAAAAAAAAAAAAAAAAAAAAAAAAAAAAAAAAAAAAAAAAAAAAAAAAAAAAAAAAAAAAAAAAAAAAAAAAAAAAAAAAAAAAAAAAAAAAAAAAAAAAAAAAAAAAAAAAAAAAAAAAAAAAAAAAAAAAAAAAAAAAAAAAAAAAAAAAAAAAAAAAAAAAAAAAAAAAAAAAAAAAAAAAAAAAAAAAAAAAAAAAAAAAAAAAAAAAAAAAAAAAAAAAAAAAAAAAAAAAAAAAAAAAAAAAAAAAAAAAAAAAAAAAAAAAAAAAAAAAAAAAAAAAAAAAAAAAAAAAAAAAAAAAAAAAAAAAAAAAAAAAAAAAAAAAAAAAAAAAAAAAAAAAAAAAAAAAAAAAAAAAAAAAAAAAAAAAAAAAAAAAAAAAAAAAAAAAAAAAAAAAAAAAAAAAAAAAAAAAAAAAAAAAAAAAAAAAAAAAAAAAAAAAAAAAAAAAAAAAAAAAAAAAAAAAAAAAAAAAAAAAAAAAAAAAAAAAAAAAEFkcmlhYW5zZSwgSi4gKEpvb3N0KQAABZADAAIAAAAUAAAQrpAEAAIAAAAUAAAQwpKRAAIAAAADODUAAJKSAAIAAAADODUAAOocAAcAAAgMAAAIogAAAAAc6gAAAAgAAAAAAAAAAAAAAAAAAAAAAAAAAAAAAAAAAAAAAAAAAAAAAAAAAAAAAAAAAAAAAAAAAAAAAAAAAAAAAAAAAAAAAAAAAAAAAAAAAAAAAAAAAAAAAAAAAAAAAAAAAAAAAAAAAAAAAAAAAAAAAAAAAAAAAAAAAAAAAAAAAAAAAAAAAAAAAAAAAAAAAAAAAAAAAAAAAAAAAAAAAAAAAAAAAAAAAAAAAAAAAAAAAAAAAAAAAAAAAAAAAAAAAAAAAAAAAAAAAAAAAAAAAAAAAAAAAAAAAAAAAAAAAAAAAAAAAAAAAAAAAAAAAAAAAAAAAAAAAAAAAAAAAAAAAAAAAAAAAAAAAAAAAAAAAAAAAAAAAAAAAAAAAAAAAAAAAAAAAAAAAAAAAAAAAAAAAAAAAAAAAAAAAAAAAAAAAAAAAAAAAAAAAAAAAAAAAAAAAAAAAAAAAAAAAAAAAAAAAAAAAAAAAAAAAAAAAAAAAAAAAAAAAAAAAAAAAAAAAAAAAAAAAAAAAAAAAAAAAAAAAAAAAAAAAAAAAAAAAAAAAAAAAAAAAAAAAAAAAAAAAAAAAAAAAAAAAAAAAAAAAAAAAAAAAAAAAAAAAAAAAAAAAAAAAAAAAAAAAAAAAAAAAAAAAAAAAAAAAAAAAAAAAAAAAAAAAAAAAAAAAAAAAAAAAAAAAAAAAAAAAAAAAAAAAAAAAAAAAAAAAAAAAAAAAAAAAAAAAAAAAAAAAAAAAAAAAAAAAAAAAAAAAAAAAAAAAAAAAAAAAAAAAAAAAAAAAAAAAAAAAAAAAAAAAAAAAAAAAAAAAAAAAAAAAAAAAAAAAAAAAAAAAAAAAAAAAAAAAAAAAAAAAAAAAAAAAAAAAAAAAAAAAAAAAAAAAAAAAAAAAAAAAAAAAAAAAAAAAAAAAAAAAAAAAAAAAAAAAAAAAAAAAAAAAAAAAAAAAAAAAAAAAAAAAAAAAAAAAAAAAAAAAAAAAAAAAAAAAAAAAAAAAAAAAAAAAAAAAAAAAAAAAAAAAAAAAAAAAAAAAAAAAAAAAAAAAAAAAAAAAAAAAAAAAAAAAAAAAAAAAAAAAAAAAAAAAAAAAAAAAAAAAAAAAAAAAAAAAAAAAAAAAAAAAAAAAAAAAAAAAAAAAAAAAAAAAAAAAAAAAAAAAAAAAAAAAAAAAAAAAAAAAAAAAAAAAAAAAAAAAAAAAAAAAAAAAAAAAAAAAAAAAAAAAAAAAAAAAAAAAAAAAAAAAAAAAAAAAAAAAAAAAAAAAAAAAAAAAAAAAAAAAAAAAAAAAAAAAAAAAAAAAAAAAAAAAAAAAAAAAAAAAAAAAAAAAAAAAAAAAAAAAAAAAAAAAAAAAAAAAAAAAAAAAAAAAAAAAAAAAAAAAAAAAAAAAAAAAAAAAAAAAAAAAAAAAAAAAAAAAAAAAAAAAAAAAAAAAAAAAAAAAAAAAAAAAAAAAAAAAAAAAAAAAAAAAAAAAAAAAAAAAAAAAAAAAAAAAAAAAAAAAAAAAAAAAAAAAAAAAAAAAAAAAAAAAAAAAAAAAAAAAAAAAAAAAAAAAAAAAAAAAAAAAAAAAAAAAAAAAAAAAAAAAAAAAAAAAAAAAAAAAAAAAAAAAAAAAAAAAAAAAAAAAAAAAAAAAAAAAAAAAAAAAAAAAAAAAAAAAAAAAAAAAAAAAAAAAAAAAAAAAAAAAAAAAAAAAAAAAAAAAAAAAAAAAAAAAAAAAAAAAAAAAAAAAAAAAAAAAAAAAAAAAAAAAAAAAAAAAAAAAAAAAAAAAAAAAAAAAAAAAAAAAAAAAAAAAAAAAAAAAAAAAAAAAAAAAAAAAAAAAAAAAAAAAAAAAAAAAAAAAAAAAAAAAAAAAAAAAAAAAAAAAAAAAAAAAAAAAAAAAAAAAAAAAAAAAAAAAAAAAAAAAAAAAAAAAAAAAAAAAAAAAAAAAAAAAAAAAAAAAAAAAAAAAAAAAAAAAAAAAAAAAAAAAAAAAAAAAAAAAAAAAAAAAAAAAAAAAAAAAAAAAAAAAAAAAAAAAAAAAAAAAAAAAAAAAAAAAAAAAAAAAAAAAAAAAAAAAAAAAAAAAAAAAAAAAAAAAAAAAAAAAAAAAAAAAAAAAAAAAAAAAAAAAAAAAAAAAAAAAAAAAAAAAAAAAAAAAAAAAAAAAAAAAAAAAAAAAAAAAAAAAAAAAAAAAAAAAAAAAAAAAAAAAAAAAAAAAAAAAAAAAAAAAAAAAAAAAAAAAAAAAAAAAAAAAAAAAAAAAAAAAAAAAAAAAAAAAAAAAAAAAAAAAAAAAAAAAAAAAAAAAAAAAAAAAAAAAAAAAAAAAAAAAAAAAAAAAAAAAAAAAAAAAAAAAAAAAAAAAAAAAAAAAAAAAAAAAAAAAAAAAAAAAAAAAAAAAAAAAAAAAAAAAAAAAAAAAAAAAAAAAAAAAAAAAAAAAAAAAAAAAAAAAAAAAAAAAAAAAAAAAAAAAAAAAAAAAAAAAAAAAAAAAAAAAAAAAAAAAAAAAAAAAAAAAAAAAAAAAAAAAAAAAAAAAAAAAAAAAAAAAAAAAAAAAAAAAAAAAAAAAAAAAAAAAAAAAAAAAAAAAAAAAAAAAAAAAAAAAAAAAAAAAAAAAAAAAAAAAAAAAAAAAAAAAAAAAAAAAAAAAAAAAAAAAAAAAAAAAAAAAAAAAAAAAAAAAAAAAAAAAAAAAAAAAAAAAAAAAAAAAAAAAAAAAAAAAAAAAAAAAAAAAAAAAAAAAAAAAAAAAAAAAAAAAAAAAAAAAAAAAAAAAAAAADIwMjE6MTA6MjcgMTg6NTY6MzEAMjAyMToxMDoyNyAxODo1NjozMQAAAEEAZAByAGkAYQBhAG4AcwBlACwAIABKAC4AIAAoAEoAbwBvAHMAdAApAAAA/+ELKGh0dHA6Ly9ucy5hZG9iZS5jb20veGFwLzEuMC8APD94cGFja2V0IGJlZ2luPSfvu78nIGlkPSdXNU0wTXBDZWhpSHpyZVN6TlRjemtjOWQnPz4NCjx4OnhtcG1ldGEgeG1sbnM6eD0iYWRvYmU6bnM6bWV0YS8iPjxyZGY6UkRGIHhtbG5zOnJkZj0iaHR0cDovL3d3dy53My5vcmcvMTk5OS8wMi8yMi1yZGYtc3ludGF4LW5zIyI+PHJkZjpEZXNjcmlwdGlvbiByZGY6YWJvdXQ9InV1aWQ6ZmFmNWJkZDUtYmEzZC0xMWRhLWFkMzEtZDMzZDc1MTgyZjFiIiB4bWxuczpkYz0iaHR0cDovL3B1cmwub3JnL2RjL2VsZW1lbnRzLzEuMS8iLz48cmRmOkRlc2NyaXB0aW9uIHJkZjphYm91dD0idXVpZDpmYWY1YmRkNS1iYTNkLTExZGEtYWQzMS1kMzNkNzUxODJmMWIiIHhtbG5zOnhtcD0iaHR0cDovL25zLmFkb2JlLmNvbS94YXAvMS4wLyI+PHhtcDpDcmVhdGVEYXRlPjIwMjEtMTAtMjdUMTg6NTY6MzEuODQ4PC94bXA6Q3JlYXRlRGF0ZT48L3JkZjpEZXNjcmlwdGlvbj48cmRmOkRlc2NyaXB0aW9uIHJkZjphYm91dD0idXVpZDpmYWY1YmRkNS1iYTNkLTExZGEtYWQzMS1kMzNkNzUxODJmMWIiIHhtbG5zOmRjPSJodHRwOi8vcHVybC5vcmcvZGMvZWxlbWVudHMvMS4xLyI+PGRjOmNyZWF0b3I+PHJkZjpTZXEgeG1sbnM6cmRmPSJodHRwOi8vd3d3LnczLm9yZy8xOTk5LzAyLzIyLXJkZi1zeW50YXgtbnMjIj48cmRmOmxpPkFkcmlhYW5zZSwgSi4gKEpvb3N0KTwvcmRmOmxpPjwvcmRmOlNlcT4NCgkJCTwvZGM6Y3JlYXRvcj48L3JkZjpEZXNjcmlwdGlvbj48L3JkZjpSREY+PC94OnhtcG1ldGE+DQogICAgICAgICAgICAgICAgICAgICAgICAgICAgICAgICAgICAgICAgICAgICAgICAgICAgICAgICAgICAgICAgICAgICAgICAgICAgICAgICAgICAgICAgICAgICAgICAgICAgCiAgICAgICAgICAgICAgICAgICAgICAgICAgICAgICAgICAgICAgICAgICAgICAgICAgICAgICAgICAgICAgICAgICAgICAgICAgICAgICAgICAgICAgICAgICAgICAgICAgICAKICAgICAgICAgICAgICAgICAgICAgICAgICAgICAgICAgICAgICAgICAgICAgICAgICAgICAgICAgICAgICAgICAgICAgICAgICAgICAgICAgICAgICAgICAgICAgICAgICAgIAogICAgICAgICAgICAgICAgICAgICAgICAgICAgICAgICAgICAgICAgICAgICAgICAgICAgICAgICAgICAgICAgICAgICAgICAgICAgICAgICAgICAgICAgICAgICAgICAgICAgCiAgICAgICAgICAgICAgICAgICAgICAgICAgICAgICAgICAgICAgICAgICAgICAgICAgICAgICAgICAgICAgICAgICAgICAgICAgICAgICAgICAgICAgICAgICAgICAgICAgICAKICAgICAgICAgICAgICAgICAgICAgICAgICAgICAgICAgICAgICAgICAgICAgICAgICAgICAgICAgICAgICAgICAgICAgICAgICAgICAgICAgICAgICAgICAgICAgICAgICAgIAogICAgICAgICAgICAgICAgICAgICAgICAgICAgICAgICAgICAgICAgICAgICAgICAgICAgICAgICAgICAgICAgICAgICAgICAgICAgICAgICAgICAgICAgICAgICAgICAgICAgCiAgICAgICAgICAgICAgICAgICAgICAgICAgICAgICAgICAgICAgICAgICAgICAgICAgICAgICAgICAgICAgICAgICAgICAgICAgICAgICAgICAgICAgICAgICAgICAgICAgICAKICAgICAgICAgICAgICAgICAgICAgICAgICAgICAgICAgICAgICAgICAgICAgICAgICAgICAgICAgICAgICAgICAgICAgICAgICAgICAgICAgICAgICAgICAgICAgICAgICAgIAogICAgICAgICAgICAgICAgICAgICAgICAgICAgICAgICAgICAgICAgICAgICAgICAgICAgICAgICAgICAgICAgICAgICAgICAgICAgICAgICAgICAgICAgICAgICAgICAgICAgCiAgICAgICAgICAgICAgICAgICAgICAgICAgICAgICAgICAgICAgICAgICAgICAgICAgICAgICAgICAgICAgICAgICAgICAgICAgICAgICAgICAgICAgICAgICAgICAgICAgICAKICAgICAgICAgICAgICAgICAgICAgICAgICAgICAgICAgICAgICAgICAgICAgICAgICAgICAgICAgICAgICAgICAgICAgICAgICAgICAgICAgICAgICAgICAgICAgICAgICAgIAogICAgICAgICAgICAgICAgICAgICAgICAgICAgICAgICAgICAgICAgICAgICAgICAgICAgICAgICAgICAgICAgICAgICAgICAgICAgICAgICAgICAgICAgICAgICAgICAgICAgCiAgICAgICAgICAgICAgICAgICAgICAgICAgICAgICAgICAgICAgICAgICAgICAgICAgICAgICAgICAgICAgICAgICAgICAgICAgICAgICAgICAgICAgICAgICAgICAgICAgICAKICAgICAgICAgICAgICAgICAgICAgICAgICAgICAgICAgICAgICAgICAgICAgICAgICAgICAgICAgICAgICAgICAgICAgICAgICAgICAgICAgICAgICAgICAgICAgICAgICAgIAogICAgICAgICAgICAgICAgICAgICAgICAgICAgICAgICAgICAgICAgICAgICAgICAgICAgICAgICAgICAgICAgICAgICAgICAgICAgICAgICAgICAgICAgICAgICAgICAgICAgCiAgICAgICAgICAgICAgICAgICAgICAgICAgICAgICAgICAgICAgICAgICAgICAgICAgICAgICAgICAgICAgICAgICAgICAgICAgICAgICAgICAgICAgICAgICAgICAgICAgICAKICAgICAgICAgICAgICAgICAgICAgICAgICAgICAgICAgICAgICAgICAgICAgICAgICAgICAgICAgICAgICAgICAgICAgICAgICAgICAgICAgICAgICAgICAgICAgICAgICAgIAogICAgICAgICAgICAgICAgICAgICAgICAgICAgICAgICAgICAgICAgICAgICAgICAgICAgICAgICAgICAgICAgICAgICAgICAgICAgICAgICAgICAgICAgICAgICAgICAgICAgCiAgICAgICAgICAgICAgICAgICAgICAgICAgICAgICAgICAgICAgICAgICAgICAgICAgICAgICAgICAgICAgICAgICAgICAgICAgICAgICAgICAgICAgICAgICAgICAgICAgICAKICAgICAgICAgICAgICAgICAgICAgICAgICAgIDw/eHBhY2tldCBlbmQ9J3cnPz7/2wBDAAcFBQYFBAcGBQYIBwcIChELCgkJChUPEAwRGBUaGRgVGBcbHichGx0lHRcYIi4iJSgpKywrGiAvMy8qMicqKyr/2wBDAQcICAoJChQLCxQqHBgcKioqKioqKioqKioqKioqKioqKioqKioqKioqKioqKioqKioqKioqKioqKioqKioqKir/wAARCAJfAdsDASIAAhEBAxEB/8QAHwAAAQUBAQEBAQEAAAAAAAAAAAECAwQFBgcICQoL/8QAtRAAAgEDAwIEAwUFBAQAAAF9AQIDAAQRBRIhMUEGE1FhByJxFDKBkaEII0KxwRVS0fAkM2JyggkKFhcYGRolJicoKSo0NTY3ODk6Q0RFRkdISUpTVFVWV1hZWmNkZWZnaGlqc3R1dnd4eXqDhIWGh4iJipKTlJWWl5iZmqKjpKWmp6ipqrKztLW2t7i5usLDxMXGx8jJytLT1NXW19jZ2uHi4+Tl5ufo6erx8vP09fb3+Pn6/8QAHwEAAwEBAQEBAQEBAQAAAAAAAAECAwQFBgcICQoL/8QAtREAAgECBAQDBAcFBAQAAQJ3AAECAxEEBSExBhJBUQdhcRMiMoEIFEKRobHBCSMzUvAVYnLRChYkNOEl8RcYGRomJygpKjU2Nzg5OkNERUZHSElKU1RVVldYWVpjZGVmZ2hpanN0dXZ3eHl6goOEhYaHiImKkpOUlZaXmJmaoqOkpaanqKmqsrO0tba3uLm6wsPExcbHyMnK0tPU1dbX2Nna4uPk5ebn6Onq8vP09fb3+Pn6/9oADAMBAAIRAxEAPwD6RooooAKKKKACiiigAooooAKKKKACiiigAooooAKKKKACiiigAooooAKKKKACiiigAooooAKKKKACiiigAooooAKKKKACiiigAooooAKKKKACiiigAooooAKKKKACiiigAooooAKKKKACiiigAooooAKKKKACiiigAooooAKKKKACiiigAooooAKKKKACiiigAooooAKKKKACiiigAooooAKKKKACiqGoa1pmkxmTU7+3tE9ZpQv865LUfjR4H04kHWUuGHa3Uv8A0oA7yivHrv8AaQ8Lwlvs1jqE+OmEVQfzNZcv7Tmn5/ceHrtgP70yCgD3WivBf+Gnbb/oWrj/AMCF/wAKP+Gnbb/oWrj/AMCV/wAKAPeqK8F/4adtv+hauP8AwJX/AAo/4adtv+hauP8AwJX/AAoA96orwX/hp22/6Fq4/wDAlf8ACj/hp22/6Fq4/wDAlf8ACgD3qivBf+Gnbb/oWrj/AMCV/wAKB+05an/mW7j/AMCV/wAKAPeqK8Og/aZ0on/SdBvV/wByVG/wrXsv2i/CNyQLiG+tc95Iwf5E0AetUVxmm/FnwTquBb6/bI5/gmJQ/qK6y1vLe9hEtpPHNG3Ro3DA/iKAJ6KKKACiiigAooooAKKKKACiiigAooooAKKKKACiiigAooooAKKKKACiiigAooooAKKKKACiiigAooooAKKKKACiiigAooooAKKKKACiiq97fWunWr3N9PHbwxjLSSMFAH1NAFiqOqavp+jWbXWq3sFpAn3pJpAo/M14t44/aGgtmksvBsIuXGQb6VcID/sr1P1PFeGa34k1fxHeG51q+mu5CeN7fKv0HQUDsfQfif8AaL0SwZ4fDdrJqUq8ebIPLj/Dua8o8QfGvxprm6NNS/s63brHZrsP/fX3vyIrz+igCW5ubi8nM1zPJM56tI5Yn8TzUVFFAwooooAKKKKACiiigAooooAKKKKACiiigA6Vd0/WdT0icTaVqFzZyA5DQSsn8qpUUAepaB8f/Fuk7E1Mw6tCOD5w2P8AmvH5ivXPC3x58K680cF/K2k3LEDFyf3ZP+/0H44r5RoPTigR99QzxXMSywSLJGwyrI2QR9akzXxR4V+IfiPwfMp0i/cQA5NtKd8Z/wCAnp+GK+gvAnxz0TxO0VnrONK1FuAJG/dSH/ZbsfY/rQB6rRSK6uoZCGUjII70uaBBRRRQAUUUUAFFFFABRRRQAUUUUAFFFFABRRRQAUUUUAFFFFABRRRQAUUUUAFFFFABRRRQAUUUUAFFFFABSZoJxXlPxV+Mdr4RjfStFaO51hl+Y9Uts92/2vb86AOl8d/ErRfAtiWvZPPvXGYbSM/M3ufQe9fLnjT4i6744vWk1S4KWoP7qziJEaD6dz7msDUtSvNW1Ca+1K4e5uZm3PJIckmqtAwooooGFFFFABRRRQAUUUUAFFFFABRRRQAUUUUAFFFFABRRRQAUUUUAFFFFABR2opaAPSvh78adY8ISR2WqPJqWk5A8t2zJCP8AYJ7ex4+lfTfhzxPpPinSY9Q0a7SeJuoHDIfRh2NfDNb3hHxjq3gzWEv9HnKDpLC3KSr6MP60CPuAHNFcf4A+Iel+OtHE1m4jvIgPtFqx+aM+3qPQ114OaBC0UUUAFFFFABRRRQAUUUUAFFFFABRRRQAUUUUAFFFFABRRRQAUUUUAFFFFABRRRQAUUUUAFITilJxXnPxb+JUXgfQ/s9i6vq92pWBD/wAsx0Lke3b3oAxvjD8W08M276LoEofVpVxJKPu2y/8AxR7CvmOWWS4mead2klkYs7ucliepNLdXU97dyXN3K008rFpHc5LE9aZQMMUlLSUDCiiigAoopQCzAAEknAA70AJRXd+Gfg94u8S7ZItPNlbNyJ7v5Mj1A6n8q9R0P9mrTIVV/EOsXF03eO1AjX8zkn9KAPnOlGSeBX2Jpvwf8D6bt8vQLeZl/iuMyE/99Gt+Dwf4cthiDQ7CP/dt1/woFc+Hdjf3W/75o2N6N/3zX3V/wj2j/wDQLs/+/K/4Uf8ACPaP/wBAuz/78r/hQFz4V2N6N/3zRsb0b/vmvur/AIR7R/8AoF2f/flf8KP+Ee0f/oF2f/flf8KAufCuxvRv++aNjejf98191f8ACPaP/wBAuz/78r/hR/wj2j/9Auz/AO/K/wCFAXPhXY3o3/fNGxv7p/Kvur/hHtH/AOgXZ/8Aflf8KD4d0cjB0uzI/wCuK/4UBc+FKTNfcFz4H8L3Y/0nQNPk/wB63X/Cua1X4IeBtTU40r7G5/itJCmPw5H6UBc+RKK96179ml1DyeG9a3jqIb1eT7blH9K8p8S/D7xN4VZm1fTJkgHS4Qb4z+I/rQFzm6KMYooGFFFFABQaKKANLQdf1DwzrMOp6TO0NxEeoPDDureoNfXHw6+Ilh480ITW5EN/CAt1bE8o3qPVT2NfGtbPhbxRqHhHXoNV0qTbJE3zofuyJ3U+xoFY+5aKwPB/iyx8ZeHYNV01uHGJIyfmifuprfFAgooooAKKKKACiiigAooooAKKKKACiiigAooooAKKKKACiiigAooooAKKKKACiikY/KecUAY3i3xLZ+E/DV1q9+3yQLlUB5kbso9zXxh4m8RXvirxBc6tqUm6adsgA8IvZR7Cu/8Ajl49PiXxQdIsJc6bprFMqeJZf4j9B0H415UKBi4ooooGFFFFABRShWZgqAkk4AHrXu/wt+Bv2mOHWvGUJCn5obBuCR2Z/wD4n86AOA8C/CjX/G7rPBEbPTc4a8mHDf7g/i/l719F+DvhN4a8HKktvaC7vgObu4G5wfbsv4c+9drbW8VrbpDbxrFEgwiIMBR6AVLQSIAABgYpaKKACiiigAooooAKKKKACiiigAooooAKKKKACo5okmjKSIrqwwVYZzUlFAHk/jb4D6B4hWS60Nf7Jvjk4iH7pz7r2/CvnbxV4L1vwZqP2XXLRocn93OOY5B6huh+nWvuGs3XNB07xHpslhrFrHc28g5VxyD6g9QfegZ8Jg8UV6V8T/hDe+CJ2v8ATA93o7tw4GWg/wBlv6H+Vea0DCiiigAoxRRQB3fwo+IM3gbxMn2gs+l3bBLmPOdvo4HqP5V9f288VzbxzQOskcihkZTwwPevgWvo/wDZ+8e/2jpz+F9TmLXVou+0Zj9+Puv1B/T6UCPb6KAciigQUUUUAFFFFABRRRQAUUUUAFFFFABRRRQAUUUUAFFFFABRRRQAUUUUAFcF8XfGI8IeBriWB9l7d5t7bnncRyfwGa72vkz46eKz4i8fyWcMhNppYMCAHgv1dvz4/CgDzVmLsWY5JOSfWkoooKCiiigApcZ6UlewfA34bDxFqY8Q6xFnTrR8QRsOJ5B3/wB0fzoA6f4M/CFbWOHxJ4lgBuGAe0tZB/qx1DsPX0HavdVXaKFQJwOAOgFOoJCiiigAooooAKKKKACiiigAooooAKKKKACiiigAooooAKKKKACiiigCC6s4b22kt7qNZYZFKujDIYehr5a+L3wpk8G37aro8bSaNcP0HJtmPY/7Pofwr6sqlqml2usaZPYahEJradCjow6g0DPg/sPekrrviP4GuvAvimWykDPZzZktZj/GnofcdD/9euRoGFFFFABWl4d1q68OeIbPVrFiJraQOAD94dx+NZtH1oA+7dB1e217QrPVLFw8F1EsikH1HT+laNeD/s4eLDNZXvhm6kJaE/aLUHsp+8Pz5/GvdxQIWiiigQUUUUAFFFFABRRRQAUUUUAFFFFABRRRQAUUUUAFFFFABRRRQBheM9ej8M+DdT1aU4+zwMU93PCj8SRXxFPPJc3Mk0zFpJWLux7knk19G/tJ699n8OadosT4a7nMso/2E6f+PH9K+be9A0LRRRQMKKKKANjwn4dufFfiiy0eyGXuJMM3aNByzH6AGvtXQ9FtNA0a10zT4xHb2yBEA7+59z1ryD9nTwiLTR7rxLdx/vrs+TASOkankj6n+Ve4UCCiiigQUUUUAFFFFABRRRQAUUUUAFFFFABRRRQAUUUUAFFFFABRRRQAUUUUAFFFFAHE/FPwRH418G3FvEi/b7cGW1c/3gPu59D0r46lieGV4pVKSIxVlYYII4IPvX30eRXyr8evCI0Dxt/adtHttdUBk4HAlH3/AM8g/jQM8sooooGFFFFAHS/D7xEfC3jvTNTLFYVlEc//AFzY4b8hz+Ffa8biSNXGCGGQRXwGTgV9m/CnXT4g+G2lXTtulii+zyn/AGk+X+gNAjsaKKKBBRRRQAUUUUAFFFFABRRRQAUUUUAFFFFABRRRQAUUUUAFFFIzbVJNAHyl+0Bqp1D4mSWytmOygSPHoSMn+Yry7vXQePNROq/EDW7vdlXvZFX/AHVYgfoBWBQUFFFFABVnTrCbVNUtbC1XdNdTLDGPUsQB/Oq1ei/A7Rhq/wAT7N5BlLNHuDx0IGB+p/SgD6m8P6RDoPh+x0u1GIrSFYl98DGfx61p0UUEhRRRQAUUUUAFFFFABRRRQAUUUUAFFFFABRRRQAUUUUAFFFFABRRRQAUUUUAFFFFABXnnxu8Nf8JD8N7t4o991p5+1RYHOB98f985/KvQ6gvLdLuxmt5QGSVCjA9wRQB8EZ/Kir+u6c2keIL/AE9+trcPF+RwKoUFBRRRQAV9Gfs06sZdE1bSmP8Ax7yrMo9mGD+q185163+zpqP2b4hXFmTgXlmwx6lSD/LNAM+o6KQUtBIUUUUAFFFFABRRRQAUUUUAFFFFABRRRQAUUUUAFFFFABVe/mFtp9xO3AijZ/yGasVj+LpPJ8Fa1IOCthOR9fLagD4cnlNxdSTN1kcufxOaZSDnFLQUFFFFABXvH7M2nh77W9QK/wCrSOEH65P9K8Hr6T/ZogCeFNXnI5kvVUH6IP8AGgGe10UUUEhRRRQAUUUUAFFFFABRRRQAUUUUAFFFFABRRRQAUUUUAFFFFABRRRQAUUUUAFFFFABQaKKAPjz4z6f/AGf8VtWAGFnZZh/wJQf55rhK9X/aKg8r4lRP/wA9bGNv/HmH9K8ooKCiiigAruPg3efYvi3ob5xvkeIj13RsK4eul+Hcvk/EjQHHa+iH5sB/WgD7ZHSikFLQSFFFFABRRRQAUUUUAFFFFABRRRQAUUUUAFFFFABRRRQAVh+Nv+RC17/sHT/+i2rcrD8bf8iFr3/YOn/9FtQB8OjoPpRQOgooKCiiigAr6b/ZuH/FBX5/6fz/AOgJXzJX05+zd/yIV/8A9f7f+gJQDPYRS0UUEhRRRQAUUUUAFFFFABRRRQAUUUUAFFFFABRRRQAUUUUAFFFFABRRRQAUUUUAFFFFABRRQaAPmH9pH/koFh76cv8A6MevH69g/aT4+IGn/wDYOX/0Y9eP0FBRRRQAVveB/wDkftC/6/4f/QxWDW94G/5H7Qv+v+H/ANDFAH2/S0CigkKKKKACiiigAooooAKKKKACiiigAooooAKKKKACiiigArD8bf8AIha9/wBg6f8A9FtW5WH42/5ELXv+wdP/AOi2oA+HR0FFA6CigoKKKKACvpz9m7/kQr//AK/2/wDQFr5jr6c/Zu/5EK//AOv9v/QFoBnsVFFFBIUUUUAFFFFABRRRQAUUUUAFFFFABRRRQAUUUUAFFFFABRRRQAUUUUAFFFFABRRRQAUGiigD5h/aT/5KBp//AGDl/wDRj14+K9g/aS/5KBp//YOX/wBGPXj4oKCiiigAre8Df8j9oX/X/D/6GKwa3vA3/I/aF/1/w/8AoYoA+4B0ooHSigkKKKKACiiigAooooAKKKKACiiigAooooAKKKKACiiigArD8bf8iFr3/YOn/wDRbVuVh+Nv+RC17/sHT/8AotqAPh0dBRQOgooKCiiigAr6c/Zu/wCRCv8A/r/b/wBAWvmOvpz9m7/kQr//AK/2/wDQFoBnsVFFFBIUUUUAFFFFABRRRQAUUUUAFFFFABRRRQAUUUUAFFFFABRRRQAUUUUAFFFFABRRRQAUUUGgD5h/aS/5KBp//YOX/wBGPXj4r2D9pP8A5KBp/wD2Dl/9GPXj4oKCiiigAre8Df8AI/aF/wBf8P8A6GKwa3vA3/I/aF/1/wAP/oYoA+4B0ooHSigkKKKKACiiigAooooAKKKKACiiigAooooAKKKKACiiigArD8bf8iFr3/YOn/8ARbVuVh+Nv+RC17/sHT/+i2oA+HR0FFA6CigoKKKKACvpz9m7/kQr/wD6/wBv/QFr5jr6c/Zu/wCRCv8A/r/b/wBAWgGexUUUUEhRRRQAUUUUAFFFFABRRRQAUUUUAFFFFABRRRQAUUUUAFFFFABRRRQAUUUUAFFFFABRRRQB8w/tJf8AJQNP/wCwcv8A6MevHxXsH7SX/JQNP/7By/8Aox68fFBQUUUUAFb3gb/kftC/6/4f/QxWDW94G/5H7Qv+v+H/ANDFAH3AOlFA6UUEhRRRQAUUUUAFFFFABRRRQAUUUUAFFFFABRRRQAUUUE460AFYfjb/AJELXv8AsHT/APotq29w9a5H4geJNFsvBes291qlrHNLYzIkZlG5mKEAYoA+MB0FFFFBQUUUUAFfTn7N3/IhX/8A1/t/6AtfMde3/Bf4l+GvBvhS7sdevZIJ5bsyKqwO/wAu1RnIB9KAPo+ivNv+F9eAv+gpN/4CSf8AxNH/AAvrwF/0FJv/AAEk/wAKCT0mivNv+F9eAv8AoKTf+Akn+FH/AAvrwF/0FJv/AAEk/wAKAPSaK82/4X14C/6Ck3/gJJ/hR/wvrwF/0FJv/AST/CgD0mivNv8AhfXgL/oKTf8AgJJ/hR/wvrwF/wBBSb/wEk/woA9Jorzb/hfXgL/oKTf+Akn+FH/C+vAX/QUm/wDAST/CgD0mivNv+F9eAv8AoKTf+Akn+FH/AAvrwF/0FJv/AAEk/wAKAPSaK82/4X14C/6Ck3/gJJ/hR/wvrwF/0FJv/AST/CgD0mivNv8AhfXgL/oKTf8AgJJ/hR/wvrwF/wBBSb/wEk/woA9Jorzb/hfXgL/oKTf+Akn+FH/C+vAX/QUm/wDAST/CgD0mivNv+F9eAv8AoKTf+Akn+FH/AAvrwF/0FJv/AAEk/wAKAPSaK82/4X14C/6Ck3/gJJ/hR/wvrwF/0FJv/AST/CgD0mivNv8AhfXgL/oKTf8AgJJ/hR/wvrwF/wBBSb/wEk/woA9Jorzb/hfXgL/oKTf+Akn+FH/C+vAX/QUm/wDAST/CgD0mivNv+F9eAv8AoKTf+Akn+FH/AAvrwF/0FJv/AAEk/wAKBnlX7SX/ACUDT/8AsHL/AOjHrx8V6L8aPF2keMvF1pf6DO09vHZrEzNGyYYOxxg+xFedUDCiiigAre8Df8j9oX/X/D/6GKwa2fCN1DY+MtIuruQRQQ3kTyO3RVDgk/lQB9yjpRWRpfinQ9ZUf2Xq1pc56COYE/lWsCD3oJFooooAKKKKACiiigAooooAKKKKACiiigAoopCcdaAFJxXAePPi3oHgpXt3c32ogcWkBGV/3j/DXE/Fz40nTpp/D/hG4H2lcpcXqc+We6ofUdz2PvXzzLLJNK0kzs7sSWZjkk0Dsd14p+MvizxPLIovTp1ox4t7Q7Mj/abqa4OSSSWQvK5kdvvM5yTSYoxQMPrzRRRQAUUUUAFLSUUALRxSUUALxRxSUUALxRxSUUALxRxSUUALxRxSUUALxRxSUUALxRxSUUALxRxSUUALxRxSUUALxRxSUUALxRxSUUALxRxSUUALxRxSUUALxRxSUUALSUUUAFFFFABSikpaAHwzSW8gkgkeOQdGQ4P513/hT40eK/DUiJNdHVLMHmC6Ykgf7LdR+o9q89zRmgD7F8DfFXQPG6LDbS/Zb/GWtJyAx/3T/EK7fNfA0E8ttOk1vI0cqNuR0O0qfUEdK+jvhF8ZhrckOgeKJAt+flgujwJ8dj6N/OgR7ZRSA56UtAgooooAKKKKACiiigAooooAK8m+N3xIPhbRxouky41S+Q7mU8wRdN31PQfjXp+p38OmaZcXt04SG3iaV2PYKMmviPxZ4iuPFXii91e6YlriQlR/cX+EflQNGQzM7lmJJJySe9JRRQMKKKKACiiigAooooAKKKKACiiigAooooAKKKKACiiigAooooAKKKKACiiigAooooAKKKKACiiigAooooAKKKKACiiigAooooAKKKKACiiigAooooAKKKKACnJI8MiyRMUdCCrKcEEd6bRQB9X/AAW+Ix8Y+HzYanIP7WsAFc/89k7OP5H3+ten18Q+CPFE3hDxdZ6tCzeXG4WdAfvxk/MPy5r7Ys7qO9s4bmBw8UyB0cfxKRkGgRNRRRQIKKKKACiiigAoooNAHlX7QWutpXw5axibbJqcwhz/ALC/M38gPxr5V717x+03dsb/AESzz8qxySY9yQP6V4RQMKKKKBhRRRQAUUUUAFFFFABRRRQAUUUUAFFFFABRRRQAUUUUAFFFFABRRRQAUUUUAFFFFABRRRQAUUUUAFFFFABRRRQAUUUUAFFFFABRRRQAUUUUAFFFFABRRRQAUUUUAA4r62+BOuNrHwytY5W3S2LtbHP90fd/Qj8q+Sa+hP2ZLxms9csyTtjeOQD0JyP6UCZ71RQKKBBRRRQAUUUUAFBooNAHzZ+0t/yNWlf9ep/9CrxSva/2lf8AkatK/wCvU/8AoVeKUFBRRRQAUUUUAFFFFABRRRQAUUUUAFFFFABRRRQAUUUUAFFFFABRRRQAUUUUAFFFFABRRRQAUUUUAFFFFABRRRQAUUUUAFFFFABRRRQAUUUUAFFFFABRRRQAUUUUAFFFFABXvP7MZ/03xB/1zh/m1eDV7x+zH/x/+If+ucP82oA+hhRQKKCQooooAKKKKACg0UGgD5s/aV/5GrSv+vU/+hV4pXtf7Sv/ACNWlf8AXqf/AEKvFKCgooooAKKKKACiiigAooooAKKKKACiiigAooooAKKKKACiiigAooooAKKKfFFJPMsUKNJI5wqqMkn2oAZRXdaH8HvGeuKskWlPaxMMh7o7Bj6df0rsrP8AZn1mRVa91yzhz1WONnx/KgDxOive2/ZjmC/L4kTd6G1OP/QqytQ/Zt8QwKW0/VLG6x/CQ0ZP8xQK54zRXVa98M/Fvhze+o6NcGBes0Q8xPzFcr9RigYUUUUAFFFFABRRRQAUUUUAFFFFABRRRQAUUUUAFFFFABRRRQAUUUUABr3j9mP/AI/vEP8A1zh/m1eDmveP2Y/+P7xB/wBc4f5tQB9DCigUUEhRRRQAUUUUAFBooNAHzZ+0r/yNWlf9ep/9CrxSva/2lf8AkatK/wCvU/8AoVeKUFBRRRQAUUUUAFFFFABRRRQAUUUUAFFFFABRRRQAUUUUAFFFFAC0nY/pQa9q+DvwgGueX4h8Swn7Crbra1YY84/3m/2fQd6AOb+Hvwc1nxqI726DadpJPFw6/NKP9hf619G+FPhz4c8H24XSbBPtBGHupRvlb/gR6D2HFdPDEkESxxIsaKMKqjAA+lSUCuIBgUtFFAgooooAayhuoB+orz/xn8HfDXi1ZJ1tRp+oMP8Aj6tlA3H/AGl6H69fevQqKAPivxv8PNb8C3vl6nD5tq7YivEB2P8A4H2rla+79W0ey1vTZrDU7eO4tpl2ujrnNfKPxT+F9z4E1T7RaB59HuG/cy9TGf7je/oe9Azz6ijNFAwooooAKKKKACiiigAooooAKKKKACiiigAooooAKKKKAA17z+zH/wAf3iD/AK5wfzavBjXvP7Mf/H94g/65wfzagD6FooooJCiiigAooooAKDRQaAPmz9pX/katK/69T/6FXile1/tK/wDI1aV/16n/ANCrxSgoKKKKACiiigAooooAKKKKACiiigAooooAKKKKACiiigAoopaAO++EXgH/AITjxYv2xCdMsiJbn0f0T8f5A19d28EdtCkMCLHGihVRRgKB0ArivhL4STwl4Cs4JEAvLpftFy3fcw4H4DA/Cu5oEwooooEFFFFABRRRQAUUUUAFZXiHQLPxJolzpmpRq9vOhU5GSvoR7itWigD4b8XeGbvwj4pu9Hvh80LfI/aRDyrD8P61i19J/tE+E1vvD9v4ht4/39iwilI7xse/0P8AOvmygYUUUUDCiiigAooooAKKKKACiiigAooooAKKKKACiiigANe8/sx/8f3iD/rnB/Nq8GNe8/sx/wDH94g/65wfzagGfQtFFFBIUUUUAFFFFABQaKDQB82ftK/8jVpX/Xqf/Qq8Ur2v9pX/AJGrSv8Ar1P/AKFXilBQUUUUAFFFFABRRRQAUUUUAFFFFABRRRQAUUUUAFFFFABXQ+AtIGuePtH0913JLdL5gx/COT/Kuer0r4BWy3HxXtWcZ8m3lkH1xj+tAH1jGqpGqrwFGAKfQKKCQooooAKKKKACiiigAooooAKKKKAMrxPpEeu+F9S0yUArdWzxjPYlTg/gcGvhiSNopnjkGHRirD0I6199su5cGvh3xpaiz8da5AgwkeoThfpvNA0YlFFFAwooooAKKKKACiiigAooooAKKKKACiiigAooooADXvP7Mf8Ax/eIP+ucH82rwY17z+zH/wAf3iD/AK5wfzagGfQtFFFBIUUUUAFFFFABQaKDQB82ftK/8jVpX/Xqf/Qq8Ur2v9pX/katK/69T/6FXilBQUUUUAFFFFABRRRQAUUUUAFFFFABRRRQAUUUUAFFFFABXp/7P0wi+KkKtj95ayqPyB/pXmFdZ8MNUGj/ABL0a7dtsf2gRufZuD/OgD7SFFNByMg5B6U6gkKKKKACiiigAooooAKKKKACiiigAJxXxB47mWf4ga/Ihyp1CbH/AH2a+0dZ1CPSdEvdQnIEdtA8rZ/2Rn+lfCl1cNd3k1zJy8zmRifUnJ/nQNEVFFFAwooooAKKKKACiiigAooooAKKKKACiiigAooooADXvP7Mf/H94g/65wfzavBjXvP7Mf8Ax/eIP+ucH82oBn0LRRRQSFFFFABRRRQAUGig0AfNn7Sv/I1aV/16n/0KvFK9r/aV/wCRq0r/AK9T/wChV4pQUFFFFABRRRQAUUUUAFFFFABRRRQAUUUUAFFFFABRRRQAU5JHikWSJtrqcqw7Gm0tAH2t8PvE0XizwRp+pxsDI0YSdR/DIvDD8/5109fLXwJ8ep4b8Rvouoy7LDUnAVmPEc3RfoDwPyr6jVt3I6UCHUUUUCCiiigAooooAKKKKACgnAoqte39vYWUt1eSLFBEhd3c4AAGTQB5h+0B4pXR/Ax0qGQC61Nwm3/pmD839B+NfLOMDiur+JHjSbxx4yuNQOVtIv3VrH/djHf6k8//AKq5SgaCiiigYUUUUAFFFFABRRRQAUUUUAFFFFABRRRQAUUUUABr3n9mP/j+8Qf9c4P5tXgxr3n9mP8A4/vEH/XOD+bUAz6FooooJCiiigAooooAKDRQaAPmz9pX/katK/69T/6FXile1/tK/wDI1aV/16n/ANCrxSgoKKKKACiiigAooooAKKKKACiiigAooooAKKKKACiiigApaSloAOcjBPHTFfSHwa+Liapaw+HfEdyq30ahba4kP+vA/hJ/vD9a+cKFdkdWRirA5BBwQaAPvpWyO34U6vnL4c/HubT449L8Z7p4Vwsd8vLqP9sdx7jn1r37SdZ0/W7FLvSryK7gcZDxNkf/AFqCS/RRRQAUUUUAFFFYXifxhonhKyNzrd/HbjGUjzl3+i9TQBtyypDE0krBEUZZmOABXzL8Z/iz/wAJFPJ4e8PSkaXG2J51P/Hww7D/AGR+tZfxI+M+peMS+n6V5mn6RnBQN88/uxHQew/HNeY4oGGKKKKBhRRRQAUUUUAFFFFABRRRQAUUUUAFFFFABRRRQAUUUUABr3n9mP8A4/vEH/XOD+bV4Ma95/Zj/wCP7xB/1zg/m1AM+haKKKCQooooAKKKKACg0UGgD5s/aV/5GrSv+vU/+hV4pXtf7Sv/ACNWlf8AXqf/AEKvFKCgooooAKKKKACiiigAooooAKKKKACiiigAooooAKKKKACiiigAooooAK1vD3iLV/DupR3OiahPZyFgG8tuHGejDoR9ayalg/4+I/8AfH86APvSBi1vGx5JUE/lUtQ23/HrF/uD+VTUEhRRRQAjdDXw34turi88Wao93NJM4u5VDSOWIAcgDn2r7kb7pr4V8S/8jVqv/X5N/wChmgaMyiiigYUUUUAFFFFABRRRQAUUUUAFFFFABRRRQAUUUUAFFFFABRRRQAGvef2Y/wDj+8Qf9c4P5tXgxr3n9mP/AI/vEH/XOD+bUAz6FooooJCiiigAooooAKDRQaAPmz9pX/katK/69T/6FXile1/tK/8AI1aV/wBep/8AQq8UoKCiiigAooooAKKKKACiiigAooooAKKKKACiiigAooooAKKKKACiiigAqWD/AI+I/wDfH86iqWD/AI+I/wDfH86APvO2/wCPWL/cH8qmqK2/49Iv9wfyqWgkKKKKAEb7pr4V8S/8jVqv/X5N/wChmvupvumvhXxL/wAjVqv/AF+Tf+hmgaMyiiigYUUUUAFFFFABRRRQAUUUUAFFFFABRRRQAUUUUAFFFFABRRRQAGvef2Y/+P7xB/1zg/m1eDGvef2Y/wDj+8Qf9c4P5tQDPoWiiigkKKKKACiiigAoNFBoA+bP2lf+Rq0r/r1P/oVeKV7X+0r/AMjVpX/Xqf8A0KvFKCgooooAKKKKACiiigAooooAKKKKACiiigAooooAKKKKACiiigAooooAKlg/4+I/98fzqKpYP+PiP/fH86APvS1/49Iv9wfyqWorX/j0i/3B/KpaCQooooARvumvhXxL/wAjVqv/AF+zf+hmvupvumvhXxL/AMjVqv8A1+zf+hmgaMyiiigYUUUUAFFFFABRRRQAUUUUAFFFFABRRRQAUUUUAFFFFABRRRQAGvef2Y/+P7xB/wBc4P5tXgxr3n9mP/j+8Qf9c4P5tQDPoWiiigkKKKKACiiigAoNFBoA+bP2lf8AkatK/wCvU/8AoVeKV7X+0r/yNWlf9ep/9CrxSgoKKKKACiiigAooooAKKKKACiiigAooooAKKKKACiiigAooooAKKKKACpYP+PiP/fH86iqSA4njJ/vD+dAH3ra/8ekX+4P5VLUNowazhIOQUBH5VNQSFFFFACN9018K+Jf+Rq1X/r9m/wDQzX3UxwpzXwp4jYP4n1RlOQbyUg/8DNA0ZtFFFAwooooAKKKKACiiigAooooAKKKKACiiigAooooAKKKKACiiigANe8/sx/8AH94g/wCucH82rwY17z+zH/x/eIP+ucH82oBn0LRRRQSFFFFABRRRQAUGig0AfNn7Sv8AyNWlf9ep/wDQq8Ur2v8AaV/5GrSv+vU/+hV4pQUFFFFABRRRQAUUUUAFFFFABRRRQAUUUUAFFFFABRRRQAUUUUAFFFFABS5xSUvagD7B+EXi+HxV4DssyA3tkgt7hM85UYDfiOa7yvh7wl4v1bwZrS6jo821jhZYm5SVf7rCvofw3+0H4X1OBF1sy6Xc/wAYZC8efZhz+YoEetUE4rix8XfApGf+Ejsx9WI/pWB4h+PvhDTLd/7Lml1S4x8qwxkIT/vGgR1XxC8WW/hDwbe6jM4WbYY7dM8vIRwB/Ovi2V2mmeRzuZzuJPcmuk8b+O9W8dasLvVJAkMYIgtkPyRA/wAye5NcxQMKKKKBhRRRQAUUUUAFFFFABRRRQAUUUUAFFFFABRRRQAUUUUAFFFFAAa95/Zj/AOP7xB/1zg/m1eDGvef2Y/8Aj+8Qf9c4P5tQDPoWiiigkKKKKACiiigAoNFBoA+bP2lf+Rq0r/r1P/oVeKV7X+0r/wAjVpX/AF6n/wBCrxSgoKKKKACiiigAooooAKKKKACiiigAooooAKKKKACiiigAooooAKKKKAClpKKAFpKKKAFpMfjRRQAUUUUAFFFFABRRRQAUUUUAFFFFABRRRQAUUUUAFFFFABRRRQAUUUUAFFFFAAa95/Zj/wCP7xB/1zg/m1eDGvef2Y/+P7xB/wBc4P5tQDPoWiiigkKKKKACiiigAoNFBoA+bP2lf+Rq0r/r1P8A6FXile1/tLf8jVpX/Xqf/Qq8UoKCiiigAooooAKKKKACiiigAooooAKKKKACiiigAooooAKKKKACiiigAooooAKKKKACiiigAooooAKKKKACiiigAooooAKKKKACiiigAooooAKKKKACiiigAooooAKKKKAA17z+zH/x/eIP+ucH82rwY17z+zH/AMf3iD/rnD/NqAZ9C0UUUEhRRRQAUUUUAFBoooA+cP2mISPEWjy9mt2H5NXiFfR/7S2lNN4b0rVETP2e4aJ29A44/Vf1r5wFBSCiiigAooooAKKKKACiiigAooooAKKKKACiiigAooooAKKKKACiiigAooooAKKKKACiiigAooooAKKKKACiiigAooooAKKKKACiiigAooooAKKKKACiiigAooooAKKKKAA9K99/Zjjbz9fk/hKwqD+LGvAq+nf2cdJa08D3eoSLg3l0Qp9VUY/nmgTPYaKKKBBRRRQAUUUUAFFFFAHOeP8Aw6nirwPqeksPnmhJib+66/Mp/MCvieaGS2neGdSkkbFWU9iDgivvogEc18wfHnwA+h+IG8RafFnT9Qf99tH+ql7/AIHr9c0DR5DRRRQMKKKKACiiigAooooAKKKKACiiigAooooAKKKKACiiigAooooAKKKKACiiigAooooAKKKKACiiigAooooAKKKKACiiigAooooAKKKKACiiigAooooAKKKKACiiigCeztJr69htLWMyTTuI40HVmY4A/M19ueD9BTwx4S07SExm2gVXI/ifGWP55rwf9n/wE+oasfFGoQ4tbQlbTcP9ZJ/e+g/nX0kDQJi0UUUCCiiigAooooAKKKKACs7W9Fstf0e403U4RNbXCbHUj9R71o0UAfGPxE+HmoeA9cMMytNp8xJtroDhh/dPow9K4+vuzXNC07xFpcun6vapc20owyuOnuD2PvXzZ8QfgXq/hySS+8Oq2pabksUHMsQ9CP4h7j8aBo8mopzo8TlJVZHU4KsMEfhTaBhRRRQAUUUUAFFFFABRRRQAUUUUAFFFFABRRRQAUUUUAFFFFABRRRQAUUUUAFFFFABRRRQAUUUUAFFFFABRRRQAUUUUAFFFFABRRRQAUUUUAFFFPiiknlWOGNpHY4CqMk/hQAyu5+Gnw2vvHesDKtDpcDD7RckYz/sL6t/Kun+H3wH1LXJI7/xUH06w4ZYOk03/AMSP1r6P0nR7LRNNhsNMt0t7aEYSNBx9frQIdpWmWuj6bb2GnwrBbW6BEjUYAAq7iiigQUUUUAFFFFABRRRQAUUUUAFFFFABSFcjBpaKAOR8S/DHwt4rDNqemRrcN/y8wfu5PzHX8c15ZrP7MzbmbQNdXb2jvI+R/wACX/CvoGigD5Vuf2evGcLEQ/Yrgdik2M/mBVf/AIUF45/59Lb/AMCBX1lRQM+Tf+FBeOf+fS2/8CBR/wAKC8c/8+lt/wCBAr6yooA+Tf8AhQXjn/n0tv8AwIFH/CgvHP8Az6W3/gQK+sqKAPk3/hQXjn/n0tv/AAIFH/CgvHP/AD6W3/gQK+sqKAPk3/hQXjn/AJ9Lb/wIFH/CgvHP/Ppbf+BAr6yooA+Tf+FBeOf+fS2/8CBR/wAKC8c/8+lt/wCBAr6yooA+Tf8AhQXjn/n0tv8AwIFH/CgvHP8Az6W3/gQK+sqKAPk3/hQXjn/n0tv/AAIFH/CgvHP/AD6W3/gQK+sqKAPk3/hQXjn/AJ9Lb/wIFH/CgvHP/Ppbf+BAr6yooA+Tf+FBeOf+fS2/8CBR/wAKC8c/8+lt/wCBAr6yooA+Tf8AhQXjn/n0tv8AwIFH/CgvHP8Az6W3/gQK+sqKAPk3/hQXjn/n0tv/AAIFH/CgvHP/AD6W3/gQK+sqKAPk3/hQXjn/AJ9Lb/wIFH/CgvHP/Ppbf+BAr6yooA+Tf+FBeOf+fS2/8CBR/wAKC8c/8+lt/wCBAr6yooA+Tf8AhQXjn/n0tv8AwIFH/CgvHP8Az6W3/gQK+sqKAPk3/hQXjn/n0tv/AAIFH/CgvHP/AD6W3/gQK+sqKAPk3/hQXjn/AJ9Lb/wIFH/CgvHP/Ppbf+BAr6yooA+Tf+FBeOf+fS2/8CBR/wAKC8c/8+lt/wCBAr6yooA+Tf8AhQXjn/n0tv8AwIFH/CgvHP8Az6W3/gQK+sqKAPk7/hQXjj/n0tv+/wCKntv2evGU8gWY2NuD1LTE4/IV9VYpCKAPA9G/ZnUSK/iDXSyjrHZR4z/wJv8ACvVPDXw48M+FEU6RpcSTj/l4k+eQ/wDAj/SuopaBDQuKdRRQAUUUUAFFFFABRRRQAUUUUAFFFFABRRRQAUUUUAFFFFABRRRQAUUUUAFFFFABRRRQAUUUUAFFFFABRRRQAUUUUAFFFFABRRRQAUUUUAFFFFABRRRQAUUUUAFFFFABRRRQAUUUUAFFFFABRRRQAUUUUAFFFFABRRRQAUUUUAFFFFABRRRQB//Z;rotation=0;" vertex="1" parent="1">
                    <mxGeometry x="2708.005" y="1786.5" width="21.13" height="27" as="geometry"/>
                </mxCell>
                <mxCell id="117" value="" style="shape=image;verticalLabelPosition=bottom;verticalAlign=top;imageAspect=0;aspect=fixed;image=data:image/jpeg,/9j/4AAQSkZJRgABAQEAYABgAAD/4REMRXhpZgAATU0AKgAAAAgABAE7AAIAAAAWAAAISodpAAQAAAABAAAIYJydAAEAAAAsAAAQ2OocAAcAAAgMAAAAPgAAAAAc6gAAAAgAAAAAAAAAAAAAAAAAAAAAAAAAAAAAAAAAAAAAAAAAAAAAAAAAAAAAAAAAAAAAAAAAAAAAAAAAAAAAAAAAAAAAAAAAAAAAAAAAAAAAAAAAAAAAAAAAAAAAAAAAAAAAAAAAAAAAAAAAAAAAAAAAAAAAAAAAAAAAAAAAAAAAAAAAAAAAAAAAAAAAAAAAAAAAAAAAAAAAAAAAAAAAAAAAAAAAAAAAAAAAAAAAAAAAAAAAAAAAAAAAAAAAAAAAAAAAAAAAAAAAAAAAAAAAAAAAAAAAAAAAAAAAAAAAAAAAAAAAAAAAAAAAAAAAAAAAAAAAAAAAAAAAAAAAAAAAAAAAAAAAAAAAAAAAAAAAAAAAAAAAAAAAAAAAAAAAAAAAAAAAAAAAAAAAAAAAAAAAAAAAAAAAAAAAAAAAAAAAAAAAAAAAAAAAAAAAAAAAAAAAAAAAAAAAAAAAAAAAAAAAAAAAAAAAAAAAAAAAAAAAAAAAAAAAAAAAAAAAAAAAAAAAAAAAAAAAAAAAAAAAAAAAAAAAAAAAAAAAAAAAAAAAAAAAAAAAAAAAAAAAAAAAAAAAAAAAAAAAAAAAAAAAAAAAAAAAAAAAAAAAAAAAAAAAAAAAAAAAAAAAAAAAAAAAAAAAAAAAAAAAAAAAAAAAAAAAAAAAAAAAAAAAAAAAAAAAAAAAAAAAAAAAAAAAAAAAAAAAAAAAAAAAAAAAAAAAAAAAAAAAAAAAAAAAAAAAAAAAAAAAAAAAAAAAAAAAAAAAAAAAAAAAAAAAAAAAAAAAAAAAAAAAAAAAAAAAAAAAAAAAAAAAAAAAAAAAAAAAAAAAAAAAAAAAAAAAAAAAAAAAAAAAAAAAAAAAAAAAAAAAAAAAAAAAAAAAAAAAAAAAAAAAAAAAAAAAAAAAAAAAAAAAAAAAAAAAAAAAAAAAAAAAAAAAAAAAAAAAAAAAAAAAAAAAAAAAAAAAAAAAAAAAAAAAAAAAAAAAAAAAAAAAAAAAAAAAAAAAAAAAAAAAAAAAAAAAAAAAAAAAAAAAAAAAAAAAAAAAAAAAAAAAAAAAAAAAAAAAAAAAAAAAAAAAAAAAAAAAAAAAAAAAAAAAAAAAAAAAAAAAAAAAAAAAAAAAAAAAAAAAAAAAAAAAAAAAAAAAAAAAAAAAAAAAAAAAAAAAAAAAAAAAAAAAAAAAAAAAAAAAAAAAAAAAAAAAAAAAAAAAAAAAAAAAAAAAAAAAAAAAAAAAAAAAAAAAAAAAAAAAAAAAAAAAAAAAAAAAAAAAAAAAAAAAAAAAAAAAAAAAAAAAAAAAAAAAAAAAAAAAAAAAAAAAAAAAAAAAAAAAAAAAAAAAAAAAAAAAAAAAAAAAAAAAAAAAAAAAAAAAAAAAAAAAAAAAAAAAAAAAAAAAAAAAAAAAAAAAAAAAAAAAAAAAAAAAAAAAAAAAAAAAAAAAAAAAAAAAAAAAAAAAAAAAAAAAAAAAAAAAAAAAAAAAAAAAAAAAAAAAAAAAAAAAAAAAAAAAAAAAAAAAAAAAAAAAAAAAAAAAAAAAAAAAAAAAAAAAAAAAAAAAAAAAAAAAAAAAAAAAAAAAAAAAAAAAAAAAAAAAAAAAAAAAAAAAAAAAAAAAAAAAAAAAAAAAAAAAAAAAAAAAAAAAAAAAAAAAAAAAAAAAAAAAAAAAAAAAAAAAAAAAAAAAAAAAAAAAAAAAAAAAAAAAAAAAAAAAAAAAAAAAAAAAAAAAAAAAAAAAAAAAAAAAAAAAAAAAAAAAAAAAAAAAAAAAAAAAAAAAAAAAAAAAAAAAAAAAAAAAAAAAAAAAAAAAAAAAAAAAAAAAAAAAAAAAAAAAAAAAAAAAAAAAAAAAAAAAAAAAAAAAAAAAAAAAAAAAAAAAAAAAAAAAAAAAAAAAAAAAAAAAAAAAAAAAAAAAAAAAAAAAAAAAAAAAAAAAAAAAAAAAAAAAAAAAAAAAAAAAAAAAAAAAAAAAAAAAAAAAAAAAAAAAAAAAAAAAAAAAAAAAAAAAAAAAAAAAAAAAAAAAAAAAAAAAAAAAAAAAAAAAAAAAAAAAAAAAAAAAAAAAAAAAAAAAAAAAAAAAAAAAAAAAAAAAAAAAAAAAAAAAAAAAAAAAAAAAAAAAAAAAAAAAAAAAAAAAAAAAAAAAAAAAAAAAAAAAAAAAAAAAAAAAAAAAAAAAAAAAAAAAAAAAAAAAAAAAAAAAAAAAAAAAAAAAAAAAAAAAAAAAAAAAAAAAAAAAAAAAAAAAAAAAAAAAAAAAAAAAAAAAAAAAAAAAAAAAAAAAAAAAAAAAAAAAAAAAAAAAAAAAAAAAAAAAAAAAAAAAAAAAAAAAAAAAAAAAAAAAAAAAAAAAAAAAAAAAAAAAAAAAAAAAAAAAAAAAAAAAAAAAAAAAAAAAAAAAAAAAAAAAAAAAAAAAAAAAAAAAAAAAAAAAAAAAAAAAAAAAAAAAAAAAAAAAAAAAAAAAAAAAAAAAAAAAAAAAAAAAAAAAAAAAAAAAAAAAAAAAAAAAAAAAAAAAAAAAAAAAAAAAAAAAAAAAAAAAAAAAAAAAAAAAAAAAAAAAAAAAAAAAAAAAAAAAAAAAAAAAAAAAAAAAAAAAAAAAAAAAAAAAAAAAAAAAAAAAAAAAAAAAAAAAAAAAAAAAAAAAAAAAAAAAAAAAAAAAAAAAAAAAAAAAAAAAAAAAAAAAAAAAAAAAAAAAAAAAAAAAAAAAAAAAAAAAAAAAAAAAAAAAAAAAAAAAAAAAAAAAAAAAAAAAAAAAAAAAAEFkcmlhYW5zZSwgSi4gKEpvb3N0KQAABZADAAIAAAAUAAAQrpAEAAIAAAAUAAAQwpKRAAIAAAADODUAAJKSAAIAAAADODUAAOocAAcAAAgMAAAIogAAAAAc6gAAAAgAAAAAAAAAAAAAAAAAAAAAAAAAAAAAAAAAAAAAAAAAAAAAAAAAAAAAAAAAAAAAAAAAAAAAAAAAAAAAAAAAAAAAAAAAAAAAAAAAAAAAAAAAAAAAAAAAAAAAAAAAAAAAAAAAAAAAAAAAAAAAAAAAAAAAAAAAAAAAAAAAAAAAAAAAAAAAAAAAAAAAAAAAAAAAAAAAAAAAAAAAAAAAAAAAAAAAAAAAAAAAAAAAAAAAAAAAAAAAAAAAAAAAAAAAAAAAAAAAAAAAAAAAAAAAAAAAAAAAAAAAAAAAAAAAAAAAAAAAAAAAAAAAAAAAAAAAAAAAAAAAAAAAAAAAAAAAAAAAAAAAAAAAAAAAAAAAAAAAAAAAAAAAAAAAAAAAAAAAAAAAAAAAAAAAAAAAAAAAAAAAAAAAAAAAAAAAAAAAAAAAAAAAAAAAAAAAAAAAAAAAAAAAAAAAAAAAAAAAAAAAAAAAAAAAAAAAAAAAAAAAAAAAAAAAAAAAAAAAAAAAAAAAAAAAAAAAAAAAAAAAAAAAAAAAAAAAAAAAAAAAAAAAAAAAAAAAAAAAAAAAAAAAAAAAAAAAAAAAAAAAAAAAAAAAAAAAAAAAAAAAAAAAAAAAAAAAAAAAAAAAAAAAAAAAAAAAAAAAAAAAAAAAAAAAAAAAAAAAAAAAAAAAAAAAAAAAAAAAAAAAAAAAAAAAAAAAAAAAAAAAAAAAAAAAAAAAAAAAAAAAAAAAAAAAAAAAAAAAAAAAAAAAAAAAAAAAAAAAAAAAAAAAAAAAAAAAAAAAAAAAAAAAAAAAAAAAAAAAAAAAAAAAAAAAAAAAAAAAAAAAAAAAAAAAAAAAAAAAAAAAAAAAAAAAAAAAAAAAAAAAAAAAAAAAAAAAAAAAAAAAAAAAAAAAAAAAAAAAAAAAAAAAAAAAAAAAAAAAAAAAAAAAAAAAAAAAAAAAAAAAAAAAAAAAAAAAAAAAAAAAAAAAAAAAAAAAAAAAAAAAAAAAAAAAAAAAAAAAAAAAAAAAAAAAAAAAAAAAAAAAAAAAAAAAAAAAAAAAAAAAAAAAAAAAAAAAAAAAAAAAAAAAAAAAAAAAAAAAAAAAAAAAAAAAAAAAAAAAAAAAAAAAAAAAAAAAAAAAAAAAAAAAAAAAAAAAAAAAAAAAAAAAAAAAAAAAAAAAAAAAAAAAAAAAAAAAAAAAAAAAAAAAAAAAAAAAAAAAAAAAAAAAAAAAAAAAAAAAAAAAAAAAAAAAAAAAAAAAAAAAAAAAAAAAAAAAAAAAAAAAAAAAAAAAAAAAAAAAAAAAAAAAAAAAAAAAAAAAAAAAAAAAAAAAAAAAAAAAAAAAAAAAAAAAAAAAAAAAAAAAAAAAAAAAAAAAAAAAAAAAAAAAAAAAAAAAAAAAAAAAAAAAAAAAAAAAAAAAAAAAAAAAAAAAAAAAAAAAAAAAAAAAAAAAAAAAAAAAAAAAAAAAAAAAAAAAAAAAAAAAAAAAAAAAAAAAAAAAAAAAAAAAAAAAAAAAAAAAAAAAAAAAAAAAAAAAAAAAAAAAAAAAAAAAAAAAAAAAAAAAAAAAAAAAAAAAAAAAAAAAAAAAAAAAAAAAAAAAAAAAAAAAAAAAAAAAAAAAAAAAAAAAAAAAAAAAAAAAAAAAAAAAAAAAAAAAAAAAAAAAAAAAAAAAAAAAAAAAAAAAAAAAAAAAAAAAAAAAAAAAAAAAAAAAAAAAAAAAAAAAAAAAAAAAAAAAAAAAAAAAAAAAAAAAAAAAAAAAAAAAAAAAAAAAAAAAAAAAAAAAAAAAAAAAAAAAAAAAAAAAAAAAAAAAAAAAAAAAAAAAAAAAAAAAAAAAAAAAAAAAAAAAAAAAAAAAAAAAAAAAAAAAAAAAAAAAAAAAAAAAAAAAAAAAAAAAAAAAAAAAAAAAAAAAAAAAAAAAAAAAAAAAAAAAAAAAAAAAAAAAAAAAAAAAAAAAAAAAAAAAAAAAAAAAAAAAAAAAAAAAAAAAAAAAAAAAAAAAAAAAAAAAAAAAAAAAAAAAAAAAAAAAAAAAAAAAAAAAAAAAAAAAAAAAAAAAAAAAAAAAAAAAAAAAAAAAAAAAAAAAAAAAAAAAAAAAAAAAAAAAAAAAAAAAAAAAAAAAAAAAAAAAAAAAAAAAAAAAAAAAAAAAAAAAAAAAAAAAAAAAAAAAAAAAAAAAAAAAAAAAAAAAAAAAAAAAAAAAAAAAAAAAAAAAAAAAAAAAAAAAAAAAAAAAAAAAAAAAAAAAAAAAAAAAAAAAAAAAAAAAAAAAAAAAAAAAAAAAAAAAAAAAAAAAAAAAAAAAAAAAAAAAAAAAAAAAAAAAAAAAAAAAAAAAAAAAAAAAAAAAAAAAAAAAAAAAAAAAAAAAAAAAAAAAAAAAAAAAAAAAAAAAAAAAAAAAAAAAAAAAAAAAAAAAAAAAAAAAAAAAAAAAAAAAAAAAAAAAAAAAAAAAAAAAAAAAAAAAAAAAAAAAAAAAAAAAAAAAAAAAAAAAAAAAAAAAAAAAAAAAAAAAAAAAAAAAAAAAAAAAAAAAAAAAAAAAAAAAAAAAAAAAAAAAAAAAAAAAAAAAAAAAAAAAAAAAAAAAAAAAAAAAAAAAAAAAAAAAAAAAAAAAAAAAAAAAAAAAAAAAAAAAAAAAAAAAAAAAAAAAAAAAAAAAAAAAAAAAAAAAAAAAAAAAAAAAAAAAAAAAAAAAAAAAAAAAAAAAAAAAAAAAAAAAAAAAAAAAAAAAAAAAAAAAAAAAAAAAAAAAAAAAAAAAAAAAAAAAADIwMjE6MTA6MjcgMTg6NTY6MzEAMjAyMToxMDoyNyAxODo1NjozMQAAAEEAZAByAGkAYQBhAG4AcwBlACwAIABKAC4AIAAoAEoAbwBvAHMAdAApAAAA/+ELKGh0dHA6Ly9ucy5hZG9iZS5jb20veGFwLzEuMC8APD94cGFja2V0IGJlZ2luPSfvu78nIGlkPSdXNU0wTXBDZWhpSHpyZVN6TlRjemtjOWQnPz4NCjx4OnhtcG1ldGEgeG1sbnM6eD0iYWRvYmU6bnM6bWV0YS8iPjxyZGY6UkRGIHhtbG5zOnJkZj0iaHR0cDovL3d3dy53My5vcmcvMTk5OS8wMi8yMi1yZGYtc3ludGF4LW5zIyI+PHJkZjpEZXNjcmlwdGlvbiByZGY6YWJvdXQ9InV1aWQ6ZmFmNWJkZDUtYmEzZC0xMWRhLWFkMzEtZDMzZDc1MTgyZjFiIiB4bWxuczpkYz0iaHR0cDovL3B1cmwub3JnL2RjL2VsZW1lbnRzLzEuMS8iLz48cmRmOkRlc2NyaXB0aW9uIHJkZjphYm91dD0idXVpZDpmYWY1YmRkNS1iYTNkLTExZGEtYWQzMS1kMzNkNzUxODJmMWIiIHhtbG5zOnhtcD0iaHR0cDovL25zLmFkb2JlLmNvbS94YXAvMS4wLyI+PHhtcDpDcmVhdGVEYXRlPjIwMjEtMTAtMjdUMTg6NTY6MzEuODQ4PC94bXA6Q3JlYXRlRGF0ZT48L3JkZjpEZXNjcmlwdGlvbj48cmRmOkRlc2NyaXB0aW9uIHJkZjphYm91dD0idXVpZDpmYWY1YmRkNS1iYTNkLTExZGEtYWQzMS1kMzNkNzUxODJmMWIiIHhtbG5zOmRjPSJodHRwOi8vcHVybC5vcmcvZGMvZWxlbWVudHMvMS4xLyI+PGRjOmNyZWF0b3I+PHJkZjpTZXEgeG1sbnM6cmRmPSJodHRwOi8vd3d3LnczLm9yZy8xOTk5LzAyLzIyLXJkZi1zeW50YXgtbnMjIj48cmRmOmxpPkFkcmlhYW5zZSwgSi4gKEpvb3N0KTwvcmRmOmxpPjwvcmRmOlNlcT4NCgkJCTwvZGM6Y3JlYXRvcj48L3JkZjpEZXNjcmlwdGlvbj48L3JkZjpSREY+PC94OnhtcG1ldGE+DQogICAgICAgICAgICAgICAgICAgICAgICAgICAgICAgICAgICAgICAgICAgICAgICAgICAgICAgICAgICAgICAgICAgICAgICAgICAgICAgICAgICAgICAgICAgICAgICAgICAgCiAgICAgICAgICAgICAgICAgICAgICAgICAgICAgICAgICAgICAgICAgICAgICAgICAgICAgICAgICAgICAgICAgICAgICAgICAgICAgICAgICAgICAgICAgICAgICAgICAgICAKICAgICAgICAgICAgICAgICAgICAgICAgICAgICAgICAgICAgICAgICAgICAgICAgICAgICAgICAgICAgICAgICAgICAgICAgICAgICAgICAgICAgICAgICAgICAgICAgICAgIAogICAgICAgICAgICAgICAgICAgICAgICAgICAgICAgICAgICAgICAgICAgICAgICAgICAgICAgICAgICAgICAgICAgICAgICAgICAgICAgICAgICAgICAgICAgICAgICAgICAgCiAgICAgICAgICAgICAgICAgICAgICAgICAgICAgICAgICAgICAgICAgICAgICAgICAgICAgICAgICAgICAgICAgICAgICAgICAgICAgICAgICAgICAgICAgICAgICAgICAgICAKICAgICAgICAgICAgICAgICAgICAgICAgICAgICAgICAgICAgICAgICAgICAgICAgICAgICAgICAgICAgICAgICAgICAgICAgICAgICAgICAgICAgICAgICAgICAgICAgICAgIAogICAgICAgICAgICAgICAgICAgICAgICAgICAgICAgICAgICAgICAgICAgICAgICAgICAgICAgICAgICAgICAgICAgICAgICAgICAgICAgICAgICAgICAgICAgICAgICAgICAgCiAgICAgICAgICAgICAgICAgICAgICAgICAgICAgICAgICAgICAgICAgICAgICAgICAgICAgICAgICAgICAgICAgICAgICAgICAgICAgICAgICAgICAgICAgICAgICAgICAgICAKICAgICAgICAgICAgICAgICAgICAgICAgICAgICAgICAgICAgICAgICAgICAgICAgICAgICAgICAgICAgICAgICAgICAgICAgICAgICAgICAgICAgICAgICAgICAgICAgICAgIAogICAgICAgICAgICAgICAgICAgICAgICAgICAgICAgICAgICAgICAgICAgICAgICAgICAgICAgICAgICAgICAgICAgICAgICAgICAgICAgICAgICAgICAgICAgICAgICAgICAgCiAgICAgICAgICAgICAgICAgICAgICAgICAgICAgICAgICAgICAgICAgICAgICAgICAgICAgICAgICAgICAgICAgICAgICAgICAgICAgICAgICAgICAgICAgICAgICAgICAgICAKICAgICAgICAgICAgICAgICAgICAgICAgICAgICAgICAgICAgICAgICAgICAgICAgICAgICAgICAgICAgICAgICAgICAgICAgICAgICAgICAgICAgICAgICAgICAgICAgICAgIAogICAgICAgICAgICAgICAgICAgICAgICAgICAgICAgICAgICAgICAgICAgICAgICAgICAgICAgICAgICAgICAgICAgICAgICAgICAgICAgICAgICAgICAgICAgICAgICAgICAgCiAgICAgICAgICAgICAgICAgICAgICAgICAgICAgICAgICAgICAgICAgICAgICAgICAgICAgICAgICAgICAgICAgICAgICAgICAgICAgICAgICAgICAgICAgICAgICAgICAgICAKICAgICAgICAgICAgICAgICAgICAgICAgICAgICAgICAgICAgICAgICAgICAgICAgICAgICAgICAgICAgICAgICAgICAgICAgICAgICAgICAgICAgICAgICAgICAgICAgICAgIAogICAgICAgICAgICAgICAgICAgICAgICAgICAgICAgICAgICAgICAgICAgICAgICAgICAgICAgICAgICAgICAgICAgICAgICAgICAgICAgICAgICAgICAgICAgICAgICAgICAgCiAgICAgICAgICAgICAgICAgICAgICAgICAgICAgICAgICAgICAgICAgICAgICAgICAgICAgICAgICAgICAgICAgICAgICAgICAgICAgICAgICAgICAgICAgICAgICAgICAgICAKICAgICAgICAgICAgICAgICAgICAgICAgICAgICAgICAgICAgICAgICAgICAgICAgICAgICAgICAgICAgICAgICAgICAgICAgICAgICAgICAgICAgICAgICAgICAgICAgICAgIAogICAgICAgICAgICAgICAgICAgICAgICAgICAgICAgICAgICAgICAgICAgICAgICAgICAgICAgICAgICAgICAgICAgICAgICAgICAgICAgICAgICAgICAgICAgICAgICAgICAgCiAgICAgICAgICAgICAgICAgICAgICAgICAgICAgICAgICAgICAgICAgICAgICAgICAgICAgICAgICAgICAgICAgICAgICAgICAgICAgICAgICAgICAgICAgICAgICAgICAgICAKICAgICAgICAgICAgICAgICAgICAgICAgICAgIDw/eHBhY2tldCBlbmQ9J3cnPz7/2wBDAAcFBQYFBAcGBQYIBwcIChELCgkJChUPEAwRGBUaGRgVGBcbHichGx0lHRcYIi4iJSgpKywrGiAvMy8qMicqKyr/2wBDAQcICAoJChQLCxQqHBgcKioqKioqKioqKioqKioqKioqKioqKioqKioqKioqKioqKioqKioqKioqKioqKioqKir/wAARCAJfAdsDASIAAhEBAxEB/8QAHwAAAQUBAQEBAQEAAAAAAAAAAAECAwQFBgcICQoL/8QAtRAAAgEDAwIEAwUFBAQAAAF9AQIDAAQRBRIhMUEGE1FhByJxFDKBkaEII0KxwRVS0fAkM2JyggkKFhcYGRolJicoKSo0NTY3ODk6Q0RFRkdISUpTVFVWV1hZWmNkZWZnaGlqc3R1dnd4eXqDhIWGh4iJipKTlJWWl5iZmqKjpKWmp6ipqrKztLW2t7i5usLDxMXGx8jJytLT1NXW19jZ2uHi4+Tl5ufo6erx8vP09fb3+Pn6/8QAHwEAAwEBAQEBAQEBAQAAAAAAAAECAwQFBgcICQoL/8QAtREAAgECBAQDBAcFBAQAAQJ3AAECAxEEBSExBhJBUQdhcRMiMoEIFEKRobHBCSMzUvAVYnLRChYkNOEl8RcYGRomJygpKjU2Nzg5OkNERUZHSElKU1RVVldYWVpjZGVmZ2hpanN0dXZ3eHl6goOEhYaHiImKkpOUlZaXmJmaoqOkpaanqKmqsrO0tba3uLm6wsPExcbHyMnK0tPU1dbX2Nna4uPk5ebn6Onq8vP09fb3+Pn6/9oADAMBAAIRAxEAPwD6RooooAKKKKACiiigAooooAKKKKACiiigAooooAKKKKACiiigAooooAKKKKACiiigAooooAKKKKACiiigAooooAKKKKACiiigAooooAKKKKACiiigAooooAKKKKACiiigAooooAKKKKACiiigAooooAKKKKACiiigAooooAKKKKACiiigAooooAKKKKACiiigAooooAKKKKACiiigAooooAKKKKACiqGoa1pmkxmTU7+3tE9ZpQv865LUfjR4H04kHWUuGHa3Uv8A0oA7yivHrv8AaQ8Lwlvs1jqE+OmEVQfzNZcv7Tmn5/ceHrtgP70yCgD3WivBf+Gnbb/oWrj/AMCF/wAKP+Gnbb/oWrj/AMCV/wAKAPeqK8F/4adtv+hauP8AwJX/AAo/4adtv+hauP8AwJX/AAoA96orwX/hp22/6Fq4/wDAlf8ACj/hp22/6Fq4/wDAlf8ACgD3qivBf+Gnbb/oWrj/AMCV/wAKB+05an/mW7j/AMCV/wAKAPeqK8Og/aZ0on/SdBvV/wByVG/wrXsv2i/CNyQLiG+tc95Iwf5E0AetUVxmm/FnwTquBb6/bI5/gmJQ/qK6y1vLe9hEtpPHNG3Ro3DA/iKAJ6KKKACiiigAooooAKKKKACiiigAooooAKKKKACiiigAooooAKKKKACiiigAooooAKKKKACiiigAooooAKKKKACiiigAooooAKKKKACiiq97fWunWr3N9PHbwxjLSSMFAH1NAFiqOqavp+jWbXWq3sFpAn3pJpAo/M14t44/aGgtmksvBsIuXGQb6VcID/sr1P1PFeGa34k1fxHeG51q+mu5CeN7fKv0HQUDsfQfif8AaL0SwZ4fDdrJqUq8ebIPLj/Dua8o8QfGvxprm6NNS/s63brHZrsP/fX3vyIrz+igCW5ubi8nM1zPJM56tI5Yn8TzUVFFAwooooAKKKKACiiigAooooAKKKKACiiigA6Vd0/WdT0icTaVqFzZyA5DQSsn8qpUUAepaB8f/Fuk7E1Mw6tCOD5w2P8AmvH5ivXPC3x58K680cF/K2k3LEDFyf3ZP+/0H44r5RoPTigR99QzxXMSywSLJGwyrI2QR9akzXxR4V+IfiPwfMp0i/cQA5NtKd8Z/wCAnp+GK+gvAnxz0TxO0VnrONK1FuAJG/dSH/ZbsfY/rQB6rRSK6uoZCGUjII70uaBBRRRQAUUUUAFFFFABRRRQAUUUUAFFFFABRRRQAUUUUAFFFFABRRRQAUUUUAFFFFABRRRQAUUUUAFFFFABSZoJxXlPxV+Mdr4RjfStFaO51hl+Y9Uts92/2vb86AOl8d/ErRfAtiWvZPPvXGYbSM/M3ufQe9fLnjT4i6744vWk1S4KWoP7qziJEaD6dz7msDUtSvNW1Ca+1K4e5uZm3PJIckmqtAwooooGFFFFABRRRQAUUUUAFFFFABRRRQAUUUUAFFFFABRRRQAUUUUAFFFFABR2opaAPSvh78adY8ISR2WqPJqWk5A8t2zJCP8AYJ7ex4+lfTfhzxPpPinSY9Q0a7SeJuoHDIfRh2NfDNb3hHxjq3gzWEv9HnKDpLC3KSr6MP60CPuAHNFcf4A+Iel+OtHE1m4jvIgPtFqx+aM+3qPQ114OaBC0UUUAFFFFABRRRQAUUUUAFFFFABRRRQAUUUUAFFFFABRRRQAUUUUAFFFFABRRRQAUUUUAFITilJxXnPxb+JUXgfQ/s9i6vq92pWBD/wAsx0Lke3b3oAxvjD8W08M276LoEofVpVxJKPu2y/8AxR7CvmOWWS4mead2klkYs7ucliepNLdXU97dyXN3K008rFpHc5LE9aZQMMUlLSUDCiiigAoopQCzAAEknAA70AJRXd+Gfg94u8S7ZItPNlbNyJ7v5Mj1A6n8q9R0P9mrTIVV/EOsXF03eO1AjX8zkn9KAPnOlGSeBX2Jpvwf8D6bt8vQLeZl/iuMyE/99Gt+Dwf4cthiDQ7CP/dt1/woFc+Hdjf3W/75o2N6N/3zX3V/wj2j/wDQLs/+/K/4Uf8ACPaP/wBAuz/78r/hQFz4V2N6N/3zRsb0b/vmvur/AIR7R/8AoF2f/flf8KP+Ee0f/oF2f/flf8KAufCuxvRv++aNjejf98191f8ACPaP/wBAuz/78r/hR/wj2j/9Auz/AO/K/wCFAXPhXY3o3/fNGxv7p/Kvur/hHtH/AOgXZ/8Aflf8KD4d0cjB0uzI/wCuK/4UBc+FKTNfcFz4H8L3Y/0nQNPk/wB63X/Cua1X4IeBtTU40r7G5/itJCmPw5H6UBc+RKK96179ml1DyeG9a3jqIb1eT7blH9K8p8S/D7xN4VZm1fTJkgHS4Qb4z+I/rQFzm6KMYooGFFFFABQaKKANLQdf1DwzrMOp6TO0NxEeoPDDureoNfXHw6+Ilh480ITW5EN/CAt1bE8o3qPVT2NfGtbPhbxRqHhHXoNV0qTbJE3zofuyJ3U+xoFY+5aKwPB/iyx8ZeHYNV01uHGJIyfmifuprfFAgooooAKKKKACiiigAooooAKKKKACiiigAooooAKKKKACiiigAooooAKKKKACiikY/KecUAY3i3xLZ+E/DV1q9+3yQLlUB5kbso9zXxh4m8RXvirxBc6tqUm6adsgA8IvZR7Cu/8Ajl49PiXxQdIsJc6bprFMqeJZf4j9B0H415UKBi4ooooGFFFFABRShWZgqAkk4AHrXu/wt+Bv2mOHWvGUJCn5obBuCR2Z/wD4n86AOA8C/CjX/G7rPBEbPTc4a8mHDf7g/i/l719F+DvhN4a8HKktvaC7vgObu4G5wfbsv4c+9drbW8VrbpDbxrFEgwiIMBR6AVLQSIAABgYpaKKACiiigAooooAKKKKACiiigAooooAKKKKACo5okmjKSIrqwwVYZzUlFAHk/jb4D6B4hWS60Nf7Jvjk4iH7pz7r2/CvnbxV4L1vwZqP2XXLRocn93OOY5B6huh+nWvuGs3XNB07xHpslhrFrHc28g5VxyD6g9QfegZ8Jg8UV6V8T/hDe+CJ2v8ATA93o7tw4GWg/wBlv6H+Vea0DCiiigAoxRRQB3fwo+IM3gbxMn2gs+l3bBLmPOdvo4HqP5V9f288VzbxzQOskcihkZTwwPevgWvo/wDZ+8e/2jpz+F9TmLXVou+0Zj9+Puv1B/T6UCPb6KAciigQUUUUAFFFFABRRRQAUUUUAFFFFABRRRQAUUUUAFFFFABRRRQAUUUUAFcF8XfGI8IeBriWB9l7d5t7bnncRyfwGa72vkz46eKz4i8fyWcMhNppYMCAHgv1dvz4/CgDzVmLsWY5JOSfWkoooKCiiigApcZ6UlewfA34bDxFqY8Q6xFnTrR8QRsOJ5B3/wB0fzoA6f4M/CFbWOHxJ4lgBuGAe0tZB/qx1DsPX0HavdVXaKFQJwOAOgFOoJCiiigAooooAKKKKACiiigAooooAKKKKACiiigAooooAKKKKACiiigCC6s4b22kt7qNZYZFKujDIYehr5a+L3wpk8G37aro8bSaNcP0HJtmPY/7Pofwr6sqlqml2usaZPYahEJradCjow6g0DPg/sPekrrviP4GuvAvimWykDPZzZktZj/GnofcdD/9euRoGFFFFABWl4d1q68OeIbPVrFiJraQOAD94dx+NZtH1oA+7dB1e217QrPVLFw8F1EsikH1HT+laNeD/s4eLDNZXvhm6kJaE/aLUHsp+8Pz5/GvdxQIWiiigQUUUUAFFFFABRRRQAUUUUAFFFFABRRRQAUUUUAFFFFABRRRQBheM9ej8M+DdT1aU4+zwMU93PCj8SRXxFPPJc3Mk0zFpJWLux7knk19G/tJ699n8OadosT4a7nMso/2E6f+PH9K+be9A0LRRRQMKKKKANjwn4dufFfiiy0eyGXuJMM3aNByzH6AGvtXQ9FtNA0a10zT4xHb2yBEA7+59z1ryD9nTwiLTR7rxLdx/vrs+TASOkankj6n+Ve4UCCiiigQUUUUAFFFFABRRRQAUUUUAFFFFABRRRQAUUUUAFFFFABRRRQAUUUUAFFFFAHE/FPwRH418G3FvEi/b7cGW1c/3gPu59D0r46lieGV4pVKSIxVlYYII4IPvX30eRXyr8evCI0Dxt/adtHttdUBk4HAlH3/AM8g/jQM8sooooGFFFFAHS/D7xEfC3jvTNTLFYVlEc//AFzY4b8hz+Ffa8biSNXGCGGQRXwGTgV9m/CnXT4g+G2lXTtulii+zyn/AGk+X+gNAjsaKKKBBRRRQAUUUUAFFFFABRRRQAUUUUAFFFFABRRRQAUUUUAFFFIzbVJNAHyl+0Bqp1D4mSWytmOygSPHoSMn+Yry7vXQePNROq/EDW7vdlXvZFX/AHVYgfoBWBQUFFFFABVnTrCbVNUtbC1XdNdTLDGPUsQB/Oq1ei/A7Rhq/wAT7N5BlLNHuDx0IGB+p/SgD6m8P6RDoPh+x0u1GIrSFYl98DGfx61p0UUEhRRRQAUUUUAFFFFABRRRQAUUUUAFFFFABRRRQAUUUUAFFFFABRRRQAUUUUAFFFFABXnnxu8Nf8JD8N7t4o991p5+1RYHOB98f985/KvQ6gvLdLuxmt5QGSVCjA9wRQB8EZ/Kir+u6c2keIL/AE9+trcPF+RwKoUFBRRRQAV9Gfs06sZdE1bSmP8Ax7yrMo9mGD+q185163+zpqP2b4hXFmTgXlmwx6lSD/LNAM+o6KQUtBIUUUUAFFFFABRRRQAUUUUAFFFFABRRRQAUUUUAFFFFABVe/mFtp9xO3AijZ/yGasVj+LpPJ8Fa1IOCthOR9fLagD4cnlNxdSTN1kcufxOaZSDnFLQUFFFFABXvH7M2nh77W9QK/wCrSOEH65P9K8Hr6T/ZogCeFNXnI5kvVUH6IP8AGgGe10UUUEhRRRQAUUUUAFFFFABRRRQAUUUUAFFFFABRRRQAUUUUAFFFFABRRRQAUUUUAFFFFABQaKKAPjz4z6f/AGf8VtWAGFnZZh/wJQf55rhK9X/aKg8r4lRP/wA9bGNv/HmH9K8ooKCiiigAruPg3efYvi3ob5xvkeIj13RsK4eul+Hcvk/EjQHHa+iH5sB/WgD7ZHSikFLQSFFFFABRRRQAUUUUAFFFFABRRRQAUUUUAFFFFABRRRQAVh+Nv+RC17/sHT/+i2rcrD8bf8iFr3/YOn/9FtQB8OjoPpRQOgooKCiiigAr6b/ZuH/FBX5/6fz/AOgJXzJX05+zd/yIV/8A9f7f+gJQDPYRS0UUEhRRRQAUUUUAFFFFABRRRQAUUUUAFFFFABRRRQAUUUUAFFFFABRRRQAUUUUAFFFFABRRQaAPmH9pH/koFh76cv8A6MevH69g/aT4+IGn/wDYOX/0Y9eP0FBRRRQAVveB/wDkftC/6/4f/QxWDW94G/5H7Qv+v+H/ANDFAH2/S0CigkKKKKACiiigAooooAKKKKACiiigAooooAKKKKACiiigArD8bf8AIha9/wBg6f8A9FtW5WH42/5ELXv+wdP/AOi2oA+HR0FFA6CigoKKKKACvpz9m7/kQr//AK/2/wDQFr5jr6c/Zu/5EK//AOv9v/QFoBnsVFFFBIUUUUAFFFFABRRRQAUUUUAFFFFABRRRQAUUUUAFFFFABRRRQAUUUUAFFFFABRRRQAUGiigD5h/aT/5KBp//AGDl/wDRj14+K9g/aS/5KBp//YOX/wBGPXj4oKCiiigAre8Df8j9oX/X/D/6GKwa3vA3/I/aF/1/w/8AoYoA+4B0ooHSigkKKKKACiiigAooooAKKKKACiiigAooooAKKKKACiiigArD8bf8iFr3/YOn/wDRbVuVh+Nv+RC17/sHT/8AotqAPh0dBRQOgooKCiiigAr6c/Zu/wCRCv8A/r/b/wBAWvmOvpz9m7/kQr//AK/2/wDQFoBnsVFFFBIUUUUAFFFFABRRRQAUUUUAFFFFABRRRQAUUUUAFFFFABRRRQAUUUUAFFFFABRRRQAUUUGgD5h/aS/5KBp//YOX/wBGPXj4r2D9pP8A5KBp/wD2Dl/9GPXj4oKCiiigAre8Df8AI/aF/wBf8P8A6GKwa3vA3/I/aF/1/wAP/oYoA+4B0ooHSigkKKKKACiiigAooooAKKKKACiiigAooooAKKKKACiiigArD8bf8iFr3/YOn/8ARbVuVh+Nv+RC17/sHT/+i2oA+HR0FFA6CigoKKKKACvpz9m7/kQr/wD6/wBv/QFr5jr6c/Zu/wCRCv8A/r/b/wBAWgGexUUUUEhRRRQAUUUUAFFFFABRRRQAUUUUAFFFFABRRRQAUUUUAFFFFABRRRQAUUUUAFFFFABRRRQB8w/tJf8AJQNP/wCwcv8A6MevHxXsH7SX/JQNP/7By/8Aox68fFBQUUUUAFb3gb/kftC/6/4f/QxWDW94G/5H7Qv+v+H/ANDFAH3AOlFA6UUEhRRRQAUUUUAFFFFABRRRQAUUUUAFFFFABRRRQAUUUE460AFYfjb/AJELXv8AsHT/APotq29w9a5H4geJNFsvBes291qlrHNLYzIkZlG5mKEAYoA+MB0FFFFBQUUUUAFfTn7N3/IhX/8A1/t/6AtfMde3/Bf4l+GvBvhS7sdevZIJ5bsyKqwO/wAu1RnIB9KAPo+ivNv+F9eAv+gpN/4CSf8AxNH/AAvrwF/0FJv/AAEk/wAKCT0mivNv+F9eAv8AoKTf+Akn+FH/AAvrwF/0FJv/AAEk/wAKAPSaK82/4X14C/6Ck3/gJJ/hR/wvrwF/0FJv/AST/CgD0mivNv8AhfXgL/oKTf8AgJJ/hR/wvrwF/wBBSb/wEk/woA9Jorzb/hfXgL/oKTf+Akn+FH/C+vAX/QUm/wDAST/CgD0mivNv+F9eAv8AoKTf+Akn+FH/AAvrwF/0FJv/AAEk/wAKAPSaK82/4X14C/6Ck3/gJJ/hR/wvrwF/0FJv/AST/CgD0mivNv8AhfXgL/oKTf8AgJJ/hR/wvrwF/wBBSb/wEk/woA9Jorzb/hfXgL/oKTf+Akn+FH/C+vAX/QUm/wDAST/CgD0mivNv+F9eAv8AoKTf+Akn+FH/AAvrwF/0FJv/AAEk/wAKAPSaK82/4X14C/6Ck3/gJJ/hR/wvrwF/0FJv/AST/CgD0mivNv8AhfXgL/oKTf8AgJJ/hR/wvrwF/wBBSb/wEk/woA9Jorzb/hfXgL/oKTf+Akn+FH/C+vAX/QUm/wDAST/CgD0mivNv+F9eAv8AoKTf+Akn+FH/AAvrwF/0FJv/AAEk/wAKBnlX7SX/ACUDT/8AsHL/AOjHrx8V6L8aPF2keMvF1pf6DO09vHZrEzNGyYYOxxg+xFedUDCiiigAre8Df8j9oX/X/D/6GKwa2fCN1DY+MtIuruQRQQ3kTyO3RVDgk/lQB9yjpRWRpfinQ9ZUf2Xq1pc56COYE/lWsCD3oJFooooAKKKKACiiigAooooAKKKKACiiigAoopCcdaAFJxXAePPi3oHgpXt3c32ogcWkBGV/3j/DXE/Fz40nTpp/D/hG4H2lcpcXqc+We6ofUdz2PvXzzLLJNK0kzs7sSWZjkk0Dsd14p+MvizxPLIovTp1ox4t7Q7Mj/abqa4OSSSWQvK5kdvvM5yTSYoxQMPrzRRRQAUUUUAFLSUUALRxSUUALxRxSUUALxRxSUUALxRxSUUALxRxSUUALxRxSUUALxRxSUUALxRxSUUALxRxSUUALxRxSUUALxRxSUUALxRxSUUALxRxSUUALxRxSUUALSUUUAFFFFABSikpaAHwzSW8gkgkeOQdGQ4P513/hT40eK/DUiJNdHVLMHmC6Ykgf7LdR+o9q89zRmgD7F8DfFXQPG6LDbS/Zb/GWtJyAx/3T/EK7fNfA0E8ttOk1vI0cqNuR0O0qfUEdK+jvhF8ZhrckOgeKJAt+flgujwJ8dj6N/OgR7ZRSA56UtAgooooAKKKKACiiigAooooAK8m+N3xIPhbRxouky41S+Q7mU8wRdN31PQfjXp+p38OmaZcXt04SG3iaV2PYKMmviPxZ4iuPFXii91e6YlriQlR/cX+EflQNGQzM7lmJJJySe9JRRQMKKKKACiiigAooooAKKKKACiiigAooooAKKKKACiiigAooooAKKKKACiiigAooooAKKKKACiiigAooooAKKKKACiiigAooooAKKKKACiiigAooooAKKKKACnJI8MiyRMUdCCrKcEEd6bRQB9X/AAW+Ix8Y+HzYanIP7WsAFc/89k7OP5H3+ten18Q+CPFE3hDxdZ6tCzeXG4WdAfvxk/MPy5r7Ys7qO9s4bmBw8UyB0cfxKRkGgRNRRRQIKKKKACiiigAoooNAHlX7QWutpXw5axibbJqcwhz/ALC/M38gPxr5V717x+03dsb/AESzz8qxySY9yQP6V4RQMKKKKBhRRRQAUUUUAFFFFABRRRQAUUUUAFFFFABRRRQAUUUUAFFFFABRRRQAUUUUAFFFFABRRRQAUUUUAFFFFABRRRQAUUUUAFFFFABRRRQAUUUUAFFFFABRRRQAUUUUAA4r62+BOuNrHwytY5W3S2LtbHP90fd/Qj8q+Sa+hP2ZLxms9csyTtjeOQD0JyP6UCZ71RQKKBBRRRQAUUUUAFBooNAHzZ+0t/yNWlf9ep/9CrxSva/2lf8AkatK/wCvU/8AoVeKUFBRRRQAUUUUAFFFFABRRRQAUUUUAFFFFABRRRQAUUUUAFFFFABRRRQAUUUUAFFFFABRRRQAUUUUAFFFFABRRRQAUUUUAFFFFABRRRQAUUUUAFFFFABRRRQAUUUUAFFFFABXvP7MZ/03xB/1zh/m1eDV7x+zH/x/+If+ucP82oA+hhRQKKCQooooAKKKKACg0UGgD5s/aV/5GrSv+vU/+hV4pXtf7Sv/ACNWlf8AXqf/AEKvFKCgooooAKKKKACiiigAooooAKKKKACiiigAooooAKKKKACiiigAooooAKKKfFFJPMsUKNJI5wqqMkn2oAZRXdaH8HvGeuKskWlPaxMMh7o7Bj6df0rsrP8AZn1mRVa91yzhz1WONnx/KgDxOive2/ZjmC/L4kTd6G1OP/QqytQ/Zt8QwKW0/VLG6x/CQ0ZP8xQK54zRXVa98M/Fvhze+o6NcGBes0Q8xPzFcr9RigYUUUUAFFFFABRRRQAUUUUAFFFFABRRRQAUUUUAFFFFABRRRQAUUUUABr3j9mP/AI/vEP8A1zh/m1eDmveP2Y/+P7xB/wBc4f5tQB9DCigUUEhRRRQAUUUUAFBooNAHzZ+0r/yNWlf9ep/9CrxSva/2lf8AkatK/wCvU/8AoVeKUFBRRRQAUUUUAFFFFABRRRQAUUUUAFFFFABRRRQAUUUUAFFFFAC0nY/pQa9q+DvwgGueX4h8Swn7Crbra1YY84/3m/2fQd6AOb+Hvwc1nxqI726DadpJPFw6/NKP9hf619G+FPhz4c8H24XSbBPtBGHupRvlb/gR6D2HFdPDEkESxxIsaKMKqjAA+lSUCuIBgUtFFAgooooAayhuoB+orz/xn8HfDXi1ZJ1tRp+oMP8Aj6tlA3H/AGl6H69fevQqKAPivxv8PNb8C3vl6nD5tq7YivEB2P8A4H2rla+79W0ey1vTZrDU7eO4tpl2ujrnNfKPxT+F9z4E1T7RaB59HuG/cy9TGf7je/oe9Azz6ijNFAwooooAKKKKACiiigAooooAKKKKACiiigAooooAKKKKAA17z+zH/wAf3iD/AK5wfzavBjXvP7Mf/H94g/65wfzagD6FooooJCiiigAooooAKDRQaAPmz9pX/katK/69T/6FXile1/tK/wDI1aV/16n/ANCrxSgoKKKKACiiigAooooAKKKKACiiigAooooAKKKKACiiigAoopaAO++EXgH/AITjxYv2xCdMsiJbn0f0T8f5A19d28EdtCkMCLHGihVRRgKB0ArivhL4STwl4Cs4JEAvLpftFy3fcw4H4DA/Cu5oEwooooEFFFFABRRRQAUUUUAFZXiHQLPxJolzpmpRq9vOhU5GSvoR7itWigD4b8XeGbvwj4pu9Hvh80LfI/aRDyrD8P61i19J/tE+E1vvD9v4ht4/39iwilI7xse/0P8AOvmygYUUUUDCiiigAooooAKKKKACiiigAooooAKKKKACiiigANe8/sx/8f3iD/rnB/Nq8GNe8/sx/wDH94g/65wfzagGfQtFFFBIUUUUAFFFFABQaKDQB82ftK/8jVpX/Xqf/Qq8Ur2v9pX/AJGrSv8Ar1P/AKFXilBQUUUUAFFFFABRRRQAUUUUAFFFFABRRRQAUUUUAFFFFABXQ+AtIGuePtH0913JLdL5gx/COT/Kuer0r4BWy3HxXtWcZ8m3lkH1xj+tAH1jGqpGqrwFGAKfQKKCQooooAKKKKACiiigAooooAKKKKAMrxPpEeu+F9S0yUArdWzxjPYlTg/gcGvhiSNopnjkGHRirD0I6199su5cGvh3xpaiz8da5AgwkeoThfpvNA0YlFFFAwooooAKKKKACiiigAooooAKKKKACiiigAooooADXvP7Mf8Ax/eIP+ucH82rwY17z+zH/wAf3iD/AK5wfzagGfQtFFFBIUUUUAFFFFABQaKDQB82ftK/8jVpX/Xqf/Qq8Ur2v9pX/katK/69T/6FXilBQUUUUAFFFFABRRRQAUUUUAFFFFABRRRQAUUUUAFFFFABXp/7P0wi+KkKtj95ayqPyB/pXmFdZ8MNUGj/ABL0a7dtsf2gRufZuD/OgD7SFFNByMg5B6U6gkKKKKACiiigAooooAKKKKACiiigAJxXxB47mWf4ga/Ihyp1CbH/AH2a+0dZ1CPSdEvdQnIEdtA8rZ/2Rn+lfCl1cNd3k1zJy8zmRifUnJ/nQNEVFFFAwooooAKKKKACiiigAooooAKKKKACiiigAooooADXvP7Mf/H94g/65wfzavBjXvP7Mf8Ax/eIP+ucH82oBn0LRRRQSFFFFABRRRQAUGig0AfNn7Sv/I1aV/16n/0KvFK9r/aV/wCRq0r/AK9T/wChV4pQUFFFFABRRRQAUUUUAFFFFABRRRQAUUUUAFFFFABRRRQAU5JHikWSJtrqcqw7Gm0tAH2t8PvE0XizwRp+pxsDI0YSdR/DIvDD8/5109fLXwJ8ep4b8Rvouoy7LDUnAVmPEc3RfoDwPyr6jVt3I6UCHUUUUCCiiigAooooAKKKKACgnAoqte39vYWUt1eSLFBEhd3c4AAGTQB5h+0B4pXR/Ax0qGQC61Nwm3/pmD839B+NfLOMDiur+JHjSbxx4yuNQOVtIv3VrH/djHf6k8//AKq5SgaCiiigYUUUUAFFFFABRRRQAUUUUAFFFFABRRRQAUUUUABr3n9mP/j+8Qf9c4P5tXgxr3n9mP8A4/vEH/XOD+bUAz6FooooJCiiigAooooAKDRQaAPmz9pX/katK/69T/6FXile1/tK/wDI1aV/16n/ANCrxSgoKKKKACiiigAooooAKKKKACiiigAooooAKKKKACiiigApaSloAOcjBPHTFfSHwa+Liapaw+HfEdyq30ahba4kP+vA/hJ/vD9a+cKFdkdWRirA5BBwQaAPvpWyO34U6vnL4c/HubT449L8Z7p4Vwsd8vLqP9sdx7jn1r37SdZ0/W7FLvSryK7gcZDxNkf/AFqCS/RRRQAUUUUAFFFYXifxhonhKyNzrd/HbjGUjzl3+i9TQBtyypDE0krBEUZZmOABXzL8Z/iz/wAJFPJ4e8PSkaXG2J51P/Hww7D/AGR+tZfxI+M+peMS+n6V5mn6RnBQN88/uxHQew/HNeY4oGGKKKKBhRRRQAUUUUAFFFFABRRRQAUUUUAFFFFABRRRQAUUUUABr3n9mP8A4/vEH/XOD+bV4Ma95/Zj/wCP7xB/1zg/m1AM+haKKKCQooooAKKKKACg0UGgD5s/aV/5GrSv+vU/+hV4pXtf7Sv/ACNWlf8AXqf/AEKvFKCgooooAKKKKACiiigAooooAKKKKACiiigAooooAKKKKACiiigAooooAK1vD3iLV/DupR3OiahPZyFgG8tuHGejDoR9ayalg/4+I/8AfH86APvSBi1vGx5JUE/lUtQ23/HrF/uD+VTUEhRRRQAjdDXw34turi88Wao93NJM4u5VDSOWIAcgDn2r7kb7pr4V8S/8jVqv/X5N/wChmgaMyiiigYUUUUAFFFFABRRRQAUUUUAFFFFABRRRQAUUUUAFFFFABRRRQAGvef2Y/wDj+8Qf9c4P5tXgxr3n9mP/AI/vEH/XOD+bUAz6FooooJCiiigAooooAKDRQaAPmz9pX/katK/69T/6FXile1/tK/8AI1aV/wBep/8AQq8UoKCiiigAooooAKKKKACiiigAooooAKKKKACiiigAooooAKKKKACiiigAqWD/AI+I/wDfH86iqWD/AI+I/wDfH86APvO2/wCPWL/cH8qmqK2/49Iv9wfyqWgkKKKKAEb7pr4V8S/8jVqv/X5N/wChmvupvumvhXxL/wAjVqv/AF+Tf+hmgaMyiiigYUUUUAFFFFABRRRQAUUUUAFFFFABRRRQAUUUUAFFFFABRRRQAGvef2Y/+P7xB/1zg/m1eDGvef2Y/wDj+8Qf9c4P5tQDPoWiiigkKKKKACiiigAoNFBoA+bP2lf+Rq0r/r1P/oVeKV7X+0r/AMjVpX/Xqf8A0KvFKCgooooAKKKKACiiigAooooAKKKKACiiigAooooAKKKKACiiigAooooAKlg/4+I/98fzqKpYP+PiP/fH86APvS1/49Iv9wfyqWorX/j0i/3B/KpaCQooooARvumvhXxL/wAjVqv/AF+zf+hmvupvumvhXxL/AMjVqv8A1+zf+hmgaMyiiigYUUUUAFFFFABRRRQAUUUUAFFFFABRRRQAUUUUAFFFFABRRRQAGvef2Y/+P7xB/wBc4P5tXgxr3n9mP/j+8Qf9c4P5tQDPoWiiigkKKKKACiiigAoNFBoA+bP2lf8AkatK/wCvU/8AoVeKV7X+0r/yNWlf9ep/9CrxSgoKKKKACiiigAooooAKKKKACiiigAooooAKKKKACiiigAooooAKKKKACpYP+PiP/fH86iqSA4njJ/vD+dAH3ra/8ekX+4P5VLUNowazhIOQUBH5VNQSFFFFACN9018K+Jf+Rq1X/r9m/wDQzX3UxwpzXwp4jYP4n1RlOQbyUg/8DNA0ZtFFFAwooooAKKKKACiiigAooooAKKKKACiiigAooooAKKKKACiiigANe8/sx/8AH94g/wCucH82rwY17z+zH/x/eIP+ucH82oBn0LRRRQSFFFFABRRRQAUGig0AfNn7Sv8AyNWlf9ep/wDQq8Ur2v8AaV/5GrSv+vU/+hV4pQUFFFFABRRRQAUUUUAFFFFABRRRQAUUUUAFFFFABRRRQAUUUUAFFFFABS5xSUvagD7B+EXi+HxV4DssyA3tkgt7hM85UYDfiOa7yvh7wl4v1bwZrS6jo821jhZYm5SVf7rCvofw3+0H4X1OBF1sy6Xc/wAYZC8efZhz+YoEetUE4rix8XfApGf+Ejsx9WI/pWB4h+PvhDTLd/7Lml1S4x8qwxkIT/vGgR1XxC8WW/hDwbe6jM4WbYY7dM8vIRwB/Ovi2V2mmeRzuZzuJPcmuk8b+O9W8dasLvVJAkMYIgtkPyRA/wAye5NcxQMKKKKBhRRRQAUUUUAFFFFABRRRQAUUUUAFFFFABRRRQAUUUUAFFFFAAa95/Zj/AOP7xB/1zg/m1eDGvef2Y/8Aj+8Qf9c4P5tQDPoWiiigkKKKKACiiigAoNFBoA+bP2lf+Rq0r/r1P/oVeKV7X+0r/wAjVpX/AF6n/wBCrxSgoKKKKACiiigAooooAKKKKACiiigAooooAKKKKACiiigAooooAKKKKAClpKKAFpKKKAFpMfjRRQAUUUUAFFFFABRRRQAUUUUAFFFFABRRRQAUUUUAFFFFABRRRQAUUUUAFFFFAAa95/Zj/wCP7xB/1zg/m1eDGvef2Y/+P7xB/wBc4P5tQDPoWiiigkKKKKACiiigAoNFBoA+bP2lf+Rq0r/r1P8A6FXile1/tLf8jVpX/Xqf/Qq8UoKCiiigAooooAKKKKACiiigAooooAKKKKACiiigAooooAKKKKACiiigAooooAKKKKACiiigAooooAKKKKACiiigAooooAKKKKACiiigAooooAKKKKACiiigAooooAKKKKAA17z+zH/x/eIP+ucH82rwY17z+zH/AMf3iD/rnD/NqAZ9C0UUUEhRRRQAUUUUAFBoooA+cP2mISPEWjy9mt2H5NXiFfR/7S2lNN4b0rVETP2e4aJ29A44/Vf1r5wFBSCiiigAooooAKKKKACiiigAooooAKKKKACiiigAooooAKKKKACiiigAooooAKKKKACiiigAooooAKKKKACiiigAooooAKKKKACiiigAooooAKKKKACiiigAooooAKKKKAA9K99/Zjjbz9fk/hKwqD+LGvAq+nf2cdJa08D3eoSLg3l0Qp9VUY/nmgTPYaKKKBBRRRQAUUUUAFFFFAHOeP8Aw6nirwPqeksPnmhJib+66/Mp/MCvieaGS2neGdSkkbFWU9iDgivvogEc18wfHnwA+h+IG8RafFnT9Qf99tH+ql7/AIHr9c0DR5DRRRQMKKKKACiiigAooooAKKKKACiiigAooooAKKKKACiiigAooooAKKKKACiiigAooooAKKKKACiiigAooooAKKKKACiiigAooooAKKKKACiiigAooooAKKKKACiiigCeztJr69htLWMyTTuI40HVmY4A/M19ueD9BTwx4S07SExm2gVXI/ifGWP55rwf9n/wE+oasfFGoQ4tbQlbTcP9ZJ/e+g/nX0kDQJi0UUUCCiiigAooooAKKKKACs7W9Fstf0e403U4RNbXCbHUj9R71o0UAfGPxE+HmoeA9cMMytNp8xJtroDhh/dPow9K4+vuzXNC07xFpcun6vapc20owyuOnuD2PvXzZ8QfgXq/hySS+8Oq2pabksUHMsQ9CP4h7j8aBo8mopzo8TlJVZHU4KsMEfhTaBhRRRQAUUUUAFFFFABRRRQAUUUUAFFFFABRRRQAUUUUAFFFFABRRRQAUUUUAFFFFABRRRQAUUUUAFFFFABRRRQAUUUUAFFFFABRRRQAUUUUAFFFPiiknlWOGNpHY4CqMk/hQAyu5+Gnw2vvHesDKtDpcDD7RckYz/sL6t/Kun+H3wH1LXJI7/xUH06w4ZYOk03/AMSP1r6P0nR7LRNNhsNMt0t7aEYSNBx9frQIdpWmWuj6bb2GnwrBbW6BEjUYAAq7iiigQUUUUAFFFFABRRRQAUUUUAFFFFABSFcjBpaKAOR8S/DHwt4rDNqemRrcN/y8wfu5PzHX8c15ZrP7MzbmbQNdXb2jvI+R/wACX/CvoGigD5Vuf2evGcLEQ/Yrgdik2M/mBVf/AIUF45/59Lb/AMCBX1lRQM+Tf+FBeOf+fS2/8CBR/wAKC8c/8+lt/wCBAr6yooA+Tf8AhQXjn/n0tv8AwIFH/CgvHP8Az6W3/gQK+sqKAPk3/hQXjn/n0tv/AAIFH/CgvHP/AD6W3/gQK+sqKAPk3/hQXjn/AJ9Lb/wIFH/CgvHP/Ppbf+BAr6yooA+Tf+FBeOf+fS2/8CBR/wAKC8c/8+lt/wCBAr6yooA+Tf8AhQXjn/n0tv8AwIFH/CgvHP8Az6W3/gQK+sqKAPk3/hQXjn/n0tv/AAIFH/CgvHP/AD6W3/gQK+sqKAPk3/hQXjn/AJ9Lb/wIFH/CgvHP/Ppbf+BAr6yooA+Tf+FBeOf+fS2/8CBR/wAKC8c/8+lt/wCBAr6yooA+Tf8AhQXjn/n0tv8AwIFH/CgvHP8Az6W3/gQK+sqKAPk3/hQXjn/n0tv/AAIFH/CgvHP/AD6W3/gQK+sqKAPk3/hQXjn/AJ9Lb/wIFH/CgvHP/Ppbf+BAr6yooA+Tf+FBeOf+fS2/8CBR/wAKC8c/8+lt/wCBAr6yooA+Tf8AhQXjn/n0tv8AwIFH/CgvHP8Az6W3/gQK+sqKAPk3/hQXjn/n0tv/AAIFH/CgvHP/AD6W3/gQK+sqKAPk3/hQXjn/AJ9Lb/wIFH/CgvHP/Ppbf+BAr6yooA+Tf+FBeOf+fS2/8CBR/wAKC8c/8+lt/wCBAr6yooA+Tf8AhQXjn/n0tv8AwIFH/CgvHP8Az6W3/gQK+sqKAPk7/hQXjj/n0tv+/wCKntv2evGU8gWY2NuD1LTE4/IV9VYpCKAPA9G/ZnUSK/iDXSyjrHZR4z/wJv8ACvVPDXw48M+FEU6RpcSTj/l4k+eQ/wDAj/SuopaBDQuKdRRQAUUUUAFFFFABRRRQAUUUUAFFFFABRRRQAUUUUAFFFFABRRRQAUUUUAFFFFABRRRQAUUUUAFFFFABRRRQAUUUUAFFFFABRRRQAUUUUAFFFFABRRRQAUUUUAFFFFABRRRQAUUUUAFFFFABRRRQAUUUUAFFFFABRRRQAUUUUAFFFFABRRRQB//Z;rotation=0;" vertex="1" parent="1">
                    <mxGeometry x="2585.195" y="1855.5" width="21.13" height="27" as="geometry"/>
                </mxCell>
                <mxCell id="123" value="" style="edgeStyle=none;jumpStyle=arc;html=1;dashed=1;" edge="1" parent="1" source="105" target="95">
                    <mxGeometry relative="1" as="geometry">
                        <Array as="points">
                            <mxPoint x="2180" y="1820"/>
                        </Array>
                    </mxGeometry>
                </mxCell>
                <mxCell id="129" style="edgeStyle=none;jumpStyle=arc;html=1;entryX=0.5;entryY=0;entryDx=0;entryDy=0;dashed=1;startArrow=classic;startFill=1;endArrow=none;endFill=0;" edge="1" parent="1" source="96" target="86">
                    <mxGeometry relative="1" as="geometry">
                        <Array as="points">
                            <mxPoint x="2332" y="1620"/>
                        </Array>
                    </mxGeometry>
                </mxCell>
                <mxCell id="130" style="edgeStyle=none;jumpStyle=arc;html=1;entryX=0.75;entryY=0;entryDx=0;entryDy=0;dashed=1;startArrow=none;startFill=0;endArrow=classic;endFill=1;" edge="1" parent="1" source="96" target="93">
                    <mxGeometry relative="1" as="geometry">
                        <Array as="points">
                            <mxPoint x="2417" y="1820"/>
                        </Array>
                    </mxGeometry>
                </mxCell>
                <mxCell id="133" value="" style="endArrow=classic;html=1;exitX=0;exitY=0.5;exitDx=0;exitDy=0;startArrow=classic;startFill=1;" edge="1" parent="1" source="88">
                    <mxGeometry width="50" height="50" relative="1" as="geometry">
                        <mxPoint x="2062" y="1420" as="sourcePoint"/>
                        <mxPoint x="1892" y="1420" as="targetPoint"/>
                    </mxGeometry>
                </mxCell>
                <mxCell id="134" value="&lt;div&gt;&lt;span style=&quot;font-size: 17px&quot;&gt;Optional:&lt;/span&gt;&lt;/div&gt;&lt;ul&gt;&lt;li&gt;&lt;font style=&quot;font-size: 17px&quot;&gt;Data Sink&lt;/font&gt;&lt;/li&gt;&lt;li&gt;&lt;font style=&quot;font-size: 17px&quot;&gt;User Interaction&lt;/font&gt;&lt;/li&gt;&lt;li&gt;&lt;font style=&quot;font-size: 17px&quot;&gt;Additional Procesing&lt;/font&gt;&lt;/li&gt;&lt;/ul&gt;" style="edgeLabel;html=1;align=left;verticalAlign=middle;resizable=0;points=[];fontStyle=1" vertex="1" connectable="0" parent="133">
                    <mxGeometry x="0.268" relative="1" as="geometry">
                        <mxPoint x="-286" as="offset"/>
                    </mxGeometry>
                </mxCell>
            </root>
        </mxGraphModel>
    </diagram>
</mxfile>